<?xml version="1.0" standalone="no"?>
<!DOCTYPE svg PUBLIC "-//W3C//DTD SVG 1.1//EN" "http://www.w3.org/Graphics/SVG/1.1/DTD/svg11.dtd" >
<svg xmlns="http://www.w3.org/2000/svg" xmlns:xlink="http://www.w3.org/1999/xlink" version="1.1">
<metadata>
Created by FontForge 20200511 at Mon Aug 24 11:11:21 2009
 By convertio
Copyright (c) 2009 by Kudryavtsev Andrey. All rights reserved.
</metadata>
<defs>
<font id="karlson" horiz-adv-x="827" >
  <font-face 
    font-family="karlson"
    font-weight="400"
    font-stretch="normal"
    units-per-em="1000"
    panose-1="2 0 5 3 0 0 0 2 0 4"
    ascent="750"
    descent="-250"
    x-height="665"
    cap-height="692"
    bbox="-113.75 -402.612 1409 994"
    underline-thickness="50"
    underline-position="-100"
    stemh="128"
    stemv="224"
    unicode-range="U+000A-2122"
  />
<missing-glyph horiz-adv-x="500" 
 />
    <glyph glyph-name=".notdef" horiz-adv-x="500" 
 />
    <glyph glyph-name="uni000A" unicode="&#xa;" horiz-adv-x="0" 
 />
    <glyph glyph-name="space" unicode=" " horiz-adv-x="500" 
 />
    <glyph glyph-name="exclam" unicode="!" horiz-adv-x="439" 
d="M214 182c82 0 114 -45 114 -101s-36 -101 -114 -101c-77 0 -113 45 -113 101s32 101 113 101zM71 667c107 40 188 34 296 -2c-57 -138 -45 -357 -39 -419c-64 -35 -173 -34 -224 0c-36 100 -47 294 -33 421z" />
    <glyph glyph-name="quotedbl" unicode="&#x22;" horiz-adv-x="547" 
d="M230 791c-9 -58 -9 -188 0 -245c-36 -27 -152 -21 -180 1c5 59 5 187 0 246c28 22 144 25 180 -2zM497 791c-9 -58 -9 -188 0 -245c-36 -27 -152 -21 -180 1c5 59 5 187 0 246c28 22 144 25 180 -2z" />
    <glyph glyph-name="numbersign" unicode="#" horiz-adv-x="955" 
d="M291 740c53 25 153 40 196 -25c-10 -39 -20 -81 -30 -124c51 -1 102 -3 152 -3c9 52 18 103 27 152c53 25 152 41 196 -23c-11 -42 -22 -85 -32 -130c43 1 85 2 125 4c54 -56 23 -151 -12 -198c-49 2 -100 4 -152 6c-11 -56 -21 -112 -31 -169c45 0 90 0 132 -1
c39 -23 49 -134 3 -198c-53 5 -109 9 -167 12c-9 -50 -17 -98 -25 -144c-38 -22 -155 -38 -198 27c10 39 21 81 31 124c-51 2 -101 2 -152 3c-9 -53 -18 -105 -26 -154c-37 -22 -154 -38 -198 27c11 41 22 84 32 129c-43 0 -84 0 -124 1c-37 29 -59 131 -5 199
c53 -5 110 -9 169 -12c11 55 21 112 31 168c-54 -1 -107 -2 -156 -5c-48 54 -17 173 15 199c56 -2 114 -4 174 -7c9 49 17 96 25 142zM386 235c53 -1 106 -2 158 -3c12 57 23 116 33 173c-53 2 -106 4 -159 5c-11 -58 -21 -116 -32 -175z" />
    <glyph glyph-name="dollar" unicode="$" horiz-adv-x="752" 
d="M356 460c83 -28 165 -24 242 -55c68 -27 121 -90 113 -210c-4 -58 -40 -114 -89 -145c-49 -30 -111 -43 -172 -47c3 -34 6 -65 10 -93c-35 -26 -150 -24 -178 -2c2 22 3 54 5 93c-87 5 -180 24 -223 96c-17 30 -25 63 -23 106c32 32 72 49 128 52c54 2 105 -11 134 -49
c-18 -59 39 -81 91 -69c32 7 56 29 56 66c0 69 -83 63 -163 77c-61 11 -121 29 -164 57c-58 39 -85 107 -78 175c13 130 119 176 232 189c-2 36 -4 67 -6 93c29 22 145 23 180 -4c-3 -18 -6 -49 -8 -89c64 -7 124 -22 168 -58c48 -39 63 -80 70 -113
c-32 -35 -85 -53 -138 -53c-41 -1 -83 9 -114 31c7 56 -40 83 -88 68c-25 -8 -39 -32 -39 -57c1 -32 26 -50 54 -59z" />
    <glyph glyph-name="percent" unicode="%" horiz-adv-x="833" 
d="M813 141c1 71 -7 98 -42 98s-43 -27 -42 -98c-1 -72 7 -98 42 -99c35 1 43 27 42 99zM572 141c2 117 95 179 199 179s193 -62 194 -179c-1 -116 -90 -178 -194 -178s-197 62 -199 178zM636 749c64 25 121 10 149 -51c-141 -229 -317 -560 -440 -799
c-46 -21 -132 -16 -160 45c141 230 329 567 451 805zM284 544c1 71 -7 98 -42 98s-43 -27 -42 -98c-1 -72 7 -99 42 -100c35 1 43 28 42 100zM43 544c2 116 95 178 199 178s193 -62 194 -178c-1 -117 -90 -179 -194 -179s-197 62 -199 179z" />
    <glyph glyph-name="ampersand" unicode="&#x26;" horiz-adv-x="1007" 
d="M515 529c-4 41 -34 61 -70 61c-33 0 -66 -15 -72 -51c-5 -40 20 -73 47 -99c40 11 99 42 95 89zM445 711c122 -5 287 -28 294 -169c4 -141 -152 -188 -213 -205c24 -23 69 -58 92 -67c12 11 39 49 46 75c80 29 175 16 226 -16c-1 -36 -39 -106 -83 -151
c27 -13 117 -36 149 -31c3 -68 -78 -140 -159 -157c-74 -5 -163 38 -177 48c-89 -39 -166 -58 -259 -57c-125 2 -290 48 -308 195c-5 40 1 82 21 119c20 36 62 76 133 106c-78 75 -89 201 9 264c62 40 154 48 229 46zM477 133c-66 43 -115 85 -157 132
c-29 -17 -46 -50 -42 -82c5 -52 61 -74 107 -75c35 -1 68 8 92 25z" />
    <glyph glyph-name="quotesingle" unicode="'" horiz-adv-x="280" 
d="M230 791c-9 -58 -9 -188 0 -245c-36 -27 -152 -21 -180 1c5 59 5 187 0 246c28 22 144 25 180 -2z" />
    <glyph glyph-name="parenleft" unicode="(" horiz-adv-x="484" 
d="M419 0c-55 -25 -130 -38 -203 -28c-162 153 -281 492 23 762c73 2 147 -11 195 -60c-183 -291 -90 -536 -15 -674z" />
    <glyph glyph-name="parenright" unicode=")" horiz-adv-x="484" 
d="M65 681c42 23 136 40 204 28c162 -153 280 -492 -24 -761c-64 -6 -158 18 -195 59c184 291 90 536 15 674z" />
    <glyph glyph-name="asterisk" unicode="*" horiz-adv-x="612" 
d="M362 696c59 33 111 53 147 64c29 -20 64 -123 49 -165c-36 2 -95 1 -162 -9c50 -47 86 -90 107 -121c-10 -34 -98 -98 -142 -98c-9 36 -28 92 -59 151c-29 -62 -58 -109 -81 -138c-36 -1 -124 62 -137 104c31 20 78 55 125 103c-68 9 -122 22 -156 35
c-13 33 20 137 57 162c28 -23 76 -57 136 -87c-13 67 -17 123 -16 160c29 22 137 22 173 -4c-14 -35 -31 -91 -41 -157z" />
    <glyph glyph-name="plus" unicode="+" horiz-adv-x="666" 
d="M239 615c40 29 137 26 182 2c-2 -39 -5 -109 -5 -182l178 5c31 -45 26 -133 -2 -174c-37 3 -103 7 -176 9l5 -183c-45 -31 -141 -26 -182 2c3 38 8 106 9 182c-79 -1 -149 -5 -177 -10c-29 40 -26 129 -2 174c39 -2 108 -5 180 -5c0 81 -5 151 -10 180z" />
    <glyph glyph-name="comma" unicode="," horiz-adv-x="348" 
d="M173 238c91 -2 142 -46 149 -131c3 -33 -1 -70 -11 -106c-23 -84 -78 -159 -128 -198c-46 -16 -125 2 -144 43c56 46 93 94 101 138c-64 5 -118 49 -114 128c3 64 44 128 147 126z" />
    <glyph glyph-name="hyphen" unicode="-" horiz-adv-x="486" 
d="M71 268c-29 40 -26 125 -2 170c40 0 83 -4 124 -3c32 1 65 1 98 0c41 -1 83 3 123 3c31 -45 26 -129 -2 -170c-36 6 -80 6 -125 7c-33 1 -67 1 -99 0c-42 -2 -83 -2 -117 -7z" />
    <glyph glyph-name="period" unicode="." horiz-adv-x="348" 
d="M174 237c103 0 144 -56 144 -127c0 -70 -46 -123 -144 -123c-99 0 -144 53 -144 123c0 71 40 127 144 127z" />
    <glyph glyph-name="slash" unicode="/" horiz-adv-x="640" 
d="M434 776c71 27 175 6 206 -62c-155 -251 -299 -552 -434 -814c-51 -23 -175 -8 -206 59c155 252 300 555 434 817z" />
    <glyph glyph-name="zero" unicode="0" horiz-adv-x="816" 
d="M408 692c133 0 215 -31 272 -90c68 -72 85 -167 86 -256c-1 -89 -18 -184 -86 -256c-57 -59 -139 -89 -272 -89s-216 30 -272 89c-69 72 -85 167 -86 256c1 89 17 184 86 256c56 59 139 90 272 90zM408 128c54 0 67 74 70 213c2 127 -9 222 -70 223
c-62 -1 -72 -96 -70 -223c2 -139 16 -213 70 -213z" />
    <glyph glyph-name="one" unicode="1" horiz-adv-x="583" 
d="M533 656c-17 -104 -23 -191 -24 -295c-2 -119 6 -223 24 -337c-45 -20 -102 -26 -171 -26c-68 -1 -134 6 -179 26c14 89 22 172 23 261c1 42 4 86 0 139c-25 -20 -89 -44 -119 -49c-57 22 -74 107 -64 136c137 63 218 127 264 177c92 16 183 3 246 -32z" />
    <glyph glyph-name="two" unicode="2" horiz-adv-x="736" 
d="M92 19c-27 46 -27 133 -8 181c100 34 262 106 324 199c10 16 28 47 23 82c-5 38 -31 60 -69 59c-76 -3 -84 -82 -61 -133c-26 -36 -181 -59 -247 -8c-15 123 16 193 75 239c62 48 156 62 257 61c85 -1 171 -14 229 -59c45 -34 73 -88 70 -170
c-6 -132 -152 -226 -300 -290c57 -3 184 7 268 44c38 -69 30 -160 -3 -212c-252 -25 -378 -28 -558 7z" />
    <glyph glyph-name="three" unicode="3" horiz-adv-x="766" 
d="M404 288c-24 7 -50 5 -72 -1c-21 27 -16 99 -2 120c23 -3 46 -3 66 5c34 14 54 43 49 95c-5 42 -39 56 -78 52c-62 -5 -68 -66 -57 -112c-32 -22 -73 -32 -114 -32c-53 1 -106 19 -137 53c-1 62 22 126 70 166c64 52 164 61 260 61c111 0 297 -11 303 -157
c3 -78 -56 -139 -129 -149c108 -17 171 -85 162 -203c-12 -170 -193 -194 -324 -195c-194 -1 -368 41 -349 253c32 32 72 49 128 51c53 3 105 -10 134 -48c-19 -64 16 -138 92 -120c32 8 50 39 52 76c1 37 -17 74 -54 85z" />
    <glyph glyph-name="four" unicode="4" horiz-adv-x="770" 
d="M643 137c1 -37 4 -75 10 -114c-44 -19 -83 -26 -152 -26c-68 0 -111 7 -156 26c6 35 12 77 14 114c-62 5 -225 4 -302 -5c-23 47 -31 119 -25 185c164 124 283 332 296 371c92 16 273 3 336 -32c-19 -120 -26 -244 -24 -365c25 -1 54 2 77 1c24 -39 7 -135 -4 -155h-70z
M379 300c10 76 15 125 25 222h-14c-38 -76 -88 -153 -146 -219c34 -2 107 -4 135 -3z" />
    <glyph glyph-name="five" unicode="5" horiz-adv-x="758" 
d="M214 316c-46 4 -113 25 -133 55c15 81 24 195 20 297c91 18 180 26 284 26c91 0 171 -2 257 -19c18 -46 1 -159 -24 -180c-56 47 -262 69 -364 32c-3 -37 -6 -71 -10 -94c38 25 96 43 154 44c113 3 235 -28 288 -119c32 -56 36 -102 28 -165
c-22 -171 -193 -194 -324 -195c-194 -1 -357 26 -349 224c32 32 71 49 128 52c53 2 113 -11 142 -48c-15 -51 1 -104 84 -91c45 11 58 64 51 111c-5 27 -15 52 -31 67c-20 19 -50 30 -91 30c-39 1 -88 -12 -110 -27z" />
    <glyph glyph-name="six" unicode="6" horiz-adv-x="779" 
d="M407 694c120 0 300 -18 301 -178c-45 -65 -225 -47 -259 -7c2 42 -19 63 -48 66c-92 9 -110 -119 -99 -177c36 25 95 38 149 37c86 -1 181 -17 238 -86c33 -40 47 -93 35 -163c-11 -61 -42 -103 -81 -132c-71 -50 -168 -56 -259 -56c-115 0 -230 30 -290 135
c-37 65 -44 148 -43 229c2 85 20 165 64 226c71 97 194 106 292 106zM318 268c-4 -65 19 -142 88 -141c42 0 72 34 71 83c-1 27 -7 73 -47 86c-45 14 -90 -5 -112 -28z" />
    <glyph glyph-name="seven" unicode="7" horiz-adv-x="625" 
d="M596 658c9 -18 14 -79 -3 -145c-97 -83 -203 -274 -163 -494c-22 -8 -83 -19 -143 -19c-59 0 -112 6 -152 17c-14 126 18 335 240 510c-130 7 -242 -19 -322 -52c-40 55 -35 164 -25 188c53 22 178 31 305 29c87 -2 181 -5 263 -34z" />
    <glyph glyph-name="eight" unicode="8" horiz-adv-x="778" 
d="M389 694c105 0 308 -3 315 -155c3 -77 -57 -137 -130 -147c109 -17 171 -85 163 -201c-13 -178 -214 -195 -348 -193c-134 -2 -335 15 -348 193c-9 116 54 184 162 201c-73 10 -132 70 -129 147c6 152 210 155 315 155zM456 518c-4 41 -32 58 -67 58s-64 -17 -67 -58
c-5 -50 15 -100 68 -100c52 0 71 52 66 100zM389 309c-50 0 -83 -44 -80 -98c2 -50 32 -84 80 -84c47 0 78 34 80 84c3 54 -31 98 -80 98z" />
    <glyph glyph-name="nine" unicode="9" horiz-adv-x="787" 
d="M359 -2c-118 0 -305 17 -303 174c44 66 235 50 261 11c-2 -50 38 -70 76 -65c77 8 77 124 70 172c-29 -20 -81 -35 -136 -37c-159 -5 -311 76 -283 249c28 165 198 192 331 192c102 0 196 -20 265 -79c74 -63 98 -172 96 -280c-2 -130 -53 -245 -167 -302
c-65 -33 -160 -35 -210 -35zM451 423c4 64 -22 144 -90 143c-42 -1 -75 -36 -74 -85c1 -27 10 -65 48 -80c36 -14 85 -2 116 22z" />
    <glyph glyph-name="colon" unicode=":" horiz-adv-x="408" 
d="M204 244c103 0 144 -56 144 -127c0 -70 -46 -123 -144 -123c-99 0 -144 53 -144 123c0 71 40 127 144 127zM204 647c103 0 144 -56 144 -127c0 -70 -46 -123 -144 -123c-99 0 -144 53 -144 123c0 71 40 127 144 127z" />
    <glyph glyph-name="semicolon" unicode=";" horiz-adv-x="408" 
d="M204 647c103 0 144 -56 144 -127c0 -70 -46 -123 -144 -123c-99 0 -144 53 -144 123c0 71 40 127 144 127zM202 245c91 -2 142 -46 149 -131c3 -33 -1 -70 -11 -106c-23 -84 -78 -159 -128 -198c-46 -16 -125 2 -144 43c56 46 93 94 101 138c-64 5 -118 49 -114 128
c3 64 44 128 147 126z" />
    <glyph glyph-name="less" unicode="&#x3c;" horiz-adv-x="521" 
d="M50 340c75 51 209 196 274 325c72 -9 137 -71 147 -124c-51 -97 -146 -190 -167 -201c21 -11 116 -104 167 -200c-10 -53 -75 -115 -147 -125c-65 130 -199 274 -274 325z" />
    <glyph glyph-name="equal" unicode="=" horiz-adv-x="486" 
d="M71 391c-29 40 -26 125 -2 170c40 0 83 -4 124 -3c32 1 65 1 98 0c41 -1 83 3 123 3c31 -45 26 -129 -2 -170c-36 6 -80 6 -125 7c-33 1 -67 1 -99 0c-42 -2 -83 -2 -117 -7zM71 110c-29 40 -26 125 -2 170c40 0 83 -4 124 -3c32 1 65 1 98 0c41 -1 83 3 123 3
c31 -45 26 -129 -2 -170c-36 6 -80 6 -125 7c-33 1 -67 1 -99 0c-42 -2 -83 -2 -117 -7z" />
    <glyph glyph-name="greater" unicode="&#x3e;" horiz-adv-x="521" 
d="M471 340c-75 -51 -209 -195 -274 -325c-72 10 -137 72 -147 125c51 96 146 189 167 200c-21 11 -116 104 -167 201c10 53 75 115 147 124c65 -129 199 -274 274 -325z" />
    <glyph glyph-name="question" unicode="?" horiz-adv-x="712" 
d="M335 180c-81 0 -113 -45 -113 -100s36 -100 113 -100s112 45 112 100s-31 100 -112 100zM424 225c-71 -24 -150 -15 -179 5c-11 31 -8 57 0 76c24 60 115 81 154 138c35 51 19 101 -48 102c-76 0 -78 -64 -62 -89c-26 -35 -165 -59 -232 -7c-22 107 20 159 68 194
c64 47 140 62 241 61c112 -2 224 -23 271 -107c44 -78 30 -174 -44 -233c-35 -27 -82 -48 -116 -72c-29 -19 -46 -45 -53 -68z" />
    <glyph glyph-name="at" unicode="@" horiz-adv-x="858" 
d="M467 248c-11 68 -7 113 -5 168c1 45 -2 67 -30 68c-46 1 -53 -83 -53 -130c0 -48 -4 -122 42 -125c19 -1 32 6 46 19zM638 576c-52 40 -119 55 -185 59c-105 6 -224 -13 -280 -125c-20 -40 -31 -91 -34 -138c-7 -121 29 -232 150 -275c107 -37 251 -28 367 -9
c22 -15 33 -56 16 -96c-135 -27 -275 -32 -408 5c-123 34 -217 122 -235 251c-20 140 -5 260 71 353c124 152 323 149 467 118c154 -33 273 -128 270 -309c-2 -99 -33 -234 -162 -257c-53 -10 -141 -3 -177 39c-36 -31 -65 -40 -95 -40c-58 -2 -106 8 -138 50
c-35 45 -50 118 -40 194c18 126 100 165 207 165c84 -1 131 -17 165 -54c27 -30 35 -64 37 -102c1 -31 -3 -64 -5 -95c-2 -22 -4 -61 22 -65c30 -4 54 47 63 105c12 82 -9 173 -76 226z" />
    <glyph glyph-name="A" unicode="A" horiz-adv-x="819" 
d="M500 117c-65 -3 -133 0 -198 5c-11 -40 -18 -63 -32 -101c-45 -16 -96 -21 -143 -17c-53 4 -99 21 -127 49c111 204 165 446 192 623c114 27 361 23 450 -15c28 -177 45 -371 177 -608c-21 -33 -69 -46 -128 -50c-59 -3 -122 4 -156 23c-14 25 -24 54 -35 91zM337 282
c35 -3 97 -2 128 2c-18 103 -28 167 -37 258c-12 0 -41 -2 -49 -1c-10 -92 -24 -170 -42 -259z" />
    <glyph glyph-name="B" unicode="B" horiz-adv-x="752" 
d="M50 46c8 105 10 386 0 597c68 32 194 55 314 56c112 1 312 -8 323 -159c5 -76 -53 -136 -125 -146c99 -16 172 -85 169 -189c-7 -193 -255 -207 -399 -205c-109 1 -216 19 -282 46zM440 510c-13 64 -78 69 -130 57c4 -52 3 -107 5 -160c79 -4 136 19 125 103zM316 300
c-2 -57 0 -108 -3 -167c62 -4 147 -5 144 88c-2 85 -74 79 -141 79z" />
    <glyph glyph-name="C" unicode="C" 
d="M465 359c8 30 28 202 -37 208c-86 7 -86 -159 -79 -214c9 -67 40 -127 115 -157c80 -33 186 -20 261 19c22 -6 49 -25 47 -70c-67 -92 -199 -138 -323 -142c-212 -7 -400 112 -398 347c1 89 20 184 89 256c59 62 146 89 290 90c100 0 206 -17 274 -75
c44 -37 72 -92 72 -171c1 -57 0 -51 -1 -98c-18 -19 -57 -49 -148 -49c-97 0 -146 35 -162 56z" />
    <glyph glyph-name="D" unicode="D" horiz-adv-x="865" 
d="M729 102c-94 -93 -222 -103 -344 -102c-94 1 -254 13 -330 51c20 220 33 351 -5 594c103 30 223 46 328 46c115 0 257 -11 344 -97c69 -70 90 -158 92 -245c1 -88 -17 -176 -85 -247zM361 544c7 -161 5 -293 -3 -401c15 -7 35 -10 56 -8c76 5 101 59 112 121
c15 80 6 173 -15 225c-26 67 -91 77 -150 63z" />
    <glyph glyph-name="E" unicode="E" horiz-adv-x="651" 
d="M50 25c44 186 44 452 0 638c237 63 468 37 559 20c18 -41 3 -127 -11 -173c-74 15 -190 27 -263 20c1 -23 2 -71 3 -94c53 -6 106 -2 159 2c21 -28 27 -135 0 -171c-56 8 -109 10 -159 5c0 -35 0 -79 -1 -95c48 -15 219 11 262 29c23 -57 29 -154 11 -188
c-130 -15 -307 -40 -560 7z" />
    <glyph glyph-name="F" unicode="F" horiz-adv-x="629" 
d="M64 24c35 186 31 456 -14 641c235 64 473 37 564 21c19 -42 6 -128 -7 -174c-73 16 -196 28 -270 20c3 -23 5 -95 6 -118c53 -6 112 -2 165 2c22 -29 30 -136 4 -171c-56 8 -115 10 -165 5c1 -92 3 -150 8 -234c-70 -16 -204 -26 -291 8z" />
    <glyph glyph-name="G" unicode="G" horiz-adv-x="826" 
d="M470 472c9 16 11 87 -42 92c-90 7 -84 -160 -82 -221c3 -81 22 -178 100 -194c36 -8 77 -2 105 15c3 26 3 35 1 63c-27 1 -48 -1 -78 -7c-11 20 -17 90 -13 121c36 11 204 34 306 -2c7 -54 5 -170 -3 -224c-63 -73 -191 -111 -315 -115c-212 -6 -400 112 -398 347
c1 89 20 184 89 256c59 62 146 89 290 90c100 0 206 -17 274 -75c46 -40 68 -101 72 -139c-18 -19 -57 -49 -148 -49c-97 0 -142 21 -158 42z" />
    <glyph glyph-name="H" unicode="H" horiz-adv-x="810" 
d="M50 24c44 186 44 447 0 633c78 41 186 44 267 12c13 -78 21 -163 24 -250c42 -4 94 -2 128 3c3 86 11 170 24 247c81 32 189 29 267 -12c-44 -186 -45 -447 0 -633c-23 -12 -74 -25 -123 -25c-73 0 -120 11 -144 20c-13 76 -21 159 -24 244c-35 8 -89 6 -128 1
c-3 -85 -11 -169 -24 -245c-24 -9 -71 -20 -144 -20c-49 0 -100 13 -123 25z" />
    <glyph glyph-name="I" unicode="I" horiz-adv-x="458" 
d="M408 659c-17 -104 -23 -191 -24 -296c-2 -118 5 -223 24 -337c-45 -19 -110 -26 -178 -26c-69 0 -135 7 -180 26c18 114 25 219 24 337c-1 105 -7 192 -24 296c53 23 115 34 180 34s126 -11 178 -34z" />
    <glyph glyph-name="J" unicode="J" horiz-adv-x="546" 
d="M143 670c33 21 103 38 162 39c56 1 146 -12 179 -30c8 -101 32 -493 -29 -645c-62 -161 -251 -247 -397 -242c-58 41 -64 124 -52 161c94 47 125 118 146 208c24 105 5 346 -9 509z" />
    <glyph glyph-name="K" unicode="K" horiz-adv-x="803" 
d="M50 27c44 185 44 447 0 632c78 42 188 44 270 13c15 -89 23 -188 25 -287c85 68 126 175 119 278c86 42 240 36 293 0c-23 -107 -112 -232 -199 -297c37 -93 125 -197 275 -239c-1 -44 -55 -130 -188 -128c-155 4 -241 150 -301 272c-3 -86 -11 -172 -24 -249
c-25 -9 -74 -21 -147 -20c-49 0 -100 12 -123 25z" />
    <glyph glyph-name="L" unicode="L" horiz-adv-x="652" 
d="M67 682c87 35 221 25 291 9c-7 -169 -2 -298 -17 -516c73 -8 212 7 286 22c13 -35 21 -135 7 -176c-53 -8 -161 -22 -288 -21c-94 2 -197 11 -296 37c45 186 52 459 17 645z" />
    <glyph glyph-name="M" unicode="M" horiz-adv-x="991" 
d="M50 25c44 186 44 447 0 633c78 41 224 43 305 12c24 -26 99 -161 140 -278c42 117 117 252 140 278c82 31 228 29 306 -12c-44 -186 -45 -447 0 -633c-23 -13 -74 -25 -123 -25c-73 -1 -92 11 -116 20c-11 63 -15 104 -18 158c-4 62 -2 132 5 214
c-36 -46 -87 -160 -117 -242c-23 -12 -49 -19 -75 -19c-28 0 -55 6 -78 19c-30 82 -81 196 -117 242c7 -82 9 -152 5 -214c-3 -54 -7 -95 -18 -158c-24 -9 -43 -21 -116 -20c-49 0 -100 12 -123 25z" />
    <glyph glyph-name="N" unicode="N" horiz-adv-x="848" 
d="M796 32c-23 -12 -89 -31 -138 -31c-47 0 -98 9 -142 28c-44 86 -140 216 -210 306c10 -119 4 -239 -4 -314c-31 -14 -100 -24 -142 -22c-34 2 -75 9 -110 28c31 203 43 414 9 639c59 32 232 31 293 6c59 -121 168 -249 200 -297c4 108 10 209 23 306
c87 18 146 20 223 -15c-39 -194 -35 -428 -2 -634z" />
    <glyph glyph-name="O" unicode="O" horiz-adv-x="822" 
d="M411 691c133 0 215 -31 272 -90c68 -72 88 -167 89 -256c-1 -89 -21 -184 -89 -256c-57 -59 -139 -90 -272 -90s-216 31 -272 90c-69 72 -88 167 -89 256c1 89 20 184 89 256c56 59 139 90 272 90zM411 127c54 -1 71 74 73 213c2 127 -11 222 -73 223
c-62 -1 -75 -96 -73 -223c2 -139 19 -214 73 -213z" />
    <glyph glyph-name="P" unicode="P" horiz-adv-x="795" 
d="M327 183c-3 -37 -1 -113 4 -154c-81 -38 -210 -43 -281 6c22 174 19 428 7 602c89 34 221 53 315 54c80 0 162 -4 235 -33c99 -39 144 -124 147 -221c5 -160 -109 -247 -258 -262c-58 -5 -118 -1 -169 8zM326 316c28 -3 60 -5 88 0c63 11 91 55 91 114
c0 55 -24 120 -104 126c-21 1 -67 1 -82 -6c4 -78 6 -165 7 -234z" />
    <glyph glyph-name="Q" unicode="Q" horiz-adv-x="822" 
d="M411 693c133 0 215 -31 272 -90c68 -72 88 -167 89 -256c-1 -89 -21 -184 -89 -256c-28 -30 -70 -64 -153 -89c16 -59 92 -96 131 -108c-10 -27 -37 -51 -77 -70c-51 -23 -104 -26 -123 -27c-64 13 -108 39 -132 70c-29 40 -35 75 -30 133c-79 21 -128 58 -160 91
c-69 72 -88 167 -89 256c1 89 20 184 89 256c56 59 139 90 272 90zM411 129c54 0 71 74 73 213c2 127 -14 223 -73 223s-75 -96 -73 -223c2 -139 19 -213 73 -213z" />
    <glyph glyph-name="R" unicode="R" horiz-adv-x="838" 
d="M50 27c44 186 49 425 5 610c95 40 205 56 321 57c164 1 389 -24 395 -232c3 -122 -62 -197 -160 -232c22 -24 52 -44 86 -60c42 -19 90 -34 141 -43c-1 -44 -78 -137 -211 -134c-168 0 -232 104 -283 223l-3 1c-4 -68 -11 -133 -21 -194c-25 -10 -74 -21 -147 -21
c-49 0 -100 13 -123 25zM345 338c89 -10 162 23 164 115c3 94 -81 131 -173 102c6 -76 9 -141 9 -217z" />
    <glyph glyph-name="S" unicode="S" horiz-adv-x="757" 
d="M361 458c82 -33 165 -26 242 -57c68 -27 121 -88 113 -208c-4 -58 -40 -114 -89 -145c-66 -41 -157 -49 -234 -50c-101 0 -264 -6 -324 97c-17 30 -25 67 -23 110c32 32 72 49 128 52c54 2 105 -11 134 -48c-18 -60 37 -88 91 -74c32 8 57 30 57 66c0 69 -84 64 -164 77
c-61 11 -121 29 -164 57c-58 39 -85 107 -78 175c16 159 172 193 306 193c97 0 196 -10 260 -62c48 -39 63 -80 70 -113c-32 -35 -85 -53 -138 -53c-41 -1 -83 9 -114 31c7 56 -38 83 -88 68c-25 -7 -39 -32 -39 -56c1 -33 26 -50 54 -60z" />
    <glyph glyph-name="T" unicode="T" horiz-adv-x="700" 
d="M30 462c-24 25 -26 138 -2 191c45 23 202 39 329 40c108 0 239 -9 331 -37c8 -60 -14 -162 -35 -196c-24 8 -104 23 -185 29c-17 -140 11 -348 57 -455c-42 -18 -104 -35 -183 -35c-78 0 -109 4 -150 23c-13 163 -1 338 22 466c-73 -4 -143 -12 -184 -26z" />
    <glyph glyph-name="U" unicode="U" horiz-adv-x="845" 
d="M775 657c16 -112 32 -283 1 -414c-34 -147 -120 -229 -272 -241c-64 -5 -96 -5 -160 0c-155 12 -237 92 -272 241c-31 131 -21 302 -5 414c59 58 259 39 294 5c-7 -97 -18 -224 -13 -331c2 -47 -7 -193 72 -194c77 -1 69 147 71 194c5 107 -7 234 -15 331
c36 34 240 53 299 -5z" />
    <glyph glyph-name="V" unicode="V" horiz-adv-x="738" 
d="M260 667c56 -132 91 -362 107 -514h20c22 200 48 348 113 519c45 16 96 22 143 18c53 -5 88 -21 115 -49c-111 -205 -157 -447 -179 -623c-54 -13 -124 -19 -205 -18c-90 0 -178 8 -224 27c-18 106 -36 218 -69 342c-23 85 -48 175 -101 272c28 31 65 46 124 49
c59 4 122 -4 156 -23z" />
    <glyph glyph-name="W" unicode="W" horiz-adv-x="1147" 
d="M915 667c22 12 60 26 111 23c59 -3 92 -20 121 -49c-109 -301 -124 -417 -162 -614c-47 -19 -80 -27 -169 -27c-81 -1 -126 5 -180 18c-13 110 -36 248 -66 353h-4c-27 -117 -52 -244 -67 -344c-47 -19 -62 -27 -151 -27c-82 -1 -141 5 -195 18c-32 201 -64 444 -153 623
c25 28 71 44 124 49c46 4 95 -2 140 -18c51 -171 75 -357 87 -513c9 0 7 1 18 0c37 162 78 300 110 509c27 15 56 23 103 24c44 1 73 -9 100 -18c38 -206 81 -315 105 -515c9 0 6 1 17 0c22 152 58 376 111 508z" />
    <glyph glyph-name="X" unicode="X" horiz-adv-x="789" 
d="M394 439c61 67 82 166 82 226c63 28 183 42 262 -7c-11 -111 -31 -208 -154 -305c143 -83 193 -272 205 -323c-39 -20 -99 -30 -159 -33c-57 -2 -113 2 -150 21c-6 73 -38 178 -86 224c-47 -46 -80 -151 -86 -224c-36 -19 -92 -23 -149 -21c-60 3 -121 13 -159 33
c12 51 54 240 197 323c-124 97 -143 194 -154 305c78 49 206 35 270 7c0 -60 21 -159 81 -226z" />
    <glyph glyph-name="Y" unicode="Y" horiz-adv-x="726" 
d="M252 673c41 -63 74 -183 99 -283h8c24 83 66 216 119 282c33 15 96 22 143 18c53 -5 94 -25 115 -49c-131 -196 -203 -347 -225 -450c4 -50 12 -115 20 -165c-44 -19 -109 -26 -178 -26c-68 0 -136 7 -181 26c8 52 13 124 17 174c-85 255 -118 284 -201 446
c28 31 77 42 136 45c23 1 75 2 128 -18z" />
    <glyph glyph-name="Z" unicode="Z" horiz-adv-x="699" 
d="M66 22c-22 48 -20 122 -1 168c80 66 240 240 276 324c-25 6 -148 5 -239 -35c-34 34 -49 134 -25 185c96 20 174 27 262 27c104 1 156 -7 274 -30c19 -48 14 -122 9 -154c-35 -84 -126 -225 -248 -323c57 -2 178 7 262 43c18 -28 17 -184 -10 -221
c-124 -4 -180 -11 -278 -8c-143 3 -248 13 -282 24z" />
    <glyph glyph-name="bracketleft" unicode="[" horiz-adv-x="480" 
d="M50 776c64 49 292 53 369 22c17 -21 19 -114 -29 -142c-31 16 -121 24 -165 6c10 -210 10 -438 0 -648c44 -18 134 -10 165 6c48 -28 46 -121 29 -141c-77 -32 -305 -28 -369 22c11 291 11 583 0 875z" />
    <glyph glyph-name="backslash" unicode="\" horiz-adv-x="640" 
d="M206 776c134 -262 279 -565 434 -817c-31 -67 -155 -82 -206 -59c-135 262 -279 563 -434 814c31 68 135 89 206 62z" />
    <glyph glyph-name="bracketright" unicode="]" horiz-adv-x="480" 
d="M430 776c-11 -292 -11 -584 0 -875c-64 -50 -292 -54 -369 -22c-17 20 -19 113 29 141c31 -16 121 -24 165 -6c-10 210 -10 438 0 648c-44 18 -134 10 -165 -6c-48 28 -46 121 -29 142c77 31 305 27 369 -22z" />
    <glyph glyph-name="asciicircum" unicode="^" horiz-adv-x="648" 
d="M324 966c72 -81 200 -182 274 -199c-8 -44 -66 -108 -117 -118c-82 43 -148 118 -157 135c-9 -17 -75 -92 -157 -135c-51 10 -109 74 -117 118c74 17 202 118 274 199z" />
    <glyph glyph-name="underscore" unicode="_" horiz-adv-x="634" 
d="M61 -9c-29 40 -26 125 -2 170c40 0 83 -2 124 -3c32 -1 234 -1 267 0c41 1 83 2 123 3c31 -45 25 -129 -2 -170c-36 6 -91 6 -136 7c-33 1 -218 2 -250 1c-42 -2 -90 -3 -124 -8z" />
    <glyph glyph-name="grave" unicode="`" horiz-adv-x="436" 
d="M386 807c-18 -29 -98 -62 -210 -40c-35 14 -105 73 -126 136c53 23 143 27 201 17c27 -44 108 -100 135 -113z" />
    <glyph glyph-name="a" unicode="a" horiz-adv-x="815" 
d="M449 277c-38 7 -83 5 -112 -13c-24 -13 -38 -37 -34 -73c5 -36 29 -57 62 -59s70 11 94 32c-8 34 -13 68 -10 113zM334 0c-150 -4 -322 32 -289 256c16 106 115 146 207 154c72 5 151 -6 205 -16c-4 45 19 176 -48 176c-54 0 -58 -44 -52 -87c-55 -19 -103 -27 -145 -25
c-68 2 -117 29 -143 58c3 30 20 78 58 115c66 64 179 69 263 69c143 -1 229 -28 286 -91c47 -51 62 -111 64 -176c4 -111 -31 -228 13 -334c5 -11 17 -34 22 -49c-8 -22 -38 -50 -124 -50c-39 4 -88 10 -139 68c-61 -52 -127 -67 -178 -68z" />
    <glyph glyph-name="b" unicode="b" horiz-adv-x="867" 
d="M728 102c-96 -93 -225 -103 -346 -102c-94 1 -254 13 -330 51c24 220 32 541 -2 784c73 49 228 49 307 11c3 -38 3 -124 5 -176c121 23 276 17 366 -76c68 -70 88 -158 89 -245c-1 -88 -21 -176 -89 -247zM367 544c4 -161 0 -293 -10 -401c15 -7 35 -10 56 -8
c76 5 102 59 114 121c15 80 8 173 -12 225c-25 67 -90 77 -148 63z" />
    <glyph glyph-name="c" unicode="c" 
d="M465 359c8 30 28 202 -37 208c-86 7 -86 -159 -79 -214c9 -67 40 -127 115 -157c80 -33 186 -20 261 19c22 -6 49 -25 47 -70c-67 -92 -199 -138 -323 -142c-212 -7 -400 112 -398 347c1 89 20 184 89 256c59 62 146 89 290 90c100 0 206 -17 274 -75
c44 -37 72 -92 72 -171c1 -57 0 -51 -1 -98c-18 -19 -57 -49 -148 -49c-97 0 -146 35 -162 56z" />
    <glyph glyph-name="d" unicode="d" horiz-adv-x="868" 
d="M138 102c-68 71 -87 159 -88 247c1 87 21 175 89 245c91 93 246 99 366 76c2 52 3 138 5 176c80 38 235 38 308 -11c-35 -243 -27 -564 -5 -784c-75 -38 -235 -50 -329 -51c-122 -1 -250 9 -346 102zM500 544c-58 14 -123 4 -149 -63c-19 -52 -27 -145 -12 -225
c12 -62 38 -116 114 -121c21 -2 41 1 56 8c-10 108 -13 240 -9 401z" />
    <glyph glyph-name="e" unicode="e" 
d="M356 373c37 -7 81 2 107 29c17 19 25 49 23 79c-3 43 -26 85 -72 84c-75 0 -64 -152 -58 -192zM776 448c1 -94 -49 -153 -118 -184c-39 -18 -84 -27 -130 -28c-52 -1 -105 4 -150 26c3 -42 43 -90 89 -105c90 -30 165 -6 235 15c22 -6 49 -30 47 -75
c-76 -72 -204 -98 -308 -98c-210 1 -392 115 -390 348c1 90 20 185 89 256c59 62 146 90 290 90c100 1 206 -16 274 -74c44 -37 72 -92 72 -171z" />
    <glyph glyph-name="f" unicode="f" horiz-adv-x="614" 
d="M129 24c11 83 24 197 22 340c-32 0 -79 -3 -112 -8c-26 36 -24 150 -2 179c29 -3 86 -5 116 -5c-2 120 -5 212 54 277c56 62 150 66 228 67c110 1 202 -27 206 -33c10 -66 -13 -136 -61 -180c-16 14 -52 33 -88 34c-21 0 -42 -1 -60 -20c-26 -25 -24 -85 -22 -145
c53 -6 101 2 154 6c22 -28 23 -144 -4 -180c-36 6 -105 14 -143 10c-1 -138 10 -276 23 -350c-69 -16 -224 -26 -311 8z" />
    <glyph glyph-name="g" unicode="g" horiz-adv-x="798" 
d="M397 565c-54 0 -71 -54 -71 -156c-1 -94 6 -153 71 -154c65 1 70 60 71 154c2 102 -17 156 -71 156zM171 179c-73 46 -123 123 -120 237c5 197 169 276 347 277c187 0 343 -93 345 -277c2 -213 -167 -297 -346 -293c-35 -1 -70 2 -103 9c-16 -4 -43 -21 -37 -48
c9 -38 63 -26 128 -21c162 21 350 -9 362 -191c22 -325 -577 -357 -684 -120c3 22 46 99 84 115c64 -54 133 -82 216 -88c35 -2 84 0 114 9c24 8 50 26 39 57c-8 22 -37 24 -70 22c-80 -6 -188 -11 -263 18c-46 18 -92 51 -107 105c-20 76 7 157 95 189z" />
    <glyph glyph-name="h" unicode="h" horiz-adv-x="901" 
d="M827 38c-58 -58 -268 -40 -304 -5c4 97 7 140 12 247c2 52 6 215 -40 252c-17 13 -42 23 -67 21c-28 -1 -46 -6 -59 -13c1 -186 5 -327 7 -507c-128 -56 -278 -30 -321 5c22 219 31 554 -5 797c73 49 228 49 307 11c3 -38 4 -124 6 -176c53 10 115 16 186 11
c150 -13 253 -97 286 -241c31 -131 9 -290 -8 -402z" />
    <glyph glyph-name="i" unicode="i" horiz-adv-x="458" 
d="M229 994c103 0 144 -56 144 -127c0 -70 -46 -123 -144 -123c-99 0 -144 53 -144 123c0 71 40 127 144 127zM408 654c-13 -81 -21 -214 -22 -293c-2 -101 5 -234 22 -339c-45 -19 -110 -26 -178 -26c-69 0 -135 7 -180 26c16 103 24 232 22 331c-1 81 -9 217 -22 301
c53 23 115 34 180 34s126 -11 178 -34z" />
    <glyph glyph-name="j" unicode="j" horiz-adv-x="466" 
d="M63 656c33 21 103 38 162 39c56 1 146 -12 179 -30c8 -101 32 -479 -29 -631c-62 -161 -251 -247 -397 -242c-58 41 -64 124 -52 161c94 47 125 118 146 208c24 105 5 332 -9 495zM232 994c103 0 144 -56 144 -127c0 -70 -46 -123 -144 -123c-99 0 -144 53 -144 123
c0 71 40 127 144 127z" />
    <glyph glyph-name="k" unicode="k" horiz-adv-x="833" 
d="M50 27c44 186 47 629 2 815c78 42 189 44 270 12c15 -88 21 -369 23 -469c85 68 126 175 119 278c86 43 240 36 293 0c-23 -106 -112 -231 -199 -297c37 -92 125 -197 275 -239c-1 -44 -55 -130 -188 -127c-155 3 -241 149 -301 272c-3 -87 -11 -172 -24 -249
c-25 -10 -74 -21 -147 -21c-49 0 -100 13 -123 25z" />
    <glyph glyph-name="l" unicode="l" horiz-adv-x="500" 
d="M365 848c-8 -138 -32 -335 -15 -485c9 -84 41 -193 149 -200c2 -63 -50 -146 -132 -166c-69 -5 -134 12 -184 49c-150 112 -128 381 -123 543c3 96 9 191 15 264c25 9 83 21 159 20c51 0 107 -12 131 -25z" />
    <glyph glyph-name="m" unicode="m" horiz-adv-x="1217" 
d="M1144 396c-2 -135 3 -266 23 -364c-25 -13 -90 -30 -143 -30c-77 0 -120 25 -146 35c-17 128 -2 290 -12 421c-3 53 -16 88 -77 90c-25 0 -49 -12 -57 -24c-1 -120 4 -324 23 -486c-92 -46 -205 -53 -297 -7c19 129 29 292 21 436c-2 51 -26 81 -78 83
c-22 1 -45 -4 -61 -10c9 -154 6 -367 -9 -502c-92 -46 -189 -53 -281 -7c7 49 11 97 15 146c11 159 10 320 2 479c68 17 133 39 298 41c84 1 184 -13 264 -32c62 17 147 32 230 30c201 -1 287 -86 285 -299z" />
    <glyph glyph-name="n" unicode="n" horiz-adv-x="830" 
d="M749 395c-2 -136 11 -266 31 -365c-24 -13 -79 -30 -132 -30c-78 0 -137 26 -163 35c-11 44 -9 107 -10 166c-1 85 2 173 -4 255c-3 50 -22 91 -77 91c-24 1 -43 -4 -51 -7c15 -154 21 -382 -4 -503c-92 -47 -197 -54 -289 -7c22 75 27 197 30 319c2 111 -8 225 -21 313
c73 18 208 33 357 30c231 -4 335 -50 333 -297z" />
    <glyph glyph-name="o" unicode="o" horiz-adv-x="822" 
d="M411 691c133 0 215 -31 272 -90c68 -72 88 -167 89 -256c-1 -89 -21 -184 -89 -256c-57 -59 -139 -90 -272 -90s-216 31 -272 90c-69 72 -88 167 -89 256c1 89 20 184 89 256c56 59 139 90 272 90zM411 127c54 -1 71 74 73 213c2 127 -11 222 -73 223
c-62 -1 -75 -96 -73 -223c2 -139 19 -214 73 -213z" />
    <glyph glyph-name="p" unicode="p" horiz-adv-x="857" 
d="M728 589c68 -71 88 -159 89 -247c-1 -88 -21 -181 -89 -252c-90 -92 -245 -101 -366 -79c-2 -52 -1 -124 8 -162c-79 -38 -247 -43 -320 6c47 244 38 565 2 784c76 39 236 51 330 52c121 0 250 -9 346 -102zM367 136c63 -7 123 0 148 67c20 52 27 152 12 231
c-12 63 -38 117 -114 122c-21 1 -41 -2 -56 -8c10 -108 14 -251 10 -412z" />
    <glyph glyph-name="q" unicode="q" horiz-adv-x="867" 
d="M139 591c95 93 224 102 346 102c94 -1 254 -13 329 -52c-35 -219 -44 -540 3 -784c-74 -49 -241 -44 -320 -6c8 38 9 110 7 162c-120 -22 -275 -13 -365 79c-69 71 -88 164 -89 252c1 88 20 176 89 247zM500 138c-4 161 0 304 9 412c-14 6 -35 9 -56 8
c-75 -5 -101 -59 -114 -122c-15 -79 -7 -179 12 -231c25 -67 86 -74 149 -67z" />
    <glyph glyph-name="r" unicode="r" horiz-adv-x="584" 
d="M384 34c-39 -18 -76 -33 -151 -34c-54 -1 -129 7 -166 33c18 99 22 210 15 321c-6 91 -20 183 -42 267c39 39 148 67 213 64c16 -10 44 -39 54 -55c25 40 67 65 127 67c61 1 108 -15 149 -37c5 -54 -30 -156 -105 -202c-30 23 -82 16 -105 -10c9 -53 20 -172 11 -414z
" />
    <glyph glyph-name="s" unicode="s" horiz-adv-x="752" 
d="M356 458c82 -33 165 -26 242 -57c68 -27 121 -88 113 -208c-4 -58 -40 -114 -89 -145c-66 -41 -157 -49 -234 -50c-101 0 -264 -6 -324 97c-17 30 -25 67 -23 110c32 32 72 49 128 52c54 2 105 -11 134 -48c-18 -60 37 -88 91 -74c32 8 57 30 57 66c0 69 -84 64 -164 77
c-61 11 -121 29 -164 57c-58 39 -85 107 -78 175c16 159 172 193 306 193c97 0 196 -10 260 -62c48 -39 63 -80 70 -113c-32 -35 -85 -53 -138 -53c-41 -1 -83 9 -114 31c7 56 -38 83 -88 68c-25 -7 -39 -32 -39 -56c1 -33 26 -50 54 -60z" />
    <glyph glyph-name="t" unicode="t" horiz-adv-x="616" 
d="M458 755c-5 -39 -11 -89 -12 -133c40 0 79 6 120 9c22 -29 20 -145 -8 -180c-30 5 -83 11 -122 11c-1 -36 -1 -73 3 -112c7 -83 38 -192 146 -199c1 -63 -57 -139 -135 -166c-70 -5 -158 13 -207 50c-116 88 -100 271 -94 424c-32 -1 -79 -3 -111 -8
c-26 35 -22 150 1 178c29 -2 86 -4 116 -5c3 0 12 125 13 136c25 9 84 21 159 20c52 0 107 -12 131 -25z" />
    <glyph glyph-name="u" unicode="u" horiz-adv-x="814" 
d="M69 296c2 136 1 266 -19 365c25 13 68 30 120 30c78 0 137 -26 163 -35c11 -44 9 -107 10 -166c1 -86 -2 -173 4 -256c3 -49 22 -90 77 -91c25 0 49 5 57 8c-7 149 -24 377 -2 503c92 46 194 54 285 7c-22 -76 -23 -198 -26 -319c-2 -111 8 -225 21 -313
c-73 -18 -208 -33 -357 -30c-120 2 -199 10 -264 62c-55 45 -70 126 -69 235z" />
    <glyph glyph-name="v" unicode="v" horiz-adv-x="778" 
d="M280 667c56 -132 91 -362 107 -514h20c22 200 48 348 113 519c45 16 96 22 143 18c53 -5 88 -21 115 -49c-111 -205 -157 -447 -179 -623c-54 -13 -124 -19 -205 -18c-90 0 -178 8 -224 27c-18 106 -36 218 -69 342c-23 85 -48 175 -101 272c28 31 65 46 124 49
c59 4 122 -4 156 -23z" />
    <glyph glyph-name="w" unicode="w" horiz-adv-x="1147" 
d="M915 667c22 12 60 26 111 23c59 -3 92 -20 121 -49c-109 -301 -124 -417 -162 -614c-47 -19 -80 -27 -169 -27c-81 -1 -126 5 -180 18c-13 110 -36 248 -66 353h-4c-27 -117 -52 -244 -67 -344c-47 -19 -62 -27 -151 -27c-82 -1 -141 5 -195 18c-32 201 -64 444 -153 623
c25 28 71 44 124 49c46 4 95 -2 140 -18c51 -171 75 -357 87 -513c9 0 7 1 18 0c37 162 78 300 110 509c27 15 56 23 103 24c44 1 73 -9 100 -18c38 -206 81 -315 105 -515c9 0 6 1 17 0c22 152 58 376 111 508z" />
    <glyph glyph-name="x" unicode="x" horiz-adv-x="789" 
d="M394 439c61 67 82 166 82 226c63 28 183 42 262 -7c-11 -111 -31 -208 -154 -305c143 -83 193 -272 205 -323c-39 -20 -99 -30 -159 -33c-57 -2 -113 2 -150 21c-6 73 -38 178 -86 224c-47 -46 -80 -151 -86 -224c-36 -19 -92 -23 -149 -21c-60 3 -121 13 -159 33
c12 51 54 240 197 323c-124 97 -143 194 -154 305c78 49 206 35 270 7c0 -60 21 -159 81 -226z" />
    <glyph glyph-name="y" unicode="y" horiz-adv-x="753" 
d="M-20 645c23 23 81 43 146 46c47 2 107 -3 158 -28c8 -89 51 -241 115 -369c45 106 74 225 86 368c17 11 46 31 125 31c78 0 111 -21 138 -35c-48 -233 -161 -550 -394 -836c-169 -21 -266 63 -280 105c86 35 150 91 201 156c-106 123 -203 278 -295 562z" />
    <glyph glyph-name="z" unicode="z" horiz-adv-x="689" 
d="M56 22c-22 48 -20 122 -1 168c80 66 240 240 276 324c-25 6 -148 5 -239 -35c-34 34 -49 134 -25 185c96 20 174 27 262 27c104 1 156 -7 274 -30c19 -48 14 -122 9 -154c-35 -84 -126 -225 -248 -323c57 -2 178 7 262 43c18 -28 17 -184 -10 -221
c-124 -4 -180 -11 -278 -8c-143 3 -248 13 -282 24z" />
    <glyph glyph-name="braceleft" unicode="{" horiz-adv-x="485" 
d="M69 419c195 32 30 280 162 349c62 33 152 21 186 4c40 -31 34 -116 -6 -158c-149 37 -10 -217 -182 -275c172 -57 33 -311 182 -274c40 -42 46 -127 6 -158c-34 -17 -124 -29 -186 3c-132 70 33 318 -162 350c-25 38 -25 121 0 159z" />
    <glyph glyph-name="bar" unicode="|" horiz-adv-x="324" 
d="M50 776c58 45 166 45 224 0c-11 -292 -11 -584 0 -875c-58 -46 -166 -46 -224 0c11 291 11 583 0 875z" />
    <glyph glyph-name="braceright" unicode="}" horiz-adv-x="485" 
d="M416 419c25 -38 25 -121 0 -159c-195 -32 -30 -280 -162 -350c-62 -32 -152 -20 -186 -3c-40 31 -34 116 6 158c149 -37 10 217 182 274c-172 58 -33 312 -182 275c-40 42 -46 127 -6 158c34 17 124 29 186 -4c132 -69 -33 -317 162 -349z" />
    <glyph glyph-name="asciitilde" unicode="~" horiz-adv-x="646" 
d="M51 350c16 33 75 89 157 79c65 -8 107 -32 170 -28c35 2 70 12 102 36c25 5 93 -4 116 -64c-6 -62 -55 -141 -147 -157c-76 -14 -116 25 -213 29c-34 2 -71 -2 -119 -18c-61 24 -69 93 -66 123z" />
    <glyph glyph-name="uni00A0" unicode="&#xa0;" horiz-adv-x="0" 
 />
    <glyph glyph-name="cent" unicode="&#xa2;" 
d="M465 356c8 30 28 202 -37 208c-86 7 -86 -159 -79 -214c9 -67 40 -127 115 -157c80 -33 186 -19 261 19c22 -6 49 -25 47 -70c-56 -77 -157 -121 -261 -136c2 -32 5 -72 8 -96c-35 -26 -150 -24 -178 -2c2 19 3 63 4 99c-166 30 -296 145 -294 340c1 89 20 184 89 256
c45 47 106 74 195 84c-1 34 -3 85 -5 107c29 22 145 23 180 -4c-2 -16 -5 -64 -7 -100c76 -7 149 -28 201 -72c44 -37 72 -92 72 -171c1 -57 0 -51 -1 -97c-18 -20 -57 -50 -148 -50c-97 0 -146 35 -162 56z" />
    <glyph glyph-name="sterling" unicode="&#xa3;" horiz-adv-x="652" 
d="M-33 47c22 22 166 147 164 316c-32 -1 -79 -3 -112 -8c-26 35 -24 150 -2 178c29 -2 86 -4 116 -5c-2 121 -5 212 54 278c56 61 150 65 228 66c110 1 202 -26 206 -33c10 -65 -13 -135 -61 -179c-16 14 -52 33 -88 34c-21 0 -42 -2 -60 -20c-26 -25 -24 -85 -22 -146
c53 -6 101 3 154 7c22 -29 23 -145 -4 -180c-36 6 -105 13 -143 10c-13 -132 -41 -215 -79 -260c25 -5 51 -8 80 -6c47 2 93 30 134 61c34 6 123 -3 154 -83c-8 -82 -73 -164 -194 -185c-101 -18 -153 36 -281 42c-44 2 -93 -1 -157 -23c-80 31 -98 96 -87 136z" />
    <glyph glyph-name="currency" unicode="&#xa4;" horiz-adv-x="742" 
d="M300 368c-3 -51 23 -103 73 -103c49 0 72 52 69 103c3 50 -20 103 -69 103c-50 0 -76 -53 -73 -103zM183 47c-61 7 -125 71 -133 132c31 29 62 58 92 87c-14 29 -22 63 -22 102c0 38 8 72 22 101c-30 29 -61 58 -92 87c8 61 72 125 133 133c33 -36 66 -71 99 -106
c28 8 58 13 89 13s61 -5 89 -13c33 35 66 70 99 106c62 -8 126 -72 133 -133c-31 -29 -62 -58 -92 -87c14 -29 22 -63 23 -101c-1 -39 -9 -73 -23 -102c30 -29 61 -58 92 -87c-7 -61 -71 -125 -133 -132c-33 35 -66 71 -99 105c-28 -8 -58 -12 -89 -12s-61 4 -89 12
c-33 -34 -66 -70 -99 -105z" />
    <glyph glyph-name="yen" unicode="&#xa5;" horiz-adv-x="746" 
d="M262 673c41 -64 74 -183 99 -284c3 1 4 1 8 0c24 84 66 217 119 283c45 16 96 21 143 17c53 -4 88 -21 115 -48c-96 -144 -160 -264 -196 -358c84 0 147 0 152 1c36 -45 15 -112 -12 -137c-45 2 -102 5 -166 7c5 -43 11 -90 17 -128c-44 -19 -109 -26 -178 -26
c-68 0 -134 7 -179 26c6 40 10 89 14 133c-63 -1 -120 -3 -164 -7c-23 35 -18 106 11 137c7 -2 55 -3 122 -4c-46 116 -101 232 -167 360c51 58 198 64 262 28z" />
    <glyph glyph-name="brokenbar" unicode="&#xa6;" horiz-adv-x="324" 
d="M50 776c58 45 166 45 224 0c-4 -118 -4 -212 0 -329c-58 -45 -166 -45 -224 0c5 117 5 211 0 329zM50 229c58 45 166 45 224 0c-4 -117 -4 -211 0 -328c-58 -46 -166 -46 -224 0c5 117 5 211 0 328z" />
    <glyph glyph-name="section" unicode="&#xa7;" horiz-adv-x="773" 
d="M366 628c85 -39 203 -46 278 -93c106 -66 102 -239 0 -308c50 -33 84 -92 77 -190c-4 -58 -40 -114 -89 -145c-66 -41 -157 -49 -234 -50c-101 0 -264 -5 -324 97c-17 30 -25 67 -23 110c32 33 72 49 128 52c54 2 105 -11 134 -48c-18 -59 37 -87 91 -74
c32 8 57 30 57 66c0 69 -84 74 -164 88c-120 22 -240 56 -242 221c7 70 41 116 88 145c-3 2 -6 4 -10 6c-58 39 -85 107 -78 175c16 159 172 193 306 193c132 0 295 -22 330 -175c-32 -34 -85 -53 -138 -53c-41 -1 -83 10 -114 31c6 47 -23 72 -61 73c-44 1 -67 -24 -66 -61
c1 -30 28 -48 54 -60zM331 451c-48 -17 -77 -63 -52 -107c19 -33 81 -49 136 -39c32 8 55 30 57 66c4 61 -84 80 -141 80z" />
    <glyph glyph-name="dieresis" unicode="&#xa8;" horiz-adv-x="615" 
d="M156 929c76 0 106 -42 106 -94s-34 -95 -106 -95c-73 0 -106 43 -106 95s30 94 106 94zM459 928c76 0 106 -42 106 -94s-34 -95 -106 -95c-73 0 -106 43 -106 95s29 94 106 94z" />
    <glyph glyph-name="copyright" unicode="&#xa9;" horiz-adv-x="860" 
d="M456 346c5 17 17 118 -21 121c-50 4 -51 -93 -46 -125c5 -39 23 -74 67 -92c46 -18 108 -11 152 12c12 -4 28 -15 27 -41c-39 -54 -116 -81 -188 -83c-124 -4 -234 66 -232 202c0 52 12 108 52 150c34 36 85 52 169 52c58 0 120 -9 160 -43c25 -22 42 -54 42 -100
c0 -34 0 -30 -1 -57c-10 -11 -33 -29 -86 -29c-57 0 -85 21 -95 33zM384 -38c-81 6 -164 27 -229 73c-58 41 -102 97 -119 173c-29 137 -21 258 48 356c67 96 165 140 264 153c78 10 153 7 223 -8c121 -24 225 -118 253 -234c27 -112 22 -259 -47 -357
c-58 -83 -140 -127 -226 -146c-55 -12 -110 -15 -167 -10zM332 613c-72 -16 -137 -56 -169 -134c-17 -41 -25 -93 -25 -140c2 -91 28 -171 93 -221c36 -28 80 -43 126 -51c58 -10 116 -10 172 4c72 16 137 54 169 133c17 41 25 92 24 140c-1 121 -45 229 -169 263
c-71 19 -149 22 -221 6z" />
    <glyph glyph-name="ordfeminine" unicode="&#xaa;" horiz-adv-x="441" 
d="M239 601c-17 3 -37 3 -51 -6c-12 -6 -18 -17 -16 -34c3 -16 14 -26 29 -28c15 -1 32 6 44 15c-4 16 -7 31 -6 53zM186 472c-69 -2 -149 16 -133 119c7 50 53 68 96 71c33 3 70 -3 94 -7c-1 22 9 82 -21 82c-26 0 -27 -20 -24 -40c-26 -9 -49 -13 -68 -12
c-31 0 -54 13 -67 26c1 14 10 37 27 54c32 29 83 32 122 32c67 0 106 -13 133 -42c22 -24 29 -51 30 -81c2 -52 -14 -106 6 -156c1 -5 7 -16 10 -22c-4 -11 -17 -24 -57 -24c-19 3 -42 6 -65 31c-28 -23 -58 -30 -83 -31z" />
    <glyph glyph-name="guillemotleft" unicode="&#xab;" horiz-adv-x="830" 
d="M50 347c75 51 209 196 274 325c72 -9 137 -61 147 -113c-51 -97 -146 -201 -167 -212c21 -11 116 -114 167 -211c-10 -53 -75 -104 -147 -114c-65 130 -199 274 -274 325zM422 347c68 42 166 159 225 265c65 -8 125 -59 133 -101c-46 -79 -117 -155 -136 -164
c19 -9 90 -84 136 -163c-8 -43 -68 -94 -133 -101c-59 105 -157 223 -225 264z" />
    <glyph glyph-name="logicalnot" unicode="&#xac;" horiz-adv-x="754" 
d="M79 251c-39 54 -35 166 -3 225c53 0 109 -5 163 -4c43 1 250 1 293 0c54 -1 110 4 163 4c35 -105 16 -293 -13 -361c-25 -17 -130 -40 -217 -3c10 33 19 112 13 150c-77 0 -211 0 -245 -1c-56 -3 -109 -2 -154 -10z" />
    <glyph glyph-name="uni00AD" unicode="&#xad;" horiz-adv-x="499" 
d="M41 254c-29 40 -26 125 -2 170c40 0 83 -4 124 -3c32 1 139 1 172 0c41 -1 83 3 123 3c31 -45 25 -129 -2 -170c-36 6 -80 6 -125 7c-33 1 -141 1 -173 0c-42 -2 -83 -2 -117 -7z" />
    <glyph glyph-name="registered" unicode="&#xae;" horiz-adv-x="833" 
d="M311 613c-140 -33 -194 -144 -194 -274c3 -150 77 -247 219 -272c201 -35 372 60 367 276c-1 118 -47 230 -171 264c-61 17 -159 21 -221 6zM363 -38c-81 6 -164 27 -229 73c-58 41 -101 97 -118 173c-29 137 -22 258 47 356c67 96 165 140 264 153c74 10 150 7 223 -8
c124 -25 223 -117 255 -234c37 -135 22 -263 -45 -358c-56 -80 -146 -126 -230 -145c-55 -12 -110 -15 -167 -10zM219 179c24 98 26 224 3 321c50 21 108 30 169 30c86 1 205 -12 208 -122c2 -64 -33 -104 -84 -122c33 -33 76 -45 119 -54c0 -23 -29 -69 -99 -67
c-78 1 -126 50 -161 113l-1 1c-3 -36 -6 -70 -12 -102c-13 -5 -38 -11 -77 -11c-26 0 -53 6 -65 13zM375 343c46 -5 85 12 86 60c1 50 -43 69 -91 54c3 -40 5 -74 5 -114z" />
    <glyph glyph-name="degree" unicode="&#xb0;" horiz-adv-x="411" 
d="M262 861c0 51 -31 66 -57 66c-25 0 -54 -15 -54 -66c0 -53 34 -65 54 -65c25 -1 57 12 57 65zM47 861c2 94 82 131 158 131c77 0 160 -36 160 -131c0 -94 -78 -131 -160 -131c-78 1 -156 37 -158 131z" />
    <glyph glyph-name="plusminus" unicode="&#xb1;" horiz-adv-x="631" 
d="M223 704c40 29 137 26 182 2c-2 -39 -5 -84 -5 -157l159 5c31 -45 26 -133 -2 -174c-37 3 -84 7 -157 9l5 -152c-45 -31 -141 -26 -182 2c3 38 8 75 9 151c-79 -1 -133 -5 -161 -10c-29 40 -26 129 -2 174c39 -2 92 -5 164 -5c0 81 -5 126 -10 155zM88 -14
c-29 40 -26 125 -2 170c119 -8 380 -8 448 0c31 -45 26 -129 -2 -170c-51 6 -321 5 -444 0z" />
    <glyph glyph-name="acute" unicode="&#xb4;" horiz-adv-x="436" 
d="M50 809c26 13 108 69 135 113c58 10 148 6 201 -18c-21 -62 -92 -122 -127 -135c-111 -22 -191 10 -209 40z" />
    <glyph glyph-name="mu" unicode="&#xb5;" horiz-adv-x="918" 
d="M441 241c-1 -12 -2 -35 -2 -64c57 0 166 -1 211 3c14 -18 14 -85 -7 -108c-18 2 -140 5 -202 4c1 -28 2 -51 4 -64c-82 -38 -222 -43 -292 6c3 20 6 39 7 58c-39 0 -79 -2 -95 -4c-21 23 -16 90 -2 108c33 -2 68 -3 102 -2c8 196 -5 363 -26 477c89 35 252 53 346 54
c154 1 368 -26 382 -213c13 -160 -108 -247 -258 -262c-58 -6 -117 -2 -168 7zM439 374c50 -6 110 -7 147 26c27 24 36 56 32 89c-5 45 -29 80 -103 85c-21 2 -67 1 -82 -5c3 -79 5 -126 6 -195z" />
    <glyph glyph-name="paragraph" unicode="&#xb6;" horiz-adv-x="723" 
d="M448 776c58 45 167 45 225 0c-12 -292 -12 -584 0 -875c-58 -46 -167 -46 -225 0c12 291 12 583 0 875zM111 516c-80 28 -111 78 -111 142c0 75 50 130 120 146c64 15 155 7 208 -28c-12 -292 -12 -584 0 -875c-58 -46 -166 -46 -225 0c9 205 11 410 8 615z" />
    <glyph glyph-name="periodcentered" unicode="&#xb7;" horiz-adv-x="319" 
d="M160 449c78 0 109 -46 109 -103c0 -56 -35 -99 -109 -99c-76 0 -110 43 -110 99c0 57 31 103 110 103z" />
    <glyph glyph-name="cedilla" unicode="&#xb8;" horiz-adv-x="439" 
d="M95 -137c-39 4 -45 35 -44 60c27 10 129 99 144 144c45 14 84 6 116 -8c-3 -40 -11 -64 -45 -101c87 -25 125 -89 122 -176c-4 -75 -52 -136 -111 -155c-49 -16 -125 -15 -180 18c-34 27 -26 71 -8 92c73 -38 127 3 131 57c2 44 -43 101 -125 69z" />
    <glyph glyph-name="guillemotright" unicode="&#xbb;" horiz-adv-x="830" 
d="M780 347c-75 -51 -209 -195 -274 -325c-72 10 -137 61 -147 114c51 97 146 200 167 211c-21 11 -116 115 -167 212c10 52 75 104 147 113c65 -129 199 -274 274 -325zM408 347c-68 -41 -166 -159 -225 -264c-65 7 -125 58 -133 101c46 79 117 154 136 163
c-19 9 -90 85 -136 164c8 42 68 93 133 101c59 -106 157 -223 225 -265z" />
    <glyph glyph-name="Agrave" unicode="&#xc0;" horiz-adv-x="819" 
d="M500 114c-65 -3 -133 0 -198 5c-11 -40 -18 -63 -32 -101c-45 -16 -96 -21 -143 -17c-53 4 -99 21 -127 49c111 204 165 446 192 623c114 27 361 23 450 -15c28 -177 45 -371 177 -608c-21 -33 -69 -46 -128 -50c-59 -3 -122 4 -156 23c-14 25 -24 54 -35 91zM337 279
c35 -3 97 -2 128 2c-18 103 -28 167 -37 258c-12 0 -41 -2 -49 -1c-10 -92 -24 -170 -42 -259zM577 807c-18 -29 -98 -62 -210 -40c-35 14 -105 73 -126 136c53 23 143 27 201 17c27 -44 108 -100 135 -113z" />
    <glyph glyph-name="Aacute" unicode="&#xc1;" horiz-adv-x="819" 
d="M500 114c-65 -3 -133 0 -198 5c-11 -40 -18 -63 -32 -101c-45 -16 -96 -21 -143 -17c-53 4 -99 21 -127 49c111 204 165 446 192 623c114 27 361 23 450 -15c28 -177 45 -371 177 -608c-21 -33 -69 -46 -128 -50c-59 -3 -122 4 -156 23c-14 25 -24 54 -35 91zM337 279
c35 -3 97 -2 128 2c-18 103 -28 167 -37 258c-12 0 -41 -2 -49 -1c-10 -92 -24 -170 -42 -259zM257 812c26 13 108 69 135 113c58 10 148 6 201 -18c-21 -62 -92 -122 -127 -135c-111 -22 -191 10 -209 40z" />
    <glyph glyph-name="Acircumflex" unicode="&#xc2;" horiz-adv-x="819" 
d="M500 114c-65 -3 -133 0 -198 5c-11 -40 -18 -63 -32 -101c-45 -16 -96 -21 -143 -17c-53 4 -99 21 -127 49c111 204 165 446 192 623c114 27 361 23 450 -15c28 -177 45 -371 177 -608c-21 -33 -69 -46 -128 -50c-59 -3 -122 4 -156 23c-14 25 -24 54 -35 91zM337 279
c35 -3 97 -2 128 2c-18 103 -28 167 -37 258c-12 0 -41 -2 -49 -1c-10 -92 -24 -170 -42 -259zM409 984c61 -68 168 -146 230 -161c-7 -37 -55 -90 -98 -99c-69 36 -124 99 -132 114c-7 -15 -62 -78 -131 -114c-43 9 -91 62 -98 99c62 15 169 93 229 161z" />
    <glyph glyph-name="Atilde" unicode="&#xc3;" horiz-adv-x="819" 
d="M189 878c14 28 63 74 131 66c54 -7 89 -27 142 -23c29 1 58 10 85 30c20 4 77 -4 96 -54c-5 -51 -46 -117 -122 -130c-63 -12 -97 20 -178 24c-28 1 -59 -2 -99 -15c-50 20 -57 77 -55 102zM500 114c-65 -3 -133 0 -198 5c-11 -40 -18 -63 -32 -101
c-45 -16 -96 -21 -143 -17c-53 4 -99 21 -127 49c111 204 165 446 192 623c114 27 361 23 450 -15c28 -177 45 -371 177 -608c-21 -33 -69 -46 -128 -50c-59 -3 -122 4 -156 23c-14 25 -24 54 -35 91zM337 279c35 -3 97 -2 128 2c-18 103 -28 167 -37 258
c-12 0 -41 -2 -49 -1c-10 -92 -24 -170 -42 -259z" />
    <glyph glyph-name="Adieresis" unicode="&#xc4;" horiz-adv-x="819" 
d="M264 947c76 0 106 -42 106 -94s-34 -95 -106 -95c-73 0 -106 43 -106 95s30 94 106 94zM571 947c76 0 106 -42 106 -94s-34 -95 -106 -95c-73 0 -106 43 -106 95s29 94 106 94zM500 114c-65 -3 -133 0 -198 5c-11 -40 -18 -63 -32 -101c-45 -16 -96 -21 -143 -17
c-53 4 -99 21 -127 49c111 204 165 446 192 623c114 27 361 23 450 -15c28 -177 45 -371 177 -608c-21 -33 -69 -46 -128 -50c-59 -3 -122 4 -156 23c-14 25 -24 54 -35 91zM337 279c35 -3 97 -2 128 2c-18 103 -28 167 -37 258c-12 0 -41 -2 -49 -1
c-10 -92 -24 -170 -42 -259z" />
    <glyph glyph-name="Aring" unicode="&#xc5;" horiz-adv-x="819" 
d="M500 114c-65 -3 -133 0 -198 5c-11 -40 -18 -63 -32 -101c-45 -16 -96 -21 -143 -17c-53 4 -99 21 -127 49c111 204 165 446 192 623c114 27 361 23 450 -15c28 -177 45 -371 177 -608c-21 -33 -69 -46 -128 -50c-59 -3 -122 4 -156 23c-14 25 -24 54 -35 91zM337 279
c35 -3 97 -2 128 2c-18 103 -28 167 -37 258c-12 0 -41 -2 -49 -1c-10 -92 -24 -170 -42 -259zM463 861c0 51 -31 66 -57 66c-25 0 -54 -15 -54 -66c0 -53 34 -65 54 -65c25 -1 57 12 57 65zM248 861c2 94 82 131 158 131c77 0 160 -36 160 -131c0 -94 -78 -131 -160 -131
c-78 1 -156 37 -158 131z" />
    <glyph glyph-name="AE" unicode="&#xc6;" horiz-adv-x="1084" 
d="M507 12c1 26 4 58 4 94c-53 -1 -107 2 -159 5c-11 -39 -18 -62 -32 -100c-45 -16 -96 -22 -143 -18c-53 5 -99 22 -127 49c111 205 165 442 192 619c208 51 572 42 779 5c18 -42 3 -123 -11 -169c-73 16 -190 35 -263 31c2 -23 3 -81 4 -105c52 -6 105 -2 158 2
c22 -28 28 -135 0 -171c-55 9 -109 11 -158 6c-1 -36 -1 -79 -2 -96c48 -15 220 12 262 29c24 -56 30 -153 12 -188c-131 -15 -263 -40 -516 7zM507 273c-4 85 -5 178 -9 260c-18 -1 -63 -3 -69 -3c-10 -92 -24 -170 -42 -258c33 -3 87 -2 120 1z" />
    <glyph glyph-name="Ccedilla" unicode="&#xc7;" 
d="M288 -137c-39 4 -45 35 -44 60c17 7 67 47 104 87c-167 28 -299 143 -297 340c1 89 20 184 89 256c59 62 146 89 290 90c100 0 206 -17 274 -75c44 -37 72 -92 72 -171c1 -57 0 -51 -1 -98c-18 -19 -57 -49 -148 -49c-97 0 -146 35 -162 56c8 30 28 202 -37 208
c-86 7 -86 -159 -79 -214c9 -67 40 -127 115 -157c80 -33 186 -20 261 19c22 -6 49 -25 47 -70c-59 -82 -169 -127 -280 -139c-6 -15 -17 -30 -33 -48c87 -25 125 -89 122 -176c-4 -75 -52 -136 -111 -155c-49 -16 -125 -15 -180 18c-34 27 -26 71 -8 92
c73 -38 127 3 131 57c2 44 -43 101 -125 69z" />
    <glyph glyph-name="Egrave" unicode="&#xc8;" horiz-adv-x="651" 
d="M50 25c44 186 44 452 0 638c237 63 468 37 559 20c18 -41 3 -127 -11 -173c-74 15 -190 27 -263 20c1 -23 2 -71 3 -94c53 -6 106 -2 159 2c21 -28 27 -135 0 -171c-56 8 -109 10 -159 5c0 -35 0 -79 -1 -95c48 -15 219 11 262 29c23 -57 29 -154 11 -188
c-130 -15 -307 -40 -560 7zM504 807c-18 -29 -98 -62 -210 -40c-35 14 -105 73 -126 136c53 23 143 27 201 17c27 -44 108 -100 135 -113z" />
    <glyph glyph-name="Eacute" unicode="&#xc9;" horiz-adv-x="651" 
d="M50 25c253 -47 430 -22 560 -7c18 34 12 131 -11 188c-43 -18 -214 -44 -262 -29c1 16 1 60 1 95c50 5 103 3 159 -5c27 36 21 143 0 171c-53 -4 -106 -8 -159 -2c-1 23 -2 71 -3 94c73 7 189 -5 263 -20c14 46 29 132 11 173c-91 17 -322 43 -559 -20
c44 -186 44 -452 0 -638zM203 809c26 13 108 69 135 113c58 10 148 6 201 -18c-21 -62 -92 -122 -127 -135c-111 -22 -191 10 -209 40z" />
    <glyph glyph-name="Ecircumflex" unicode="&#xca;" horiz-adv-x="651" 
d="M50 25c44 186 44 452 0 638c237 63 468 37 559 20c18 -41 3 -127 -11 -173c-74 15 -190 27 -263 20c1 -23 2 -71 3 -94c53 -6 106 -2 159 2c21 -28 27 -135 0 -171c-56 8 -109 10 -159 5c0 -35 0 -79 -1 -95c48 -15 219 11 262 29c23 -57 29 -154 11 -188
c-130 -15 -307 -40 -560 7zM325 990c61 -68 168 -146 230 -161c-7 -37 -55 -90 -98 -99c-69 36 -124 99 -132 114c-7 -15 -62 -78 -131 -114c-43 9 -91 62 -98 99c62 15 169 93 229 161z" />
    <glyph glyph-name="Edieresis" unicode="&#xcb;" horiz-adv-x="656" 
d="M192 919c77 0 106 -42 106 -94s-33 -94 -106 -94c-72 0 -106 42 -106 94s30 94 106 94zM482 924c76 0 106 -42 106 -94s-33 -94 -106 -94c-72 0 -106 42 -106 94s30 94 106 94zM50 25c44 186 44 452 0 638c237 63 470 34 561 18c10 -80 -1 -132 -11 -171
c-73 15 -192 27 -265 20c1 -23 2 -71 3 -94c53 -6 106 -2 159 2c21 -28 27 -135 0 -171c-56 8 -109 10 -159 5c0 -35 0 -79 -1 -95c48 -15 227 11 269 29c24 -57 25 -154 7 -188c-134 -12 -314 -37 -563 7z" />
    <glyph glyph-name="Igrave" unicode="&#xcc;" horiz-adv-x="458" 
d="M408 659c-17 -104 -23 -191 -24 -296c-2 -118 5 -223 24 -337c-45 -19 -110 -26 -178 -26c-69 0 -135 7 -180 26c18 114 25 219 24 337c-1 105 -7 192 -24 296c53 23 115 34 180 34s126 -11 178 -34zM397 807c-18 -29 -98 -62 -210 -40c-35 14 -105 73 -126 136
c53 23 143 27 201 17c27 -44 108 -100 135 -113z" />
    <glyph glyph-name="Iacute" unicode="&#xcd;" horiz-adv-x="458" 
d="M68 810c26 13 108 69 135 113c58 10 148 6 201 -18c-21 -62 -92 -122 -127 -135c-111 -22 -191 10 -209 40zM408 659c-52 23 -113 34 -178 34s-127 -11 -180 -34c17 -104 23 -191 24 -296c1 -118 -6 -223 -24 -337c45 -19 111 -26 180 -26c68 0 133 7 178 26
c-19 114 -26 219 -24 337c1 105 7 192 24 296z" />
    <glyph glyph-name="Icircumflex" unicode="&#xce;" horiz-adv-x="458" 
d="M408 659c-17 -104 -23 -191 -24 -296c-2 -118 5 -223 24 -337c-45 -19 -110 -26 -178 -26c-69 0 -135 7 -180 26c18 114 25 219 24 337c-1 105 -7 192 -24 296c53 23 115 34 180 34s126 -11 178 -34zM229 990c61 -68 168 -146 230 -161c-7 -37 -55 -90 -98 -99
c-69 36 -124 99 -132 114c-7 -15 -62 -78 -131 -114c-43 9 -91 62 -98 99c62 15 169 93 229 161z" />
    <glyph glyph-name="Idieresis" unicode="&#xcf;" horiz-adv-x="456" 
d="M408 654c-13 -81 -21 -214 -22 -293c-2 -101 5 -234 22 -339c-45 -19 -110 -26 -178 -26c-69 0 -135 7 -180 26c16 103 24 232 22 331c-1 81 -9 217 -22 301c53 23 115 34 180 34s126 -11 178 -34zM76 947c76 0 106 -42 106 -94s-34 -95 -106 -95c-73 0 -106 43 -106 95
s30 94 106 94zM380 947c76 0 106 -42 106 -94s-34 -95 -106 -95c-73 0 -106 43 -106 95s29 94 106 94z" />
    <glyph glyph-name="Eth" unicode="&#xd0;" horiz-adv-x="860" 
d="M724 101c-94 -93 -222 -102 -344 -102c-94 1 -254 13 -330 52c7 81 14 150 17 216c-41 -1 -81 -1 -114 -5c-30 33 -27 103 -3 140c39 0 79 -3 119 -3c-2 73 -9 151 -24 245c103 31 223 46 328 46c115 1 257 -11 344 -96c69 -71 90 -158 92 -246c1 -88 -17 -176 -85 -247z
M360 400c20 1 58 2 77 2c31 -38 26 -106 -2 -140c-18 2 -55 3 -76 4c-1 -44 -3 -86 -6 -124c15 -6 35 -9 56 -8c76 5 101 59 112 122c15 79 6 173 -15 225c-26 67 -91 77 -150 63c3 -51 4 -99 4 -144z" />
    <glyph glyph-name="Ntilde" unicode="&#xd1;" horiz-adv-x="848" 
d="M796 32c-23 -12 -89 -31 -138 -31c-47 0 -98 9 -142 28c-44 86 -140 216 -210 306c10 -119 4 -239 -4 -314c-31 -14 -100 -24 -142 -22c-34 2 -75 9 -110 28c11 71 19 142 23 216c6 93 6 196 1 289c-3 47 -7 93 -15 134c59 32 232 31 293 6c59 -121 168 -249 200 -297
c4 108 10 209 23 306c87 18 146 20 223 -15c-14 -59 -19 -125 -22 -195c-4 -95 -4 -186 0 -281c3 -54 8 -109 20 -158zM225 878c14 28 63 74 131 66c54 -7 89 -27 142 -23c29 1 58 10 85 30c20 4 77 -4 96 -54c-5 -51 -46 -117 -122 -130c-63 -12 -97 20 -178 24
c-28 1 -59 -2 -99 -15c-50 20 -57 77 -55 102z" />
    <glyph glyph-name="Ograve" unicode="&#xd2;" horiz-adv-x="822" 
d="M411 691c133 0 215 -31 272 -90c68 -72 88 -167 89 -256c-1 -89 -21 -184 -89 -256c-57 -59 -139 -90 -272 -90s-216 31 -272 90c-69 72 -88 167 -89 256c1 89 20 184 89 256c56 59 139 90 272 90zM411 127c54 -1 71 74 73 213c2 127 -11 222 -73 223
c-62 -1 -75 -96 -73 -223c2 -139 19 -214 73 -213zM589 807c-18 -29 -98 -62 -210 -40c-35 14 -105 73 -126 136c53 23 143 27 201 17c27 -44 108 -100 135 -113z" />
    <glyph glyph-name="Oacute" unicode="&#xd3;" horiz-adv-x="822" 
d="M260 809c26 13 108 69 135 113c58 10 148 6 201 -18c-21 -62 -92 -122 -127 -135c-111 -22 -191 10 -209 40zM411 691c133 0 215 -31 272 -90c68 -72 88 -167 89 -256c-1 -89 -21 -184 -89 -256c-57 -59 -139 -90 -272 -90s-216 31 -272 90c-69 72 -88 167 -89 256
c1 89 20 184 89 256c56 59 139 90 272 90zM411 127c54 -1 71 74 73 213c2 127 -11 222 -73 223c-62 -1 -75 -96 -73 -223c2 -139 19 -214 73 -213z" />
    <glyph glyph-name="Ocircumflex" unicode="&#xd4;" horiz-adv-x="822" 
d="M411 691c133 0 215 -31 272 -90c68 -72 88 -167 89 -256c-1 -89 -21 -184 -89 -256c-57 -59 -139 -90 -272 -90s-216 31 -272 90c-69 72 -88 167 -89 256c1 89 20 184 89 256c56 59 139 90 272 90zM411 127c54 -1 71 74 73 213c2 127 -11 222 -73 223
c-62 -1 -75 -96 -73 -223c2 -139 19 -214 73 -213zM410 990c61 -68 168 -146 230 -161c-7 -37 -55 -90 -98 -99c-69 36 -124 99 -132 114c-7 -15 -62 -78 -131 -114c-43 9 -91 62 -98 99c62 15 169 93 229 161z" />
    <glyph glyph-name="Otilde" unicode="&#xd5;" horiz-adv-x="822" 
d="M411 691c133 0 215 -31 272 -90c68 -72 88 -167 89 -256c-1 -89 -21 -184 -89 -256c-57 -59 -139 -90 -272 -90s-216 31 -272 90c-69 72 -88 167 -89 256c1 89 20 184 89 256c56 59 139 90 272 90zM411 127c54 -1 71 74 73 213c2 127 -11 222 -73 223
c-62 -1 -75 -96 -73 -223c2 -139 19 -214 73 -213zM189 878c14 28 63 74 131 66c54 -7 89 -27 142 -23c29 1 58 10 85 30c20 4 77 -4 96 -54c-5 -51 -46 -117 -122 -130c-63 -12 -97 20 -178 24c-28 1 -59 -2 -99 -15c-50 20 -57 77 -55 102z" />
    <glyph glyph-name="Odieresis" unicode="&#xd6;" horiz-adv-x="822" 
d="M261 925c76 0 106 -42 106 -94s-34 -95 -106 -95c-73 0 -106 43 -106 95s30 94 106 94zM567 925c76 0 106 -42 106 -94s-34 -95 -106 -95c-73 0 -106 43 -106 95s29 94 106 94zM411 691c133 0 215 -31 272 -90c68 -72 88 -167 89 -256c-1 -89 -21 -184 -89 -256
c-57 -59 -139 -90 -272 -90s-216 31 -272 90c-69 72 -88 167 -89 256c1 89 20 184 89 256c56 59 139 90 272 90zM411 127c54 -1 71 74 73 213c2 127 -11 222 -73 223c-62 -1 -75 -96 -73 -223c2 -139 19 -214 73 -213z" />
    <glyph glyph-name="multiply" unicode="&#xd7;" horiz-adv-x="631" 
d="M457 79c-39 52 -92 111 -148 170c-44 -48 -83 -93 -156 -157c-35 -2 -101 66 -103 111c50 38 107 89 165 144c-56 58 -111 114 -153 161c1 47 65 100 110 103c57 -76 101 -130 139 -172c61 59 119 116 168 159c46 -1 97 -59 99 -104c-44 -33 -165 -142 -173 -149
c50 -47 96 -86 164 -163c1 -34 -67 -100 -112 -103z" />
    <glyph glyph-name="Oslash" unicode="&#xd8;" horiz-adv-x="919" 
d="M450 690c133 0 215 -30 272 -89c22 -23 38 -48 51 -75c38 13 70 23 94 30c41 -20 62 -99 46 -140l-105 -24c2 -16 2 -32 3 -47c-1 -89 -21 -184 -89 -256c-57 -60 -139 -90 -272 -90s-216 30 -272 90c-21 22 -37 46 -50 71c-27 -9 -53 -18 -78 -25
c-31 13 -62 101 -45 143c22 4 51 12 86 22c-1 15 -2 30 -2 45c1 89 20 184 89 256c56 59 139 89 272 89zM381 253c8 -83 27 -127 69 -126c49 -1 67 61 72 177c-49 -17 -96 -34 -141 -51zM520 440c-7 74 -26 122 -70 123c-53 -1 -70 -71 -73 -171c47 16 96 32 143 48z" />
    <glyph glyph-name="Ugrave" unicode="&#xd9;" horiz-adv-x="845" 
d="M776 657c16 -112 32 -283 1 -414c-34 -147 -120 -229 -272 -241c-64 -5 -98 -5 -162 0c-155 12 -237 92 -272 241c-31 131 -21 302 -5 414c59 58 259 39 294 5c-7 -97 -18 -224 -13 -331c2 -47 -6 -193 73 -194c77 -1 70 147 72 194c5 107 -7 234 -15 331
c36 34 240 53 299 -5zM590 807c-18 -29 -98 -62 -210 -40c-35 14 -105 73 -126 136c53 23 143 27 201 17c27 -44 108 -100 135 -113z" />
    <glyph glyph-name="Uacute" unicode="&#xda;" horiz-adv-x="845" 
d="M776 657c-59 58 -263 39 -299 5c8 -97 19 -224 14 -331c-2 -47 6 -195 -71 -194c-79 1 -71 147 -73 194c-5 107 6 234 13 331c-35 34 -235 53 -294 -5c-16 -112 -26 -283 5 -414c35 -149 117 -229 272 -241c64 -5 98 -5 162 0c152 12 238 94 272 241
c31 131 15 302 -1 414zM266 810c26 13 108 69 135 113c58 10 148 6 201 -18c-21 -62 -92 -122 -127 -135c-111 -22 -191 10 -209 40z" />
    <glyph glyph-name="Ucircumflex" unicode="&#xdb;" horiz-adv-x="845" 
d="M775 657c16 -112 32 -283 1 -414c-34 -147 -120 -229 -272 -241c-64 -5 -96 -5 -160 0c-155 12 -237 92 -272 241c-31 131 -21 302 -5 414c59 58 259 39 294 5c-7 -97 -18 -224 -13 -331c2 -47 -7 -193 72 -194c77 -1 69 147 71 194c5 107 -7 234 -15 331
c36 34 240 53 299 -5zM422 990c61 -68 168 -146 230 -161c-7 -37 -55 -90 -98 -99c-69 36 -124 99 -132 114c-7 -15 -62 -78 -131 -114c-43 9 -91 62 -98 99c62 15 169 93 229 161z" />
    <glyph glyph-name="Udieresis" unicode="&#xdc;" horiz-adv-x="845" 
d="M264 931c76 0 106 -42 106 -94s-34 -95 -106 -95c-73 0 -106 43 -106 95s30 94 106 94zM573 931c76 0 106 -42 106 -94s-34 -95 -106 -95c-73 0 -106 43 -106 95s29 94 106 94zM776 657c16 -112 32 -283 1 -414c-34 -147 -120 -229 -272 -241c-64 -5 -98 -5 -162 0
c-155 12 -237 92 -272 241c-31 131 -21 302 -5 414c59 58 259 39 294 5c-7 -97 -17 -224 -12 -331c2 -47 -7 -193 72 -194c77 -1 69 147 71 194c5 107 -6 234 -14 331c36 34 240 53 299 -5z" />
    <glyph glyph-name="Yacute" unicode="&#xdd;" horiz-adv-x="726" 
d="M252 673c41 -63 74 -183 99 -283h8c24 83 66 216 119 282c33 15 96 22 143 18c53 -5 94 -25 115 -49c-131 -196 -203 -347 -225 -450c4 -50 12 -115 20 -165c-44 -19 -109 -26 -178 -26c-68 0 -136 7 -181 26c8 52 13 124 17 174c-85 255 -118 284 -201 446
c28 31 77 42 136 45c23 1 75 2 128 -18zM214 809c26 13 108 69 135 113c58 10 148 6 201 -18c-21 -62 -92 -122 -127 -135c-111 -22 -191 10 -209 40z" />
    <glyph glyph-name="Thorn" unicode="&#xde;" horiz-adv-x="884" 
d="M745 588c68 -70 88 -158 89 -246c-1 -88 -21 -181 -89 -252c-90 -93 -245 -102 -366 -79c-2 -52 -1 -124 8 -162c-79 -38 -247 -43 -320 6c22 252 7 761 -17 980c73 49 224 49 303 11c1 -17 7 -93 12 -162c159 27 286 -7 380 -96zM384 135c63 -6 123 1 148 68
c20 52 27 152 12 231c-12 62 -38 116 -114 121c-21 2 -41 -1 -56 -8c10 -107 14 -250 10 -412z" />
    <glyph glyph-name="germandbls" unicode="&#xdf;" horiz-adv-x="805" 
d="M34 39c16 46 49 79 59 169c12 101 -25 164 -25 242c-1 94 30 152 75 187c58 45 142 53 238 54c62 1 150 -2 218 -29c58 -23 95 -62 93 -129c-1 -50 -28 -81 -45 -108c-8 -13 -14 -25 -13 -38c1 -17 15 -28 31 -38c58 -35 86 -81 83 -151c-8 -169 -197 -201 -341 -206
c-27 16 -27 74 -13 95c47 24 84 61 81 115c-2 43 -23 66 -45 98c-10 15 -18 31 -18 53c1 54 41 91 34 155c-4 39 -27 57 -59 58c-28 0 -56 -13 -68 -39c-15 -37 -8 -79 0 -116c13 -63 35 -132 27 -196c-10 -90 -54 -163 -92 -223c-100 -9 -178 5 -220 47z" />
    <glyph glyph-name="agrave" unicode="&#xe0;" horiz-adv-x="820" 
d="M449 277c-38 7 -83 5 -112 -13c-24 -13 -38 -37 -34 -73c5 -36 29 -57 62 -59s70 11 94 32c-8 34 -13 68 -10 113zM334 0c-150 -4 -322 32 -289 256c16 106 115 146 207 154c72 5 151 -6 205 -16c-4 45 19 176 -48 176c-54 0 -58 -44 -52 -87c-55 -19 -103 -27 -145 -25
c-68 2 -117 29 -143 58c3 30 20 78 58 115c66 64 179 69 263 69c143 -1 229 -28 286 -91c47 -51 62 -111 64 -176c4 -111 -31 -228 13 -334c5 -11 17 -34 22 -49c-8 -22 -38 -50 -124 -50c-39 4 -88 10 -139 68c-61 -52 -127 -67 -178 -68zM586 807
c-18 -29 -98 -62 -210 -40c-35 14 -105 73 -126 136c53 23 143 27 201 17c27 -44 108 -100 135 -113z" />
    <glyph glyph-name="aacute" unicode="&#xe1;" horiz-adv-x="825" 
d="M261 809c26 13 108 69 135 113c58 10 148 6 201 -18c-21 -62 -92 -122 -127 -135c-111 -22 -191 10 -209 40zM449 277c-38 7 -83 5 -112 -13c-24 -13 -38 -37 -34 -73c5 -36 29 -57 62 -59s70 11 94 32c-8 34 -13 68 -10 113zM334 0c-150 -4 -322 32 -289 256
c16 106 115 146 207 154c72 5 151 -6 205 -16c-4 45 19 176 -48 176c-54 0 -58 -44 -52 -87c-55 -19 -103 -27 -145 -25c-68 2 -117 29 -143 58c3 30 20 78 58 115c66 64 179 69 263 69c143 -1 229 -28 286 -91c47 -51 62 -111 64 -176c4 -111 -31 -228 13 -334
c5 -11 17 -34 22 -49c-8 -22 -38 -50 -124 -50c-39 4 -88 10 -139 68c-61 -52 -127 -67 -178 -68z" />
    <glyph glyph-name="acircumflex" unicode="&#xe2;" horiz-adv-x="825" 
d="M421 990c61 -68 168 -146 230 -161c-7 -37 -55 -90 -98 -99c-69 36 -124 99 -132 114c-7 -15 -62 -78 -131 -114c-43 9 -91 62 -98 99c62 15 169 93 229 161zM449 277c-38 7 -83 5 -112 -13c-24 -13 -38 -37 -34 -73c5 -36 29 -57 62 -59s70 11 94 32
c-8 34 -13 68 -10 113zM334 0c-150 -4 -322 32 -289 256c16 106 115 146 207 154c72 5 151 -6 205 -16c-4 45 19 176 -48 176c-54 0 -58 -44 -52 -87c-55 -19 -103 -27 -145 -25c-68 2 -117 29 -143 58c3 30 20 78 58 115c66 64 179 69 263 69c143 -1 229 -28 286 -91
c47 -51 62 -111 64 -176c4 -111 -31 -228 13 -334c5 -11 17 -34 22 -49c-8 -22 -38 -50 -124 -50c-39 4 -88 10 -139 68c-61 -52 -127 -67 -178 -68z" />
    <glyph glyph-name="atilde" unicode="&#xe3;" horiz-adv-x="825" 
d="M449 277c-38 7 -83 5 -112 -13c-24 -13 -38 -37 -34 -73c5 -36 29 -57 62 -59s70 11 94 32c-8 34 -13 68 -10 113zM334 0c-150 -4 -322 32 -289 256c16 106 115 146 207 154c72 5 151 -6 205 -16c-4 45 19 176 -48 176c-54 0 -58 -44 -52 -87c-55 -19 -103 -27 -145 -25
c-68 2 -117 29 -143 58c3 30 20 78 58 115c66 64 179 69 263 69c143 -1 229 -28 286 -91c47 -51 62 -111 64 -176c4 -111 -31 -228 13 -334c5 -11 17 -34 22 -49c-8 -22 -38 -50 -124 -50c-39 4 -88 10 -139 68c-61 -52 -127 -67 -178 -68zM189 878c14 28 63 74 131 66
c54 -7 89 -27 142 -23c29 1 58 10 85 30c20 4 77 -4 96 -54c-5 -51 -46 -117 -122 -130c-63 -12 -97 20 -178 24c-28 1 -59 -2 -99 -15c-50 20 -57 77 -55 102z" />
    <glyph glyph-name="adieresis" unicode="&#xe4;" horiz-adv-x="825" 
d="M260 929c76 0 106 -42 106 -94s-34 -95 -106 -95c-73 0 -106 43 -106 95s30 94 106 94zM563 928c76 0 106 -42 106 -94s-34 -95 -106 -95c-73 0 -106 43 -106 95s29 94 106 94zM449 277c-38 7 -83 5 -112 -13c-24 -13 -38 -37 -34 -73c5 -36 29 -57 62 -59s70 11 94 32
c-8 34 -13 68 -10 113zM334 0c-150 -4 -322 32 -289 256c16 106 115 146 207 154c72 5 151 -6 205 -16c-4 45 19 176 -48 176c-54 0 -58 -44 -52 -87c-55 -19 -103 -27 -145 -25c-68 2 -117 29 -143 58c3 30 20 78 58 115c66 64 179 69 263 69c143 -1 229 -28 286 -91
c47 -51 62 -111 64 -176c4 -111 -31 -228 13 -334c5 -11 17 -34 22 -49c-8 -22 -38 -50 -124 -50c-39 4 -88 10 -139 68c-61 -52 -127 -67 -178 -68z" />
    <glyph glyph-name="aring" unicode="&#xe5;" horiz-adv-x="825" 
d="M449 277c-38 7 -83 5 -112 -13c-24 -13 -38 -37 -34 -73c5 -36 29 -57 62 -59s70 11 94 32c-8 34 -13 68 -10 113zM334 0c-150 -4 -322 32 -289 256c16 106 115 146 207 154c72 5 151 -6 205 -16c-4 45 19 176 -48 176c-54 0 -58 -44 -52 -87c-55 -19 -103 -27 -145 -25
c-68 2 -117 29 -143 58c3 30 20 78 58 115c66 64 179 69 263 69c143 -1 229 -28 286 -91c47 -51 62 -111 64 -176c4 -111 -31 -228 13 -334c5 -11 17 -34 22 -49c-8 -22 -38 -50 -124 -50c-39 4 -88 10 -139 68c-61 -52 -127 -67 -178 -68z" />
    <glyph glyph-name="ae" unicode="&#xe6;" horiz-adv-x="1212" 
d="M462 267c-38 7 -86 5 -115 -12c-24 -14 -38 -37 -34 -74c5 -36 29 -56 62 -58s89 15 112 37c-13 24 -25 62 -25 107zM740 371c38 -8 82 1 108 28c17 19 25 49 23 79c-3 43 -27 85 -72 85c-75 -1 -65 -152 -59 -192zM1161 445c1 -93 -49 -153 -118 -184
c-39 -18 -85 -27 -130 -28c-52 -1 -105 4 -150 26c2 -42 43 -90 89 -105c90 -30 165 -6 235 15c21 -6 49 -30 47 -75c-76 -72 -204 -98 -309 -97c-98 0 -191 8 -263 59c-67 -52 -170 -68 -254 -66c-140 3 -284 50 -253 256c16 106 115 147 207 154c72 5 151 -5 205 -15
c-4 45 19 175 -48 176c-54 0 -58 -45 -52 -87c-55 -20 -103 -28 -145 -26c-68 2 -103 16 -143 39c7 54 16 95 58 135c68 61 179 69 263 68c88 0 154 -11 206 -33c52 22 120 33 209 33c100 1 206 -16 274 -74c44 -37 72 -92 72 -171z" />
    <glyph glyph-name="ccedilla" unicode="&#xe7;" 
d="M288 -137c-39 4 -45 35 -44 60c17 7 67 47 104 87c-167 28 -299 143 -297 340c1 89 20 184 89 256c59 62 146 89 290 90c100 0 206 -17 274 -75c44 -37 72 -92 72 -171c1 -57 0 -51 -1 -98c-18 -19 -57 -49 -148 -49c-97 0 -146 35 -162 56c8 30 28 202 -37 208
c-86 7 -86 -159 -79 -214c9 -67 40 -127 115 -157c80 -33 186 -20 261 19c22 -6 49 -25 47 -70c-59 -82 -169 -127 -280 -139c-6 -15 -17 -30 -33 -48c87 -25 125 -89 122 -176c-4 -75 -52 -136 -111 -155c-49 -16 -125 -15 -180 18c-34 27 -26 71 -8 92
c73 -38 127 3 131 57c2 44 -43 101 -125 69z" />
    <glyph glyph-name="egrave" unicode="&#xe8;" 
d="M356 373c37 -7 81 2 107 29c17 19 25 49 23 79c-3 43 -26 85 -72 84c-75 0 -64 -152 -58 -192zM776 448c1 -94 -49 -153 -118 -184c-39 -18 -84 -27 -130 -28c-52 -1 -105 4 -150 26c3 -42 43 -90 89 -105c90 -30 165 -6 235 15c22 -6 49 -30 47 -75
c-76 -72 -204 -98 -308 -98c-210 1 -392 115 -390 348c1 90 20 185 89 256c59 62 146 90 290 90c100 1 206 -16 274 -74c44 -37 72 -92 72 -171zM597 807c-18 -29 -98 -62 -210 -40c-35 14 -105 73 -126 136c53 23 143 27 201 17c27 -44 108 -100 135 -113z" />
    <glyph glyph-name="eacute" unicode="&#xe9;" 
d="M277 809c26 13 108 69 135 113c58 10 148 6 201 -18c-21 -62 -92 -122 -127 -135c-111 -22 -191 10 -209 40zM356 373c37 -7 81 2 107 29c17 19 25 49 23 79c-3 43 -26 85 -72 84c-75 0 -64 -152 -58 -192zM776 448c1 -94 -49 -153 -118 -184c-39 -18 -84 -27 -130 -28
c-52 -1 -105 4 -150 26c3 -42 43 -90 89 -105c90 -30 165 -6 235 15c22 -6 49 -30 47 -75c-76 -72 -204 -98 -308 -98c-210 1 -392 115 -390 348c1 90 20 185 89 256c59 62 146 90 290 90c100 1 206 -16 274 -74c44 -37 72 -92 72 -171z" />
    <glyph glyph-name="ecircumflex" unicode="&#xea;" 
d="M422 990c61 -68 168 -146 230 -161c-7 -37 -55 -90 -98 -99c-69 36 -124 99 -132 114c-7 -15 -62 -78 -131 -114c-43 9 -91 62 -98 99c62 15 169 93 229 161zM356 373c37 -7 81 2 107 29c17 19 25 49 23 79c-3 43 -26 85 -72 84c-75 0 -64 -152 -58 -192zM776 448
c1 -94 -49 -153 -118 -184c-39 -18 -84 -27 -130 -28c-52 -1 -105 4 -150 26c3 -42 43 -90 89 -105c90 -30 165 -6 235 15c22 -6 49 -30 47 -75c-76 -72 -204 -98 -308 -98c-210 1 -392 115 -390 348c1 90 20 185 89 256c59 62 146 90 290 90c100 1 206 -16 274 -74
c44 -37 72 -92 72 -171z" />
    <glyph glyph-name="edieresis" unicode="&#xeb;" 
d="M356 373c37 -7 81 2 107 29c17 19 25 49 23 79c-3 43 -26 85 -72 84c-75 0 -64 -152 -58 -192zM776 448c1 -94 -49 -153 -118 -184c-39 -18 -84 -27 -130 -28c-52 -1 -105 4 -150 26c3 -42 43 -90 89 -105c90 -30 165 -6 235 15c22 -6 49 -30 47 -75
c-76 -72 -204 -98 -308 -98c-210 1 -392 115 -390 348c1 90 20 185 89 256c59 62 146 90 290 90c100 1 206 -16 274 -74c44 -37 72 -92 72 -171zM272 925c76 0 106 -42 106 -94s-34 -95 -106 -95c-73 0 -106 43 -106 95s30 94 106 94zM572 925c76 0 106 -42 106 -94
s-34 -95 -106 -95c-73 0 -106 43 -106 95s29 94 106 94z" />
    <glyph glyph-name="igrave" unicode="&#xec;" horiz-adv-x="458" 
d="M408 654c-13 -81 -21 -214 -22 -293c-2 -101 5 -234 22 -339c-45 -19 -110 -26 -178 -26c-69 0 -135 7 -180 26c16 103 24 232 22 331c-1 81 -9 217 -22 301c53 23 115 34 180 34s126 -11 178 -34zM402 807c-18 -29 -98 -62 -210 -40c-35 14 -105 73 -126 136
c53 23 143 27 201 17c27 -44 108 -100 135 -113z" />
    <glyph glyph-name="iacute" unicode="&#xed;" horiz-adv-x="458" 
d="M408 654c-52 23 -113 34 -178 34s-127 -11 -180 -34c13 -84 21 -220 22 -301c2 -99 -6 -228 -22 -331c45 -19 111 -26 180 -26c68 0 133 7 178 26c-17 105 -24 238 -22 339c1 79 9 212 22 293zM66 809c26 13 108 69 135 113c58 10 148 6 201 -18
c-21 -62 -92 -122 -127 -135c-111 -22 -191 10 -209 40z" />
    <glyph glyph-name="icircumflex" unicode="&#xee;" horiz-adv-x="559" 
d="M279 990c61 -68 168 -146 230 -161c-7 -37 -55 -90 -98 -99c-69 36 -124 99 -132 114c-7 -15 -62 -78 -131 -114c-43 9 -91 62 -98 99c62 15 169 93 229 161zM457 654c-13 -81 -21 -214 -22 -293c-2 -101 5 -234 22 -339c-45 -19 -110 -26 -178 -26c-69 0 -135 7 -180 26
c16 103 24 232 22 331c-1 81 -9 217 -22 301c53 23 115 34 180 34s126 -11 178 -34z" />
    <glyph glyph-name="idieresis" unicode="&#xef;" horiz-adv-x="456" 
d="M408 654c-13 -81 -21 -214 -22 -293c-2 -101 5 -234 22 -339c-45 -19 -110 -26 -178 -26c-69 0 -135 7 -180 26c16 103 24 232 22 331c-1 81 -9 217 -22 301c53 23 115 34 180 34s126 -11 178 -34zM76 947c76 0 106 -42 106 -94s-34 -95 -106 -95c-73 0 -106 43 -106 95
s30 94 106 94zM380 947c76 0 106 -42 106 -94s-34 -95 -106 -95c-73 0 -106 43 -106 95s29 94 106 94z" />
    <glyph glyph-name="eth" unicode="&#xf0;" horiz-adv-x="787" 
d="M296 571c40 1 91 -5 118 -21c-10 32 -24 62 -42 89c-5 -3 -86 -36 -113 -47c-25 8 -56 66 -47 100c27 8 49 17 79 29c-44 30 -97 52 -159 63c-8 18 1 68 27 82c40 0 105 -2 141 -7c72 -9 135 -28 187 -51c47 22 93 42 131 58c33 -13 56 -73 46 -106
c-25 -8 -47 -15 -68 -22c2 -1 3 -3 5 -4c122 -117 152 -284 145 -419c-11 -206 -141 -315 -385 -316c-187 0 -359 92 -361 298c0 199 146 269 296 274zM361 127c43 0 70 14 73 152c1 128 -26 167 -73 167s-75 -39 -73 -167c2 -138 29 -152 73 -152z" />
    <glyph glyph-name="ntilde" unicode="&#xf1;" horiz-adv-x="830" 
d="M749 395c-2 -136 11 -266 31 -365c-24 -13 -79 -30 -132 -30c-78 0 -137 26 -163 35c-11 44 -9 107 -10 166c-1 85 2 173 -4 255c-3 50 -22 91 -77 91c-24 1 -43 -4 -51 -7c15 -154 21 -382 -4 -503c-92 -47 -197 -54 -289 -7c22 75 27 197 30 319c2 111 -8 225 -21 313
c73 18 208 33 357 30c231 -4 335 -50 333 -297zM189 878c14 28 63 74 131 66c54 -7 89 -27 142 -23c29 1 58 10 85 30c20 4 77 -4 96 -54c-5 -51 -46 -117 -122 -130c-63 -12 -97 20 -178 24c-28 1 -59 -2 -99 -15c-50 20 -57 77 -55 102z" />
    <glyph glyph-name="ograve" unicode="&#xf2;" horiz-adv-x="822" 
d="M411 691c133 0 215 -31 272 -90c68 -72 88 -167 89 -256c-1 -89 -21 -184 -89 -256c-57 -59 -139 -90 -272 -90s-216 31 -272 90c-69 72 -88 167 -89 256c1 89 20 184 89 256c56 59 139 90 272 90zM411 127c54 -1 71 74 73 213c2 127 -11 222 -73 223
c-62 -1 -75 -96 -73 -223c2 -139 19 -214 73 -213zM586 807c-18 -29 -98 -62 -210 -40c-35 14 -105 73 -126 136c53 23 143 27 201 17c27 -44 108 -100 135 -113z" />
    <glyph glyph-name="oacute" unicode="&#xf3;" horiz-adv-x="822" 
d="M262 809c26 13 108 69 135 113c58 10 148 6 201 -18c-21 -62 -92 -122 -127 -135c-111 -22 -191 10 -209 40zM411 691c133 0 215 -31 272 -90c68 -72 88 -167 89 -256c-1 -89 -21 -184 -89 -256c-57 -59 -139 -90 -272 -90s-216 31 -272 90c-69 72 -88 167 -89 256
c1 89 20 184 89 256c56 59 139 90 272 90zM411 127c54 -1 71 74 73 213c2 127 -11 222 -73 223c-62 -1 -75 -96 -73 -223c2 -139 19 -214 73 -213z" />
    <glyph glyph-name="ocircumflex" unicode="&#xf4;" horiz-adv-x="822" 
d="M409 990c61 -68 168 -146 230 -161c-7 -37 -55 -90 -98 -99c-69 36 -124 99 -132 114c-7 -15 -62 -78 -131 -114c-43 9 -91 62 -98 99c62 15 169 93 229 161zM411 691c133 0 215 -31 272 -90c68 -72 88 -167 89 -256c-1 -89 -21 -184 -89 -256c-57 -59 -139 -90 -272 -90
s-216 31 -272 90c-69 72 -88 167 -89 256c1 89 20 184 89 256c56 59 139 90 272 90zM411 127c54 -1 71 74 73 213c2 127 -11 222 -73 223c-62 -1 -75 -96 -73 -223c2 -139 19 -214 73 -213z" />
    <glyph glyph-name="otilde" unicode="&#xf5;" horiz-adv-x="822" 
d="M189 878c14 28 63 74 131 66c54 -7 89 -27 142 -23c29 1 58 10 85 30c20 4 77 -4 96 -54c-5 -51 -46 -117 -122 -130c-63 -12 -97 20 -178 24c-28 1 -59 -2 -99 -15c-50 20 -57 77 -55 102zM411 691c133 0 215 -31 272 -90c68 -72 88 -167 89 -256
c-1 -89 -21 -184 -89 -256c-57 -59 -139 -90 -272 -90s-216 31 -272 90c-69 72 -88 167 -89 256c1 89 20 184 89 256c56 59 139 90 272 90zM411 127c54 -1 71 74 73 213c2 127 -11 222 -73 223c-62 -1 -75 -96 -73 -223c2 -139 19 -214 73 -213z" />
    <glyph glyph-name="odieresis" unicode="&#xf6;" horiz-adv-x="822" 
d="M261 925c76 0 106 -42 106 -94s-34 -95 -106 -95c-73 0 -106 43 -106 95s30 94 106 94zM567 925c76 0 106 -42 106 -94s-34 -95 -106 -95c-73 0 -106 43 -106 95s29 94 106 94zM411 691c133 0 215 -31 272 -90c68 -72 88 -167 89 -256c-1 -89 -21 -184 -89 -256
c-57 -59 -139 -90 -272 -90s-216 31 -272 90c-69 72 -88 167 -89 256c1 89 20 184 89 256c56 59 139 90 272 90zM411 127c54 -1 71 74 73 213c2 127 -11 222 -73 223c-62 -1 -75 -96 -73 -223c2 -139 19 -214 73 -213z" />
    <glyph glyph-name="divide" unicode="&#xf7;" horiz-adv-x="654" 
d="M328 662c76 0 106 -42 106 -94s-34 -95 -106 -95c-73 0 -106 43 -106 95s29 94 106 94zM328 227c76 0 106 -42 106 -94s-34 -95 -106 -95c-73 0 -106 43 -106 95s29 94 106 94zM71 266c-29 40 -26 125 -2 170c40 0 83 -2 124 -3c32 -1 234 -1 267 0c41 1 83 2 123 3
c31 -45 25 -129 -2 -170c-36 6 -91 6 -136 7c-33 1 -218 2 -250 1c-42 -2 -90 -3 -124 -8z" />
    <glyph glyph-name="oslash" unicode="&#xf8;" horiz-adv-x="919" 
d="M450 690c133 0 215 -30 272 -89c22 -23 38 -48 51 -75c38 13 70 23 94 30c41 -20 62 -99 46 -140l-105 -24c2 -16 2 -32 3 -47c-1 -89 -21 -184 -89 -256c-57 -60 -139 -90 -272 -90s-216 30 -272 90c-21 22 -37 46 -50 71c-27 -9 -53 -18 -78 -25
c-31 13 -62 101 -45 143c22 4 51 12 86 22c-1 15 -2 30 -2 45c1 89 20 184 89 256c56 59 139 89 272 89zM381 253c8 -83 27 -127 69 -126c49 -1 67 61 72 177c-49 -17 -96 -34 -141 -51zM520 440c-7 74 -26 122 -70 123c-53 -1 -70 -71 -73 -171c47 16 96 32 143 48z" />
    <glyph glyph-name="ugrave" unicode="&#xf9;" horiz-adv-x="814" 
d="M69 296c2 136 1 266 -19 365c25 13 68 30 120 30c78 0 137 -26 163 -35c11 -44 9 -107 10 -166c1 -86 -2 -173 4 -256c3 -49 22 -90 77 -91c25 0 49 5 57 8c-7 149 -24 377 -2 503c92 46 194 54 285 7c-22 -76 -23 -198 -26 -319c-2 -111 8 -225 21 -313
c-73 -18 -208 -33 -357 -30c-120 2 -199 10 -264 62c-55 45 -70 126 -69 235zM586 807c-18 -29 -98 -62 -210 -40c-35 14 -105 73 -126 136c53 23 143 27 201 17c27 -44 108 -100 135 -113z" />
    <glyph glyph-name="uacute" unicode="&#xfa;" horiz-adv-x="814" 
d="M69 296c-1 -109 14 -190 69 -235c65 -52 144 -60 264 -62c149 -3 284 12 357 30c-13 88 -23 202 -21 313c3 121 4 243 26 319c-91 47 -193 39 -285 -7c-22 -126 -5 -354 2 -503c-8 -3 -32 -8 -57 -8c-55 1 -74 42 -77 91c-6 83 -3 170 -4 256c-1 59 1 122 -10 166
c-26 9 -85 35 -163 35c-52 0 -95 -17 -120 -30c20 -99 21 -229 19 -365zM259 809c26 13 108 69 135 113c58 10 148 6 201 -18c-21 -62 -92 -122 -127 -135c-111 -22 -191 10 -209 40z" />
    <glyph glyph-name="ucircumflex" unicode="&#xfb;" horiz-adv-x="814" 
d="M409 990c61 -68 168 -146 230 -161c-7 -37 -55 -90 -98 -99c-69 36 -124 99 -132 114c-7 -15 -62 -78 -131 -114c-43 9 -91 62 -98 99c62 15 169 93 229 161zM69 296c2 136 1 266 -19 365c25 13 68 30 120 30c78 0 137 -26 163 -35c11 -44 9 -107 10 -166
c1 -86 -2 -173 4 -256c3 -49 22 -90 77 -91c25 0 49 5 57 8c-7 149 -24 377 -2 503c92 46 194 54 285 7c-22 -76 -23 -198 -26 -319c-2 -111 8 -225 21 -313c-73 -18 -208 -33 -357 -30c-120 2 -199 10 -264 62c-55 45 -70 126 -69 235z" />
    <glyph glyph-name="udieresis" unicode="&#xfc;" horiz-adv-x="814" 
d="M256 933c76 0 106 -42 106 -94s-34 -95 -106 -95c-73 0 -106 43 -106 95s30 94 106 94zM560 933c76 0 106 -42 106 -94s-34 -95 -106 -95c-73 0 -106 43 -106 95s29 94 106 94zM69 296c2 136 1 266 -19 365c25 13 68 30 120 30c78 0 137 -26 163 -35
c11 -44 9 -107 10 -166c1 -86 -2 -173 4 -256c3 -49 22 -90 77 -91c25 0 49 5 57 8c-7 149 -24 377 -2 503c92 46 194 54 285 7c-22 -76 -23 -198 -26 -319c-2 -111 8 -225 21 -313c-73 -18 -208 -33 -357 -30c-120 2 -199 10 -264 62c-55 45 -70 126 -69 235z" />
    <glyph glyph-name="yacute" unicode="&#xfd;" horiz-adv-x="758" 
d="M248 809c26 13 108 69 135 113c58 10 148 6 201 -18c-21 -62 -92 -122 -127 -135c-111 -22 -191 10 -209 40zM-10 645c23 23 81 43 146 46c47 2 107 -3 158 -28c8 -89 51 -241 115 -369c45 106 74 225 86 368c17 11 46 31 125 31c78 0 111 -21 138 -35
c-48 -233 -161 -550 -394 -836c-169 -21 -266 63 -280 105c86 35 150 91 201 156c-106 123 -203 278 -295 562z" />
    <glyph glyph-name="thorn" unicode="&#xfe;" horiz-adv-x="884" 
d="M745 588c68 -70 88 -158 89 -246c-1 -88 -21 -181 -89 -252c-90 -93 -245 -102 -366 -79c-2 -52 -1 -124 8 -162c-79 -38 -247 -43 -320 6c22 252 7 761 -17 980c73 49 224 49 303 11c1 -17 7 -93 12 -162c159 27 286 -7 380 -96zM384 135c63 -6 123 1 148 68
c20 52 27 152 12 231c-12 62 -38 116 -114 121c-21 2 -41 -1 -56 -8c10 -107 14 -250 10 -412z" />
    <glyph glyph-name="ydieresis" unicode="&#xff;" horiz-adv-x="758" 
d="M250 947c76 0 106 -42 106 -94s-34 -95 -106 -95c-73 0 -106 43 -106 95s30 94 106 94zM554 947c76 0 106 -42 106 -94s-34 -95 -106 -95c-73 0 -106 43 -106 95s29 94 106 94zM-10 645c23 23 81 43 146 46c47 2 107 -3 158 -28c8 -89 51 -241 115 -369
c45 106 74 225 86 368c17 11 46 31 125 31c78 0 111 -21 138 -35c-48 -233 -161 -550 -394 -836c-169 -21 -266 63 -280 105c86 35 150 91 201 156c-106 123 -203 278 -295 562z" />
    <glyph glyph-name="Amacron" unicode="&#x100;" horiz-adv-x="819" 
d="M500 114c-65 -3 -133 0 -198 5c-11 -40 -18 -63 -32 -101c-45 -16 -96 -21 -143 -17c-53 4 -99 21 -127 49c111 204 165 446 192 623c114 27 361 23 450 -15c28 -177 45 -371 177 -608c-21 -33 -69 -46 -128 -50c-59 -3 -122 4 -156 23c-14 25 -24 54 -35 91zM337 279
c35 -3 97 -2 128 2c-18 103 -28 167 -37 258c-12 0 -41 -2 -49 -1c-10 -92 -24 -170 -42 -259zM153 772c-29 40 -26 116 -2 161c40 0 83 -2 124 -3c32 -1 234 -1 267 0c41 1 83 2 123 3c31 -45 25 -120 -2 -161c-36 6 -91 6 -136 7c-33 1 -218 2 -250 1
c-42 -2 -90 -3 -124 -8z" />
    <glyph glyph-name="amacron" unicode="&#x101;" horiz-adv-x="820" 
d="M449 277c-38 7 -83 5 -112 -13c-24 -13 -38 -37 -34 -73c5 -36 29 -57 62 -59s70 11 94 32c-8 34 -13 68 -10 113zM334 0c-150 -4 -322 32 -289 256c16 106 115 146 207 154c72 5 151 -6 205 -16c-4 45 19 176 -48 176c-54 0 -58 -44 -52 -87c-55 -19 -103 -27 -145 -25
c-68 2 -117 29 -143 58c3 30 20 78 58 115c66 64 179 69 263 69c143 -1 229 -28 286 -91c47 -51 62 -111 64 -176c4 -111 -31 -228 13 -334c5 -11 17 -34 22 -49c-8 -22 -38 -50 -124 -50c-39 4 -88 10 -139 68c-61 -52 -127 -67 -178 -68zM161 772c-29 40 -26 116 -2 161
c40 0 83 -2 124 -3c32 -1 234 -1 267 0c41 1 83 2 123 3c31 -45 25 -120 -2 -161c-36 6 -91 6 -136 7c-33 1 -218 2 -250 1c-42 -2 -90 -3 -124 -8z" />
    <glyph glyph-name="Abreve" unicode="&#x102;" horiz-adv-x="819" 
d="M500 114c-65 -3 -133 0 -198 5c-11 -40 -18 -63 -32 -101c-45 -16 -96 -21 -143 -17c-53 4 -99 21 -127 49c111 204 165 446 192 623c114 27 361 23 450 -15c28 -177 45 -371 177 -608c-21 -33 -69 -46 -128 -50c-59 -3 -122 4 -156 23c-14 25 -24 54 -35 91zM337 279
c35 -3 97 -2 128 2c-18 103 -28 167 -37 258c-12 0 -41 -2 -49 -1c-10 -92 -24 -170 -42 -259zM651 868c-139 -152 -382 -125 -480 0c7 38 58 94 102 103c65 -74 179 -82 276 0c44 -9 95 -65 102 -103z" />
    <glyph glyph-name="abreve" unicode="&#x103;" horiz-adv-x="820" 
d="M449 277c-38 7 -83 5 -112 -13c-24 -13 -38 -37 -34 -73c5 -36 29 -57 62 -59s70 11 94 32c-8 34 -13 68 -10 113zM334 0c-150 -4 -322 32 -289 256c16 106 115 146 207 154c72 5 151 -6 205 -16c-4 45 19 176 -48 176c-54 0 -58 -44 -52 -87c-55 -19 -103 -27 -145 -25
c-68 2 -117 29 -143 58c3 30 20 78 58 115c66 64 179 69 263 69c143 -1 229 -28 286 -91c47 -51 62 -111 64 -176c4 -111 -31 -228 13 -334c5 -11 17 -34 22 -49c-8 -22 -38 -50 -124 -50c-39 4 -88 10 -139 68c-61 -52 -127 -67 -178 -68zM650 868
c-139 -152 -382 -125 -480 0c7 38 58 94 102 103c65 -74 179 -82 276 0c44 -9 95 -65 102 -103z" />
    <glyph glyph-name="Aogonek" unicode="&#x104;" horiz-adv-x="819" 
d="M728 -93c14 -33 71 -61 137 -15c30 -30 24 -111 -23 -154c-55 -33 -130 -35 -180 -18c-59 19 -107 79 -110 154c-3 49 7 95 33 133c-60 25 -76 77 -85 112c-65 -2 -133 -4 -198 0c-11 -39 -18 -62 -32 -100c-45 -16 -96 -22 -143 -18c-53 5 -99 21 -127 49
c111 205 165 446 192 623c114 28 361 23 450 -14c28 -177 45 -371 177 -609c-48 -15 -120 -73 -91 -143zM337 280c35 -4 97 -2 128 2c-18 103 -28 167 -37 258c-12 -1 -41 -2 -49 -2c-10 -92 -24 -170 -42 -258z" />
    <glyph glyph-name="aogonek" unicode="&#x105;" horiz-adv-x="744" 
d="M408 267c-38 7 -83 5 -112 -12c-24 -14 -38 -37 -34 -74c5 -36 29 -56 62 -58s70 10 94 32c-8 33 -13 67 -10 112zM650 -93c14 -33 71 -61 137 -15c29 -30 24 -111 -23 -154c-56 -33 -131 -35 -180 -18c-59 19 -107 79 -111 154c-2 55 10 105 43 145c-15 9 -30 22 -45 39
c-61 -52 -127 -67 -178 -68c-150 -4 -322 33 -289 256c16 106 115 147 207 154c72 5 151 -5 205 -15c-4 45 19 175 -48 176c-54 0 -58 -45 -52 -87c-55 -20 -103 -28 -145 -26c-68 2 -103 16 -143 39c7 54 16 95 58 135c68 61 179 69 263 68c193 -2 344 -62 350 -266
c4 -112 -31 -229 13 -335c5 -11 17 -34 22 -49c-53 -18 -111 -71 -84 -133z" />
    <glyph glyph-name="Cacute" unicode="&#x106;" 
d="M280 810c26 13 108 69 135 113c58 10 148 6 201 -18c-21 -62 -92 -122 -127 -135c-111 -22 -191 10 -209 40zM465 359c8 30 28 202 -37 208c-86 7 -86 -159 -79 -214c9 -67 40 -127 115 -157c80 -33 186 -20 261 19c22 -6 49 -25 47 -70c-67 -92 -199 -138 -323 -142
c-212 -7 -400 112 -398 347c1 89 20 184 89 256c59 62 146 89 290 90c100 0 206 -17 274 -75c44 -37 72 -92 72 -171c1 -57 0 -51 -1 -98c-18 -19 -57 -49 -148 -49c-97 0 -146 35 -162 56z" />
    <glyph glyph-name="cacute" unicode="&#x107;" 
d="M465 359c8 30 28 202 -37 208c-86 7 -86 -159 -79 -214c9 -67 40 -127 115 -157c80 -33 186 -20 261 19c22 -6 49 -25 47 -70c-67 -92 -199 -138 -323 -142c-212 -7 -400 112 -398 347c1 89 20 184 89 256c59 62 146 89 290 90c100 0 206 -17 274 -75
c44 -37 72 -92 72 -171c1 -57 0 -51 -1 -98c-18 -19 -57 -49 -148 -49c-97 0 -146 35 -162 56zM275 809c26 13 108 69 135 113c58 10 148 6 201 -18c-21 -62 -92 -122 -127 -135c-111 -22 -191 10 -209 40z" />
    <glyph glyph-name="Ccaron" unicode="&#x10c;" 
d="M436 717c-60 68 -167 146 -229 161c7 37 55 90 98 99c69 -36 124 -99 131 -114c8 15 63 78 132 114c43 -9 91 -62 98 -99c-62 -15 -169 -93 -230 -161zM465 359c8 30 28 202 -37 208c-86 7 -86 -159 -79 -214c9 -67 40 -127 115 -157c80 -33 186 -20 261 19
c22 -6 49 -25 47 -70c-67 -92 -199 -138 -323 -142c-212 -7 -400 112 -398 347c1 89 20 184 89 256c59 62 146 89 290 90c100 0 206 -17 274 -75c44 -37 72 -92 72 -171c1 -57 0 -51 -1 -98c-18 -19 -57 -49 -148 -49c-97 0 -146 35 -162 56z" />
    <glyph glyph-name="ccaron" unicode="&#x10d;" 
d="M434 717c-60 68 -167 146 -229 161c7 37 55 90 98 99c69 -36 124 -99 131 -114c8 15 63 78 132 114c43 -9 91 -62 98 -99c-62 -15 -169 -93 -230 -161zM465 359c8 30 28 202 -37 208c-86 7 -86 -159 -79 -214c9 -67 40 -127 115 -157c80 -33 186 -20 261 19
c22 -6 49 -25 47 -70c-67 -92 -199 -138 -323 -142c-212 -7 -400 112 -398 347c1 89 20 184 89 256c59 62 146 89 290 90c100 0 206 -17 274 -75c44 -37 72 -92 72 -171c1 -57 0 -51 -1 -98c-18 -19 -57 -49 -148 -49c-97 0 -146 35 -162 56z" />
    <glyph glyph-name="Dcaron" unicode="&#x10e;" horiz-adv-x="865" 
d="M729 102c-94 -93 -222 -103 -344 -102c-94 1 -254 13 -330 51c20 220 33 351 -5 594c103 30 223 46 328 46c115 0 257 -11 344 -97c69 -70 90 -158 92 -245c1 -88 -17 -176 -85 -247zM361 544c7 -161 5 -293 -3 -401c15 -7 35 -10 56 -8c76 5 101 59 112 121
c15 80 6 173 -15 225c-26 67 -91 77 -150 63zM396 717c-60 68 -167 146 -229 161c7 37 55 90 98 99c69 -36 124 -99 131 -114c8 15 63 78 132 114c43 -9 91 -62 98 -99c-62 -15 -169 -93 -230 -161z" />
    <glyph glyph-name="dcaron" unicode="&#x10f;" horiz-adv-x="1051" 
d="M138 102c-68 71 -87 159 -88 247c1 87 21 175 89 245c91 93 246 99 366 76c2 52 3 138 5 176c80 38 235 38 308 -11c-35 -243 -27 -564 -5 -784c-75 -38 -235 -50 -329 -51c-122 -1 -250 9 -346 102zM500 544c-58 14 -123 4 -149 -63c-19 -52 -27 -145 -12 -225
c12 -62 38 -116 114 -121c21 -2 41 1 56 8c-10 108 -13 240 -9 401zM974 872c111 -2 134 -94 108 -185c-18 -66 -61 -125 -100 -155c-36 -13 -98 1 -113 33c44 36 73 74 79 108c-50 4 -92 39 -89 101c2 50 35 100 115 98z" />
    <glyph glyph-name="Dcroat" unicode="&#x110;" horiz-adv-x="815" 
d="M679 101c-94 -93 -222 -102 -344 -102c-94 1 -254 13 -330 52c7 81 14 150 17 216c-41 -1 -81 -1 -114 -5c-30 33 -27 103 -3 140c39 0 79 -3 119 -3c-2 73 -9 151 -24 245c103 31 223 46 328 46c115 1 257 -11 344 -96c69 -71 90 -158 92 -246c1 -88 -17 -176 -85 -247z
M315 400c20 1 58 2 77 2c31 -38 26 -106 -2 -140c-18 2 -55 3 -76 4c-1 -44 -3 -86 -6 -124c15 -6 35 -9 56 -8c76 5 101 59 112 122c15 79 6 173 -15 225c-26 67 -91 77 -150 63c3 -51 4 -99 4 -144z" />
    <glyph glyph-name="dcroat" unicode="&#x111;" horiz-adv-x="873" 
d="M135 91c-66 68 -82 128 -84 235c-1 68 21 129 76 186c90 92 261 103 381 80c1 17 1 44 2 75c-39 -1 -75 -1 -107 -5c-33 30 -30 91 -3 124c36 -1 74 -2 112 -3c0 28 1 51 1 63c80 38 235 38 308 -11c-3 -17 -5 -34 -7 -52c35 1 71 2 105 3c34 -33 28 -94 -3 -124
c-33 4 -72 5 -112 5c-14 -210 -6 -444 12 -616c-75 -38 -235 -50 -329 -51c-122 -1 -258 8 -352 91zM503 466c-58 14 -123 4 -149 -63c-33 -89 -27 -260 102 -268c21 -2 41 1 56 8c-10 108 -13 162 -9 323z" />
    <glyph glyph-name="Emacron" unicode="&#x112;" horiz-adv-x="651" 
d="M87 772c-29 40 -26 116 -2 161c40 0 83 -2 124 -3c32 -1 234 -1 267 0c41 1 83 2 123 3c31 -45 25 -120 -2 -161c-36 6 -91 6 -136 7c-33 1 -218 2 -250 1c-42 -2 -90 -3 -124 -8zM50 25c44 186 44 452 0 638c237 63 468 37 559 20c18 -41 3 -127 -11 -173
c-74 15 -190 27 -263 20c1 -23 2 -71 3 -94c53 -6 106 -2 159 2c21 -28 27 -135 0 -171c-56 8 -109 10 -159 5c0 -35 0 -79 -1 -95c48 -15 219 11 262 29c23 -57 29 -154 11 -188c-130 -15 -307 -40 -560 7z" />
    <glyph glyph-name="emacron" unicode="&#x113;" 
d="M356 373c37 -7 81 2 107 29c17 19 25 49 23 79c-3 43 -26 85 -72 84c-75 0 -64 -152 -58 -192zM776 448c1 -94 -49 -153 -118 -184c-39 -18 -84 -27 -130 -28c-52 -1 -105 4 -150 26c3 -42 43 -90 89 -105c90 -30 165 -6 235 15c22 -6 49 -30 47 -75
c-76 -72 -204 -98 -308 -98c-210 1 -392 115 -390 348c1 90 20 185 89 256c59 62 146 90 290 90c100 1 206 -16 274 -74c44 -37 72 -92 72 -171zM168 772c-29 40 -26 116 -2 161c40 0 83 -2 124 -3c32 -1 234 -1 267 0c41 1 83 2 123 3c31 -45 25 -120 -2 -161
c-36 6 -91 6 -136 7c-33 1 -218 2 -250 1c-42 -2 -90 -3 -124 -8z" />
    <glyph glyph-name="Edotaccent" unicode="&#x116;" horiz-adv-x="651" 
d="M50 25c44 186 44 452 0 638c237 63 468 37 559 20c18 -41 3 -127 -11 -173c-74 15 -190 27 -263 20c1 -23 2 -71 3 -94c53 -6 106 -2 159 2c21 -28 27 -135 0 -171c-56 8 -109 10 -159 5c0 -35 0 -79 -1 -95c48 -15 219 11 262 29c23 -57 29 -154 11 -188
c-130 -15 -307 -40 -560 7zM325 928c76 0 106 -42 106 -94s-34 -95 -106 -95c-73 0 -106 43 -106 95s29 94 106 94z" />
    <glyph glyph-name="edotaccent" unicode="&#x117;" 
d="M356 373c37 -7 81 2 107 29c17 19 25 49 23 79c-3 43 -26 85 -72 84c-75 0 -64 -152 -58 -192zM776 448c1 -94 -49 -153 -118 -184c-39 -18 -84 -27 -130 -28c-52 -1 -105 4 -150 26c3 -42 43 -90 89 -105c90 -30 165 -6 235 15c22 -6 49 -30 47 -75
c-76 -72 -204 -98 -308 -98c-210 1 -392 115 -390 348c1 90 20 185 89 256c59 62 146 90 290 90c100 1 206 -16 274 -74c44 -37 72 -92 72 -171zM427 928c76 0 106 -42 106 -94s-34 -95 -106 -95c-73 0 -106 43 -106 95s29 94 106 94z" />
    <glyph glyph-name="Eogonek" unicode="&#x118;" horiz-adv-x="651" 
d="M50 25c44 186 44 452 0 638c237 63 468 37 559 20c18 -41 3 -127 -11 -173c-74 15 -190 27 -263 20l3 -94c53 -6 106 -2 159 2c21 -28 27 -135 0 -171c-56 8 -109 10 -159 5c0 -35 0 -79 -1 -95c48 -15 219 11 262 29c23 -57 29 -154 11 -188c-65 -8 -141 -17 -232 -19
c-31 -30 -28 -71 -19 -92c14 -33 71 -61 137 -15c30 -30 24 -111 -23 -154c-56 -33 -131 -35 -180 -18c-59 19 -107 79 -111 154c-2 48 7 93 31 129c-50 4 -105 11 -163 22z" />
    <glyph glyph-name="eogonek" unicode="&#x119;" 
d="M356 371c37 -8 81 1 107 28c43 49 26 164 -49 164c-75 -1 -64 -152 -58 -192zM467 -3c-29 -30 -26 -70 -18 -90c14 -33 72 -61 137 -15c30 -30 25 -111 -22 -154c-56 -33 -131 -35 -181 -18c-59 19 -107 79 -110 154c-2 52 9 100 38 139c-150 39 -262 149 -260 332
c1 89 20 184 89 256c59 62 146 89 290 89c100 1 206 -16 274 -74c44 -37 72 -92 72 -171c1 -93 -49 -153 -118 -184c-39 -18 -84 -27 -130 -28c-52 -1 -105 4 -150 26c3 -42 43 -90 89 -105c90 -30 165 -6 235 15c22 -6 49 -30 47 -75c-69 -66 -183 -93 -282 -97z" />
    <glyph glyph-name="Ecaron" unicode="&#x11a;" horiz-adv-x="651" 
d="M50 25c44 186 44 452 0 638c237 63 468 37 559 20c18 -41 3 -127 -11 -173c-74 15 -190 27 -263 20c1 -23 2 -71 3 -94c53 -6 106 -2 159 2c21 -28 27 -135 0 -171c-56 8 -109 10 -159 5c0 -35 0 -79 -1 -95c48 -15 219 11 262 29c23 -57 29 -154 11 -188
c-130 -15 -307 -40 -560 7zM348 717c-60 68 -167 146 -229 161c7 37 55 90 98 99c69 -36 124 -99 131 -114c8 15 63 78 132 114c43 -9 91 -62 98 -99c-62 -15 -169 -93 -230 -161z" />
    <glyph glyph-name="ecaron" unicode="&#x11b;" 
d="M430 717c-60 68 -167 146 -229 161c7 37 55 90 98 99c69 -36 124 -99 131 -114c8 15 63 78 132 114c43 -9 91 -62 98 -99c-62 -15 -169 -93 -230 -161zM356 373c37 -7 81 2 107 29c17 19 25 49 23 79c-3 43 -26 85 -72 84c-75 0 -64 -152 -58 -192zM776 448
c1 -94 -49 -153 -118 -184c-39 -18 -84 -27 -130 -28c-52 -1 -105 4 -150 26c3 -42 43 -90 89 -105c90 -30 165 -6 235 15c22 -6 49 -30 47 -75c-76 -72 -204 -98 -308 -98c-210 1 -392 115 -390 348c1 90 20 185 89 256c59 62 146 90 290 90c100 1 206 -16 274 -74
c44 -37 72 -92 72 -171z" />
    <glyph glyph-name="Gbreve" unicode="&#x11e;" horiz-adv-x="826" 
d="M470 472c9 16 11 87 -42 92c-90 7 -84 -160 -82 -221c3 -81 22 -178 100 -194c36 -8 77 -2 105 15c3 26 3 35 1 63c-27 1 -48 -1 -78 -7c-11 20 -17 90 -13 121c36 11 204 34 306 -2c7 -54 5 -170 -3 -224c-63 -73 -191 -111 -315 -115c-212 -6 -400 112 -398 347
c1 89 20 184 89 256c59 62 146 89 290 90c100 0 206 -17 274 -75c46 -40 68 -101 72 -139c-18 -19 -57 -49 -148 -49c-97 0 -142 21 -158 42zM675 868c-139 -152 -382 -125 -480 0c7 38 58 94 102 103c65 -74 179 -82 276 0c44 -9 95 -65 102 -103z" />
    <glyph glyph-name="gbreve" unicode="&#x11f;" horiz-adv-x="794" 
d="M397 565c-54 0 -71 -54 -71 -156c-1 -94 6 -153 71 -154c65 1 70 60 71 154c2 102 -17 156 -71 156zM171 179c-73 46 -123 123 -120 237c5 197 169 276 347 277c187 0 343 -93 345 -277c2 -213 -167 -297 -346 -293c-35 -1 -70 2 -103 9c-16 -4 -43 -21 -37 -48
c9 -38 63 -26 128 -21c162 21 350 -9 362 -191c22 -325 -577 -357 -684 -120c3 22 46 99 84 115c64 -54 133 -82 216 -88c35 -2 84 0 114 9c24 8 50 26 39 57c-8 22 -37 24 -70 22c-80 -6 -188 -11 -263 18c-46 18 -92 51 -107 105c-20 76 7 157 95 189zM646 868
c-139 -152 -382 -125 -480 0c7 38 58 94 102 103c65 -74 179 -82 276 0c44 -9 95 -65 102 -103z" />
    <glyph glyph-name="Gcommaaccent" unicode="&#x122;" horiz-adv-x="826" 
d="M470 472c9 16 11 87 -42 92c-90 7 -84 -160 -82 -221c3 -81 22 -178 100 -194c36 -8 77 -2 105 15c3 26 3 35 1 63c-27 1 -48 -1 -78 -7c-11 20 -17 90 -13 121c36 11 204 34 306 -2c7 -54 5 -170 -3 -224c-63 -73 -191 -111 -315 -115c-212 -6 -400 112 -398 347
c1 89 20 184 89 256c59 62 146 89 290 90c100 0 206 -17 274 -75c46 -40 68 -101 72 -139c-18 -19 -57 -49 -148 -49c-97 0 -142 21 -158 42zM441 -59c-75 2 -106 -45 -108 -92c-3 -58 37 -91 84 -94c-6 -32 -33 -68 -74 -102c13 -29 72 -43 106 -31c36 29 77 84 94 146
c22 81 4 171 -102 173z" />
    <glyph glyph-name="gcommaaccent" unicode="&#x123;" horiz-adv-x="794" 
d="M397 565c-54 0 -71 -54 -71 -156c-1 -94 6 -153 71 -154c65 1 70 60 71 154c2 102 -17 156 -71 156zM171 179c-73 46 -123 123 -120 237c5 197 169 276 347 277c187 0 343 -93 345 -277c2 -213 -167 -297 -346 -293c-35 -1 -70 2 -103 9c-16 -4 -43 -21 -37 -48
c9 -38 63 -26 128 -21c162 21 350 -9 362 -191c22 -325 -577 -357 -684 -120c3 22 46 99 84 115c64 -54 133 -82 216 -88c35 -2 84 0 114 9c24 8 50 26 39 57c-8 22 -37 24 -70 22c-80 -6 -188 -11 -263 18c-46 18 -92 51 -107 105c-20 76 7 157 95 189zM326 736
c-63 56 -47 136 17 190c49 42 122 62 168 65c35 1 75 -41 70 -72c-52 -3 -96 -20 -119 -43c37 -29 51 -78 16 -124c-29 -38 -105 -58 -152 -16z" />
    <glyph glyph-name="Imacron" unicode="&#x12a;" horiz-adv-x="458" 
d="M408 659c-17 -104 -23 -191 -24 -296c-2 -118 5 -223 24 -337c-45 -19 -110 -26 -178 -26c-69 0 -135 7 -180 26c18 114 25 219 24 337c-1 105 -7 192 -24 296c53 23 115 34 180 34s126 -11 178 -34zM-18 772c-29 40 -26 116 -2 161c40 0 83 -2 124 -3
c32 -1 234 -1 267 0c41 1 83 2 123 3c31 -45 25 -120 -2 -161c-36 6 -91 6 -136 7c-33 1 -218 2 -250 1c-42 -2 -90 -3 -124 -8z" />
    <glyph glyph-name="imacron" unicode="&#x12b;" horiz-adv-x="458" 
d="M408 654c-13 -81 -21 -214 -22 -293c-2 -101 5 -234 22 -339c-45 -19 -110 -26 -178 -26c-69 0 -135 7 -180 26c16 103 24 232 22 331c-1 81 -9 217 -22 301c53 23 115 34 180 34s126 -11 178 -34zM-23 786c-29 40 -26 116 -2 161c40 0 83 -2 124 -3c32 -1 234 -1 267 0
c41 1 83 2 123 3c31 -45 25 -120 -2 -161c-36 6 -91 6 -136 7c-33 1 -218 2 -250 1c-42 -2 -90 -3 -124 -8z" />
    <glyph glyph-name="Iogonek" unicode="&#x12e;" horiz-adv-x="458" 
d="M275 -112c12 -34 71 -61 137 -15c30 -30 24 -111 -23 -154c-56 -33 -131 -35 -180 -18c-59 19 -107 61 -111 136s22 131 88 164c-52 2 -101 10 -136 25c18 114 25 219 24 337c-1 105 -7 192 -24 296c53 23 115 34 180 34s126 -11 178 -34c-17 -104 -23 -191 -24 -296
c-2 -118 5 -223 24 -337c-83 -3 -162 -53 -133 -138z" />
    <glyph glyph-name="iogonek" unicode="&#x12f;" horiz-adv-x="458" 
d="M232 994c103 0 144 -56 144 -127c0 -70 -46 -123 -144 -123c-99 0 -144 53 -144 123c0 71 40 127 144 127zM275 -112c12 -34 71 -61 137 -15c30 -30 24 -111 -23 -154c-56 -33 -131 -35 -180 -18c-59 19 -107 61 -111 136s22 131 88 164c-52 2 -101 10 -136 25
c18 114 25 219 24 337c-1 105 -7 192 -24 296c53 23 115 34 180 34s126 -11 178 -34c-17 -104 -23 -191 -24 -296c-2 -118 5 -223 24 -337c-83 -3 -162 -53 -133 -138z" />
    <glyph glyph-name="Idotaccent" unicode="&#x130;" horiz-adv-x="458" 
d="M229 994c103 0 144 -56 144 -127c0 -70 -46 -123 -144 -123c-99 0 -144 53 -144 123c0 71 40 127 144 127zM408 654c-13 -81 -21 -214 -22 -293c-2 -101 5 -234 22 -339c-45 -19 -110 -26 -178 -26c-69 0 -135 7 -180 26c16 103 24 232 22 331c-1 81 -9 217 -22 301
c53 23 115 34 180 34s126 -11 178 -34z" />
    <glyph glyph-name="dotlessi" unicode="&#x131;" horiz-adv-x="458" 
d="M229 994c103 0 144 -56 144 -127c0 -70 -46 -123 -144 -123c-99 0 -144 53 -144 123c0 71 40 127 144 127zM408 654c-13 -81 -21 -214 -22 -293c-2 -101 5 -234 22 -339c-45 -19 -110 -26 -178 -26c-69 0 -135 7 -180 26c16 103 24 232 22 331c-1 81 -9 217 -22 301
c53 23 115 34 180 34s126 -11 178 -34z" />
    <glyph glyph-name="Kcommaaccent" unicode="&#x136;" horiz-adv-x="803" 
d="M50 27c44 185 44 447 0 632c78 42 188 44 270 13c15 -89 23 -188 25 -287c85 68 126 175 119 278c86 42 240 36 293 0c-23 -107 -112 -232 -199 -297c37 -93 125 -197 275 -239c-1 -44 -55 -130 -188 -128c-155 4 -241 150 -301 272c-3 -86 -11 -172 -24 -249
c-25 -9 -74 -21 -147 -20c-49 0 -100 12 -123 25zM411 -59c106 -2 124 -92 102 -173c-17 -62 -58 -117 -94 -146c-34 -12 -93 2 -106 31c41 34 68 70 74 102c-47 3 -87 36 -84 94c2 47 33 94 108 92z" />
    <glyph glyph-name="kcommaaccent" unicode="&#x137;" horiz-adv-x="833" 
d="M50 27c44 186 47 629 2 815c78 42 189 44 270 12c15 -88 21 -369 23 -469c85 68 126 175 119 278c86 43 240 36 293 0c-23 -106 -112 -231 -199 -297c37 -92 125 -197 275 -239c-1 -44 -55 -130 -188 -127c-155 3 -241 149 -301 272c-3 -87 -11 -172 -24 -249
c-25 -10 -74 -21 -147 -21c-49 0 -100 13 -123 25zM425 -59c106 -2 124 -92 102 -173c-17 -62 -58 -117 -94 -146c-34 -12 -93 2 -106 31c41 34 68 70 74 102c-47 3 -87 36 -84 94c2 47 33 94 108 92z" />
    <glyph glyph-name="Lacute" unicode="&#x139;" horiz-adv-x="652" 
d="M67 682c87 35 221 25 291 9c-7 -169 -2 -298 -17 -516c73 -8 212 7 286 22c13 -35 21 -135 7 -176c-53 -8 -161 -22 -288 -21c-94 2 -197 11 -296 37c45 186 52 459 17 645zM158 809c26 13 108 69 135 113c58 10 148 6 201 -18c-21 -62 -92 -122 -127 -135
c-111 -22 -191 10 -209 40z" />
    <glyph glyph-name="lacute" unicode="&#x13a;" horiz-adv-x="495" 
d="M360 743c-24 13 -80 29 -131 29c-76 1 -136 -17 -161 -26c-7 -140 -85 -555 110 -700c50 -37 115 -54 184 -49c82 20 134 103 132 166c-108 7 -140 116 -149 200c-17 150 7 242 15 380zM88 874c26 13 108 69 135 113c58 10 148 6 201 -18c-21 -62 -92 -122 -127 -135
c-111 -22 -191 10 -209 40z" />
    <glyph glyph-name="Lcommaaccent" unicode="&#x13b;" horiz-adv-x="652" 
d="M67 682c87 35 221 25 291 9c-7 -169 -2 -298 -17 -516c73 -8 212 7 286 22c13 -35 21 -135 7 -176c-53 -8 -161 -22 -288 -21c-94 2 -197 11 -296 37c45 186 52 459 17 645zM342 -59c-75 2 -106 -45 -108 -92c-3 -58 37 -91 84 -94c-6 -32 -33 -68 -74 -102
c13 -29 72 -43 106 -31c36 29 77 84 94 146c22 81 4 171 -102 173z" />
    <glyph glyph-name="lcommaaccent" unicode="&#x13c;" horiz-adv-x="495" 
d="M360 848c-8 -138 -32 -335 -15 -485c9 -84 41 -193 149 -200c2 -63 -50 -146 -132 -166c-69 -5 -134 12 -184 49c-150 112 -128 381 -123 543c3 96 9 191 15 264c25 9 83 21 159 20c51 0 107 -12 131 -25zM275 -59c106 -2 124 -92 102 -173c-17 -62 -58 -117 -94 -146
c-34 -12 -93 2 -106 31c41 34 68 70 74 102c-47 3 -87 36 -84 94c2 47 33 94 108 92z" />
    <glyph glyph-name="Lcaron" unicode="&#x13d;" horiz-adv-x="652" 
d="M532 808c111 -2 134 -94 108 -185c-18 -66 -61 -125 -100 -155c-36 -13 -98 1 -113 33c44 36 73 74 79 108c-50 4 -92 39 -89 101c2 50 35 100 115 98zM67 682c87 35 221 25 291 9c-7 -169 -2 -298 -17 -516c73 -8 212 7 286 22c13 -35 21 -135 7 -176
c-53 -8 -161 -22 -288 -21c-94 2 -197 11 -296 37c45 186 52 459 17 645z" />
    <glyph glyph-name="lcaron" unicode="&#x13e;" horiz-adv-x="551" 
d="M521 863c111 -2 134 -94 108 -185c-18 -66 -61 -125 -100 -155c-36 -13 -98 1 -113 33c44 36 73 74 79 108c-50 4 -92 39 -89 101c2 50 35 100 115 98zM360 848c-8 -138 -32 -335 -15 -485c9 -84 41 -193 149 -200c2 -63 -50 -146 -132 -166c-69 -5 -134 12 -184 49
c-150 112 -128 381 -123 543c3 96 9 191 15 264c25 9 83 21 159 20c51 0 107 -12 131 -25z" />
    <glyph glyph-name="Lslash" unicode="&#x141;" horiz-adv-x="633" 
d="M47 667c87 35 221 25 291 9c-3 -73 -4 -138 -5 -207c53 15 104 29 153 39c40 -23 56 -104 37 -145c-62 -9 -127 -24 -194 -41c-2 -49 -4 -102 -9 -162c74 -8 213 7 287 22c13 -36 21 -135 7 -176c-53 -9 -161 -22 -289 -21c-93 2 -196 11 -295 37c16 67 27 145 34 227
c-37 -10 -73 -20 -108 -27c-31 15 -56 106 -36 147c47 7 98 17 149 29c0 97 -7 191 -22 269z" />
    <glyph glyph-name="lslash" unicode="&#x142;" horiz-adv-x="495" 
d="M358 848c-5 -82 -15 -184 -19 -285c45 12 87 23 124 31c41 -23 57 -105 37 -145c-64 -10 -117 -19 -162 -28c6 -100 22 -245 154 -258c2 -63 -50 -147 -132 -166c-69 -6 -134 12 -184 49c-85 63 -115 177 -124 293c-33 -11 -71 -21 -119 -32c-30 16 -56 107 -36 148
c46 6 98 17 153 30c2 118 9 267 18 367c25 10 83 21 159 21c51 0 107 -13 131 -25z" />
    <glyph glyph-name="Nacute" unicode="&#x143;" horiz-adv-x="848" 
d="M796 32c-23 -12 -89 -31 -138 -31c-47 0 -98 9 -142 28c-44 86 -140 216 -210 306c10 -119 4 -239 -4 -314c-31 -14 -100 -24 -142 -22c-34 2 -75 9 -110 28c31 203 43 414 9 639c59 32 232 31 293 6c59 -121 168 -249 200 -297c4 108 10 209 23 306
c87 18 146 20 223 -15c-39 -194 -35 -428 -2 -634zM281 810c26 13 108 69 135 113c58 10 148 6 201 -18c-21 -62 -92 -122 -127 -135c-111 -22 -191 10 -209 40z" />
    <glyph glyph-name="nacute" unicode="&#x144;" horiz-adv-x="830" 
d="M250 809c26 13 108 69 135 113c58 10 148 6 201 -18c-21 -62 -92 -122 -127 -135c-111 -22 -191 10 -209 40zM749 395c2 247 -102 293 -333 297c-149 3 -284 -12 -357 -30c13 -88 23 -202 21 -313c-3 -122 -8 -244 -30 -319c92 -47 197 -40 289 7c25 121 19 349 4 503
c8 3 27 8 51 7c55 0 74 -41 77 -91c6 -82 3 -170 4 -255c1 -59 -1 -122 10 -166c26 -9 85 -35 163 -35c53 0 108 17 132 30c-20 99 -33 229 -31 365z" />
    <glyph glyph-name="Ncommaaccent" unicode="&#x145;" horiz-adv-x="848" 
d="M796 32c-23 -12 -89 -31 -138 -31c-47 0 -98 9 -142 28c-44 86 -140 216 -210 306c10 -119 4 -239 -4 -314c-31 -14 -100 -24 -142 -22c-34 2 -75 9 -110 28c31 203 43 414 9 639c59 32 232 31 293 6c59 -121 168 -249 200 -297c4 108 10 209 23 306
c87 18 146 20 223 -15c-39 -194 -35 -428 -2 -634zM422 -59c-75 2 -106 -45 -108 -92c-3 -58 37 -91 84 -94c-6 -32 -33 -68 -74 -102c13 -29 72 -43 106 -31c36 29 77 84 94 146c22 81 4 171 -102 173z" />
    <glyph glyph-name="ncommaaccent" unicode="&#x146;" horiz-adv-x="830" 
d="M749 395c-2 -136 11 -266 31 -365c-24 -13 -79 -30 -132 -30c-78 0 -137 26 -163 35c-11 44 -9 107 -10 166c-1 85 2 173 -4 255c-3 50 -22 91 -77 91c-24 1 -43 -4 -51 -7c15 -154 21 -382 -4 -503c-92 -47 -197 -54 -289 -7c22 75 27 197 30 319c2 111 -8 225 -21 313
c73 18 208 33 357 30c231 -4 335 -50 333 -297zM413 -59c106 -2 124 -92 102 -173c-17 -62 -58 -117 -94 -146c-34 -12 -93 2 -106 31c41 34 68 70 74 102c-47 3 -87 36 -84 94c2 47 33 94 108 92z" />
    <glyph glyph-name="Ncaron" unicode="&#x147;" horiz-adv-x="848" 
d="M448 717c-60 68 -167 146 -229 161c7 37 55 90 98 99c69 -36 124 -99 131 -114c8 15 63 78 132 114c43 -9 91 -62 98 -99c-62 -15 -169 -93 -230 -161zM796 32c-23 -12 -89 -31 -138 -31c-47 0 -98 9 -142 28c-44 86 -140 216 -210 306c10 -119 4 -239 -4 -314
c-31 -14 -100 -24 -142 -22c-34 2 -75 9 -110 28c11 71 19 142 23 216c6 93 6 196 1 289c-3 47 -7 93 -15 134c59 32 232 31 293 6c59 -121 168 -249 200 -297c4 108 10 209 23 306c87 18 146 20 223 -15c-14 -59 -19 -125 -22 -195c-4 -95 -4 -186 0 -281
c3 -54 8 -109 20 -158z" />
    <glyph glyph-name="ncaron" unicode="&#x148;" horiz-adv-x="830" 
d="M749 395c-2 -136 11 -266 31 -365c-24 -13 -79 -30 -132 -30c-78 0 -137 26 -163 35c-11 44 -9 107 -10 166c-1 85 2 173 -4 255c-3 50 -22 91 -77 91c-24 1 -43 -4 -51 -7c15 -154 21 -382 -4 -503c-92 -47 -197 -54 -289 -7c22 75 27 197 30 319c2 111 -8 225 -21 313
c73 18 208 33 357 30c231 -4 335 -50 333 -297zM414 717c-60 68 -167 146 -229 161c7 37 55 90 98 99c69 -36 124 -99 131 -114c8 15 63 78 132 114c43 -9 91 -62 98 -99c-62 -15 -169 -93 -230 -161z" />
    <glyph glyph-name="Omacron" unicode="&#x14c;" horiz-adv-x="822" 
d="M411 691c133 0 215 -31 272 -90c68 -72 88 -167 89 -256c-1 -89 -21 -184 -89 -256c-57 -59 -139 -90 -272 -90s-216 31 -272 90c-69 72 -88 167 -89 256c1 89 20 184 89 256c56 59 139 90 272 90zM411 127c54 -1 71 74 73 213c2 127 -11 222 -73 223
c-62 -1 -75 -96 -73 -223c2 -139 19 -214 73 -213zM159 772c-29 40 -26 116 -2 161c40 0 83 -2 124 -3c32 -1 234 -1 267 0c41 1 83 2 123 3c31 -45 25 -120 -2 -161c-36 6 -91 6 -136 7c-33 1 -218 2 -250 1c-42 -2 -90 -3 -124 -8z" />
    <glyph glyph-name="omacron" unicode="&#x14d;" horiz-adv-x="822" 
d="M411 691c133 0 215 -31 272 -90c68 -72 88 -167 89 -256c-1 -89 -21 -184 -89 -256c-57 -59 -139 -90 -272 -90s-216 31 -272 90c-69 72 -88 167 -89 256c1 89 20 184 89 256c56 59 139 90 272 90zM411 127c54 -1 71 74 73 213c2 127 -11 222 -73 223
c-62 -1 -75 -96 -73 -223c2 -139 19 -214 73 -213zM159 772c-29 40 -26 116 -2 161c40 0 83 -2 124 -3c32 -1 234 -1 267 0c41 1 83 2 123 3c31 -45 25 -120 -2 -161c-36 6 -91 6 -136 7c-33 1 -218 2 -250 1c-42 -2 -90 -3 -124 -8z" />
    <glyph glyph-name="Ohungarumlaut" unicode="&#x150;" horiz-adv-x="822" 
d="M411 691c133 0 215 -31 272 -90c68 -72 88 -167 89 -256c-1 -89 -21 -184 -89 -256c-57 -59 -139 -90 -272 -90s-216 31 -272 90c-69 72 -88 167 -89 256c1 89 20 184 89 256c56 59 139 90 272 90zM411 127c54 -1 71 74 73 213c2 127 -11 222 -73 223
c-62 -1 -75 -96 -73 -223c2 -139 19 -214 73 -213zM80 809c26 13 108 69 135 113c58 10 148 6 201 -18c-21 -62 -92 -122 -127 -135c-111 -22 -191 10 -209 40zM409 809c26 13 108 69 135 113c58 10 148 6 201 -18c-21 -62 -92 -122 -127 -135c-111 -22 -191 10 -209 40z
" />
    <glyph glyph-name="ohungarumlaut" unicode="&#x151;" horiz-adv-x="822" 
d="M411 691c133 0 215 -31 272 -90c68 -72 88 -167 89 -256c-1 -89 -21 -184 -89 -256c-57 -59 -139 -90 -272 -90s-216 31 -272 90c-69 72 -88 167 -89 256c1 89 20 184 89 256c56 59 139 90 272 90zM411 127c54 -1 71 74 73 213c2 127 -11 222 -73 223
c-62 -1 -75 -96 -73 -223c2 -139 19 -214 73 -213zM83 809c26 13 108 69 135 113c58 10 148 6 201 -18c-21 -62 -92 -122 -127 -135c-111 -22 -191 10 -209 40zM422 809c26 13 108 69 135 113c58 10 148 6 201 -18c-21 -62 -92 -122 -127 -135c-111 -22 -191 10 -209 40z
" />
    <glyph glyph-name="OE" unicode="&#x152;" horiz-adv-x="1111" 
d="M506 185c6 63 7 133 7 203c0 61 -1 122 -8 178c-18 2 -47 4 -79 -5c-82 -25 -89 -156 -82 -211c13 -96 53 -159 162 -165zM555 682c210 41 412 18 494 4c18 -42 3 -128 -11 -174c-73 16 -190 31 -263 29c1 -23 2 -79 3 -103c53 -6 106 -2 159 2c21 -28 27 -135 0 -170
c-56 8 -109 10 -158 5c-1 -36 -1 -87 -2 -104c54 -8 219 20 262 38c23 -57 29 -154 11 -189c-117 -13 -280 -35 -493 -5c-35 -9 -71 -14 -108 -15c-212 -6 -400 112 -398 347c0 98 19 182 89 253c59 60 146 92 290 93c42 0 85 -3 125 -11z" />
    <glyph glyph-name="oe" unicode="&#x153;" horiz-adv-x="1243" 
d="M771 371c38 -8 82 1 108 29c17 18 25 49 23 79c-3 43 -27 84 -73 84c-75 0 -64 -152 -58 -192zM634 656c53 23 121 34 211 35c101 0 207 -16 275 -74c43 -38 71 -92 72 -172c1 -93 -49 -152 -118 -184c-39 -17 -85 -26 -131 -27c-52 -1 -104 3 -149 26
c2 -42 42 -90 89 -106c90 -30 164 -5 235 16c21 -7 48 -31 47 -75c-76 -73 -205 -98 -309 -98c-75 0 -148 15 -209 46c-60 -28 -130 -43 -198 -45c-212 -7 -400 112 -398 347c1 120 39 227 143 292c58 37 128 53 236 53c72 1 144 -8 204 -34zM523 148
c-37 52 -57 118 -57 197c1 67 12 138 47 199c-15 14 -41 20 -68 18c-80 -6 -110 -91 -107 -214c2 -90 32 -159 106 -190c23 -9 50 -12 79 -10z" />
    <glyph glyph-name="Racute" unicode="&#x154;" horiz-adv-x="838" 
d="M50 27c23 -12 74 -25 123 -25c73 0 122 11 147 21c10 61 17 126 21 194l3 -1c51 -119 115 -223 283 -223c133 -3 210 90 211 134c-51 9 -99 24 -141 43c-34 16 -64 36 -86 60c98 35 163 110 160 232c-6 208 -231 233 -395 232c-116 -1 -226 -17 -321 -57
c44 -185 39 -424 -5 -610zM345 338c0 76 -3 141 -9 217c92 29 176 -8 173 -102c-2 -92 -75 -125 -164 -115zM256 809c26 13 108 69 135 113c58 10 148 6 201 -18c-21 -62 -92 -122 -127 -135c-111 -22 -191 10 -209 40z" />
    <glyph glyph-name="racute" unicode="&#x155;" horiz-adv-x="589" 
d="M166 809c26 13 108 69 135 113c58 10 148 6 201 -18c-21 -62 -92 -122 -127 -135c-111 -22 -191 10 -209 40zM396 34c9 242 -2 361 -11 414c23 26 75 33 105 10c75 46 110 148 105 202c-41 22 -88 38 -149 37c-60 -2 -102 -27 -127 -67c-10 16 -38 45 -54 55
c-65 3 -174 -25 -213 -64c22 -84 36 -176 42 -267c7 -111 3 -222 -15 -321c37 -26 112 -34 166 -33c75 1 112 16 151 34z" />
    <glyph glyph-name="Rcommaaccent" unicode="&#x156;" horiz-adv-x="838" 
d="M50 27c44 186 49 425 5 610c95 40 205 56 321 57c164 1 389 -24 395 -232c3 -122 -62 -197 -160 -232c22 -24 52 -44 86 -60c42 -19 90 -34 141 -43c-1 -44 -78 -137 -211 -134c-168 0 -232 104 -283 223l-3 1c-4 -68 -11 -133 -21 -194c-25 -10 -74 -21 -147 -21
c-49 0 -100 13 -123 25zM345 338c89 -10 162 23 164 115c3 94 -81 131 -173 102c6 -76 9 -141 9 -217zM411 -59c106 -2 124 -92 102 -173c-17 -62 -58 -117 -94 -146c-34 -12 -93 2 -106 31c41 34 68 70 74 102c-47 3 -87 36 -84 94c2 47 33 94 108 92z" />
    <glyph glyph-name="Rcaron" unicode="&#x158;" horiz-adv-x="838" 
d="M418 717c-60 68 -167 146 -229 161c7 37 55 90 98 99c69 -36 124 -99 131 -114c8 15 63 78 132 114c43 -9 91 -62 98 -99c-62 -15 -169 -93 -230 -161zM50 27c44 186 49 425 5 610c95 40 205 56 321 57c164 1 389 -24 395 -232c3 -122 -62 -197 -160 -232
c22 -24 52 -44 86 -60c42 -19 90 -34 141 -43c-1 -44 -78 -137 -211 -134c-168 0 -232 104 -283 223l-3 1c-4 -68 -11 -133 -21 -194c-25 -10 -74 -21 -147 -21c-49 0 -100 13 -123 25zM345 338c89 -10 162 23 164 115c3 94 -81 131 -173 102c6 -76 9 -141 9 -217z" />
    <glyph glyph-name="rcaron" unicode="&#x159;" horiz-adv-x="584" 
d="M328 717c-60 68 -167 146 -229 161c7 37 55 90 98 99c69 -36 124 -99 131 -114c8 15 63 78 132 114c43 -9 91 -62 98 -99c-62 -15 -169 -93 -230 -161zM394 34c-39 -18 -76 -33 -151 -34c-54 -1 -129 7 -166 33c18 99 22 210 15 321c-6 91 -20 183 -42 267
c39 39 148 67 213 64c16 -10 44 -39 54 -55c25 40 67 65 127 67c61 1 108 -15 149 -37c5 -54 -30 -156 -105 -202c-30 23 -82 16 -105 -10c9 -53 20 -172 11 -414z" />
    <glyph glyph-name="Sacute" unicode="&#x15a;" horiz-adv-x="752" 
d="M216 811c26 13 108 69 135 113c58 10 148 6 201 -18c-21 -62 -92 -122 -127 -135c-111 -22 -191 10 -209 40zM356 458c82 -33 165 -26 242 -57c68 -27 121 -88 113 -208c-4 -58 -40 -114 -89 -145c-66 -41 -157 -49 -234 -50c-101 0 -264 -6 -324 97
c-17 30 -25 67 -23 110c32 32 72 49 128 52c54 2 105 -11 134 -48c-18 -60 37 -88 91 -74c32 8 57 30 57 66c0 69 -84 64 -164 77c-61 11 -121 29 -164 57c-58 39 -85 107 -78 175c16 159 172 193 306 193c97 0 196 -10 260 -62c48 -39 63 -80 70 -113
c-32 -35 -85 -53 -138 -53c-41 -1 -83 9 -114 31c7 56 -38 83 -88 68c-25 -7 -39 -32 -39 -56c1 -33 26 -50 54 -60z" />
    <glyph glyph-name="sacute" unicode="&#x15b;" horiz-adv-x="752" 
d="M356 458c82 -33 165 -26 242 -57c68 -27 121 -88 113 -208c-4 -58 -40 -114 -89 -145c-66 -41 -157 -49 -234 -50c-101 0 -264 -6 -324 97c-17 30 -25 67 -23 110c32 32 72 49 128 52c54 2 105 -11 134 -48c-18 -60 37 -88 91 -74c32 8 57 30 57 66c0 69 -84 64 -164 77
c-61 11 -121 29 -164 57c-58 39 -85 107 -78 175c16 159 172 193 306 193c97 0 196 -10 260 -62c48 -39 63 -80 70 -113c-32 -35 -85 -53 -138 -53c-41 -1 -83 9 -114 31c7 56 -38 83 -88 68c-25 -7 -39 -32 -39 -56c1 -33 26 -50 54 -60zM215 809c26 13 108 69 135 113
c58 10 148 6 201 -18c-21 -62 -92 -122 -127 -135c-111 -22 -191 10 -209 40z" />
    <glyph glyph-name="Scedilla" unicode="&#x15e;" horiz-adv-x="757" 
d="M253 -137c-39 4 -45 35 -44 60c16 6 58 40 93 76c-90 3 -189 20 -233 96c-17 30 -25 67 -23 110c32 32 72 49 128 52c54 2 105 -11 134 -48c-18 -60 37 -88 91 -74c32 8 57 30 57 66c0 69 -84 64 -164 77c-61 11 -121 29 -164 57c-58 39 -85 107 -78 175
c16 159 172 193 306 193c97 0 196 -10 260 -62c48 -39 63 -80 70 -113c-32 -35 -85 -53 -138 -53c-41 -1 -83 9 -114 31c7 56 -38 83 -88 68c-25 -7 -39 -32 -39 -56c1 -33 26 -50 54 -60c82 -33 165 -26 242 -57c68 -27 121 -88 113 -208c-4 -58 -40 -114 -89 -145
s-112 -43 -172 -48c-7 -13 -17 -26 -31 -42c87 -25 125 -89 122 -176c-4 -75 -52 -136 -111 -155c-49 -16 -125 -15 -180 18c-34 27 -26 71 -8 92c73 -38 127 3 131 57c2 44 -43 101 -125 69z" />
    <glyph glyph-name="scedilla" unicode="&#x15f;" horiz-adv-x="752" 
d="M250 -137c-39 4 -45 35 -44 60c16 6 58 40 93 76c-90 3 -191 19 -235 96c-17 30 -25 67 -23 110c32 32 72 49 128 52c54 2 105 -11 134 -48c-18 -60 37 -88 91 -74c32 8 57 30 57 66c0 69 -84 64 -164 77c-61 11 -121 29 -164 57c-58 39 -85 107 -78 175
c16 159 172 193 306 193c97 0 196 -10 260 -62c48 -39 63 -80 70 -113c-32 -35 -85 -53 -138 -53c-41 -1 -83 9 -114 31c7 56 -38 83 -88 68c-25 -7 -39 -32 -39 -56c1 -33 26 -50 54 -60c82 -33 165 -26 242 -57c68 -27 121 -88 113 -208c-4 -58 -40 -114 -89 -145
c-49 -30 -110 -42 -170 -47c-7 -13 -17 -27 -31 -43c87 -25 125 -89 122 -176c-4 -75 -52 -136 -111 -155c-49 -16 -125 -15 -180 18c-34 27 -26 71 -8 92c73 -38 127 3 131 57c2 44 -43 101 -125 69z" />
    <glyph glyph-name="Scaron" unicode="&#x160;" horiz-adv-x="752" 
d="M356 458c82 -33 165 -26 242 -57c68 -27 121 -88 113 -208c-4 -58 -40 -114 -89 -145c-66 -41 -157 -49 -234 -50c-101 0 -264 -6 -324 97c-17 30 -25 67 -23 110c32 32 72 49 128 52c54 2 105 -11 134 -48c-18 -60 37 -88 91 -74c32 8 57 30 57 66c0 69 -84 64 -164 77
c-61 11 -121 29 -164 57c-58 39 -85 107 -78 175c16 159 172 193 306 193c97 0 196 -10 260 -62c48 -39 63 -80 70 -113c-32 -35 -85 -53 -138 -53c-41 -1 -83 9 -114 31c7 56 -38 83 -88 68c-25 -7 -39 -32 -39 -56c1 -33 26 -50 54 -60zM368 717c-60 68 -167 146 -229 161
c7 37 55 90 98 99c69 -36 124 -99 131 -114c8 15 63 78 132 114c43 -9 91 -62 98 -99c-62 -15 -169 -93 -230 -161z" />
    <glyph glyph-name="scaron" unicode="&#x161;" horiz-adv-x="752" 
d="M356 458c82 -33 165 -26 242 -57c68 -27 121 -88 113 -208c-4 -58 -40 -114 -89 -145c-66 -41 -157 -49 -234 -50c-101 0 -264 -6 -324 97c-17 30 -25 67 -23 110c32 32 72 49 128 52c54 2 105 -11 134 -48c-18 -60 37 -88 91 -74c32 8 57 30 57 66c0 69 -84 64 -164 77
c-61 11 -121 29 -164 57c-58 39 -85 107 -78 175c16 159 172 193 306 193c97 0 196 -10 260 -62c48 -39 63 -80 70 -113c-32 -35 -85 -53 -138 -53c-41 -1 -83 9 -114 31c7 56 -38 83 -88 68c-25 -7 -39 -32 -39 -56c1 -33 26 -50 54 -60zM368 717c-60 68 -167 146 -229 161
c7 37 55 90 98 99c69 -36 124 -99 131 -114c8 15 63 78 132 114c43 -9 91 -62 98 -99c-62 -15 -169 -93 -230 -161z" />
    <glyph glyph-name="Tcommaaccent" unicode="&#x162;" horiz-adv-x="700" 
d="M30 462c-24 25 -26 138 -2 191c45 23 202 39 329 40c108 0 239 -9 331 -37c8 -60 -14 -162 -35 -196c-24 8 -104 23 -185 29c-17 -140 11 -348 57 -455c-42 -18 -104 -35 -183 -35c-78 0 -109 4 -150 23c-13 163 -1 338 22 466c-73 -4 -143 -12 -184 -26zM348 -59
c-75 2 -106 -45 -108 -92c-3 -58 37 -91 84 -94c-6 -32 -33 -68 -74 -102c13 -29 72 -43 106 -31c36 29 77 84 94 146c22 81 4 171 -102 173z" />
    <glyph glyph-name="tcommaaccent" unicode="&#x163;" horiz-adv-x="616" 
d="M448 755c-5 -39 -11 -89 -12 -133c40 0 79 6 120 9c22 -29 20 -145 -8 -180c-30 5 -83 11 -122 11c-1 -36 -1 -73 3 -112c7 -83 38 -192 146 -199c1 -63 -57 -139 -135 -166c-70 -5 -158 13 -207 50c-116 88 -100 271 -94 424c-32 -1 -79 -3 -111 -8
c-26 35 -22 150 1 178c29 -2 86 -4 116 -5c3 0 12 125 13 136c25 9 84 21 159 20c52 0 107 -12 131 -25zM348 -59c106 -2 124 -92 102 -173c-17 -62 -58 -117 -94 -146c-34 -12 -93 2 -106 31c41 34 68 70 74 102c-47 3 -87 36 -84 94c2 47 33 94 108 92z" />
    <glyph glyph-name="Tcaron" unicode="&#x164;" horiz-adv-x="700" 
d="M30 462c-24 25 -26 138 -2 191c45 23 202 39 329 40c108 0 239 -9 331 -37c8 -60 -14 -162 -35 -196c-24 8 -104 23 -185 29c-17 -140 11 -348 57 -455c-42 -18 -104 -35 -183 -35c-78 0 -109 4 -150 23c-13 163 -1 338 22 466c-73 -4 -143 -12 -184 -26zM368 717
c-60 68 -167 146 -229 161c7 37 55 90 98 99c69 -36 124 -99 131 -114c8 15 63 78 132 114c43 -9 91 -62 98 -99c-62 -15 -169 -93 -230 -161z" />
    <glyph glyph-name="tcaron" unicode="&#x165;" horiz-adv-x="860" 
d="M732 873c111 -2 134 -94 108 -185c-18 -66 -61 -125 -100 -155c-36 -13 -98 1 -113 33c44 36 73 74 79 108c-50 4 -92 39 -89 101c2 50 35 100 115 98zM448 755c-5 -39 -11 -89 -12 -133c40 0 79 6 120 9c22 -29 20 -145 -8 -180c-30 5 -83 11 -122 11
c-1 -36 -1 -73 3 -112c7 -83 38 -192 146 -199c1 -63 -57 -139 -135 -166c-70 -5 -158 13 -207 50c-116 88 -100 271 -94 424c-32 -1 -79 -3 -111 -8c-26 35 -22 150 1 178c29 -2 86 -4 116 -5c3 0 12 125 13 136c25 9 84 21 159 20c52 0 107 -12 131 -25z" />
    <glyph glyph-name="Umacron" unicode="&#x16a;" horiz-adv-x="845" 
d="M775 657c16 -112 32 -283 1 -414c-34 -147 -120 -229 -272 -241c-64 -5 -96 -5 -160 0c-155 12 -237 92 -272 241c-31 131 -21 302 -5 414c59 58 259 39 294 5c-7 -97 -18 -224 -13 -331c2 -47 -7 -193 72 -194c77 -1 69 147 71 194c5 107 -7 234 -15 331
c36 34 240 53 299 -5zM171 772c-29 40 -26 116 -2 161c40 0 83 -2 124 -3c32 -1 234 -1 267 0c41 1 83 2 123 3c31 -45 25 -120 -2 -161c-36 6 -91 6 -136 7c-33 1 -218 2 -250 1c-42 -2 -90 -3 -124 -8z" />
    <glyph glyph-name="umacron" unicode="&#x16b;" horiz-adv-x="814" 
d="M69 296c2 136 1 266 -19 365c25 13 68 30 120 30c78 0 137 -26 163 -35c11 -44 9 -107 10 -166c1 -86 -2 -173 4 -256c3 -49 22 -90 77 -91c25 0 49 5 57 8c-7 149 -24 377 -2 503c92 46 194 54 285 7c-22 -76 -23 -198 -26 -319c-2 -111 8 -225 21 -313
c-73 -18 -208 -33 -357 -30c-120 2 -199 10 -264 62c-55 45 -70 126 -69 235zM159 772c-29 40 -26 116 -2 161c40 0 83 -2 124 -3c32 -1 234 -1 267 0c41 1 83 2 123 3c31 -45 25 -120 -2 -161c-36 6 -91 6 -136 7c-33 1 -218 2 -250 1c-42 -2 -90 -3 -124 -8z" />
    <glyph glyph-name="Uring" unicode="&#x16e;" horiz-adv-x="845" 
d="M481 861c0 51 -31 66 -57 66c-25 0 -54 -15 -54 -66c0 -53 34 -65 54 -65c25 -1 57 12 57 65zM266 861c2 94 82 131 158 131c77 0 160 -36 160 -131c0 -94 -78 -131 -160 -131c-78 1 -156 37 -158 131zM776 657c-59 58 -263 39 -299 5c8 -97 19 -224 14 -331
c-2 -47 6 -195 -71 -194c-79 1 -70 147 -72 194c-5 107 5 234 12 331c-35 34 -235 53 -294 -5c-16 -112 -26 -283 5 -414c35 -149 117 -229 272 -241c64 -5 98 -5 162 0c152 12 238 94 272 241c31 131 15 302 -1 414z" />
    <glyph glyph-name="uring" unicode="&#x16f;" horiz-adv-x="814" 
d="M466 861c0 51 -31 66 -57 66c-25 0 -54 -15 -54 -66c0 -53 34 -65 54 -65c25 -1 57 12 57 65zM251 861c2 94 82 131 158 131c77 0 160 -36 160 -131c0 -94 -78 -131 -160 -131c-78 1 -156 37 -158 131zM69 296c-1 -109 14 -190 69 -235c65 -52 144 -60 264 -62
c149 -3 284 12 357 30c-13 88 -23 202 -21 313c3 121 4 243 26 319c-91 47 -193 39 -285 -7c-22 -126 -5 -354 2 -503c-8 -3 -32 -8 -57 -8c-55 1 -74 42 -77 91c-6 83 -3 170 -4 256c-1 59 1 122 -10 166c-26 9 -85 35 -163 35c-52 0 -95 -17 -120 -30
c20 -99 21 -229 19 -365z" />
    <glyph glyph-name="Uhungarumlaut" unicode="&#x170;" horiz-adv-x="845" 
d="M776 657c-59 58 -263 39 -299 5c8 -97 19 -224 14 -331c-2 -47 6 -195 -71 -194c-79 1 -70 147 -72 194c-5 107 5 234 12 331c-35 34 -235 53 -294 -5c-16 -112 -26 -283 5 -414c35 -149 117 -229 272 -241c64 -5 98 -5 162 0c152 12 238 94 272 241
c31 131 15 302 -1 414zM96 809c26 13 108 69 135 113c58 10 148 6 201 -18c-21 -62 -92 -122 -127 -135c-111 -22 -191 10 -209 40zM440 809c26 13 108 69 135 113c58 10 148 6 201 -18c-21 -62 -92 -122 -127 -135c-111 -22 -191 10 -209 40z" />
    <glyph glyph-name="uhungarumlaut" unicode="&#x171;" horiz-adv-x="814" 
d="M69 296c-1 -109 14 -190 69 -235c65 -52 144 -60 264 -62c149 -3 284 12 357 30c-13 88 -23 202 -21 313c3 121 4 243 26 319c-91 47 -193 39 -285 -7c-22 -126 -5 -354 2 -503c-8 -3 -32 -8 -57 -8c-55 1 -74 42 -77 91c-6 83 -3 170 -4 256c-1 59 1 122 -10 166
c-26 9 -85 35 -163 35c-52 0 -95 -17 -120 -30c20 -99 21 -229 19 -365zM85 809c26 13 108 69 135 113c58 10 148 6 201 -18c-21 -62 -92 -122 -127 -135c-111 -22 -191 10 -209 40zM429 809c26 13 108 69 135 113c58 10 148 6 201 -18c-21 -62 -92 -122 -127 -135
c-111 -22 -191 10 -209 40z" />
    <glyph glyph-name="Uogonek" unicode="&#x172;" horiz-adv-x="845" 
d="M775 657c16 -112 32 -283 1 -414c-33 -143 -115 -225 -259 -240c-36 -30 -34 -74 -24 -96c14 -33 71 -61 137 -15c30 -30 24 -111 -23 -154c-56 -33 -131 -35 -180 -18c-59 19 -107 79 -111 154c-2 47 7 91 30 127c-1 0 -1 1 -2 1c-155 12 -237 92 -272 241
c-31 131 -21 302 -5 414c59 58 259 39 294 5c-7 -97 -18 -224 -13 -331c2 -47 -7 -193 72 -194c77 -1 69 147 71 194c5 107 -7 234 -15 331c36 34 240 53 299 -5z" />
    <glyph glyph-name="uogonek" unicode="&#x173;" horiz-adv-x="814" 
d="M69 296c2 136 1 266 -19 365c25 13 68 30 120 30c78 0 137 -26 163 -35c11 -44 9 -107 10 -166c1 -86 -2 -173 4 -256c3 -49 22 -90 77 -91c25 0 49 5 57 8c-7 149 -24 377 -2 503c92 46 194 54 285 7c-22 -76 -23 -198 -26 -319c-2 -111 8 -225 21 -313
c-82 5 -129 -75 -108 -124c14 -33 71 -61 137 -15c30 -30 24 -111 -23 -154c-56 -33 -131 -35 -180 -18c-59 19 -107 79 -111 154c-2 47 7 91 30 128c-33 -1 -67 -1 -102 -1c-120 2 -199 10 -264 62c-55 45 -70 126 -69 235z" />
    <glyph glyph-name="Ydieresis" unicode="&#x178;" horiz-adv-x="726" 
d="M212 947c76 0 106 -42 106 -94s-34 -95 -106 -95c-73 0 -106 43 -106 95s30 94 106 94zM516 947c76 0 106 -42 106 -94s-34 -95 -106 -95c-73 0 -106 43 -106 95s29 94 106 94zM252 673c41 -63 74 -183 99 -283h8c24 83 66 216 119 282c33 15 96 22 143 18
c53 -5 94 -25 115 -49c-131 -196 -203 -347 -225 -450c4 -50 12 -115 20 -165c-44 -19 -109 -26 -178 -26c-68 0 -134 7 -179 26c8 52 13 120 17 170c-52 146 -118 288 -201 450c28 31 75 42 134 45c23 1 75 2 128 -18z" />
    <glyph glyph-name="Zacute" unicode="&#x179;" horiz-adv-x="699" 
d="M221 832c26 13 108 69 135 113c58 10 148 6 201 -18c-21 -62 -92 -122 -127 -135c-111 -22 -191 10 -209 40zM66 22c-22 48 -20 122 -1 168c80 66 240 240 276 324c-25 6 -140 5 -231 -35c-34 34 -49 134 -25 185c96 20 166 27 254 27c104 1 146 -2 264 -25
c19 -48 14 -123 9 -155c-35 -84 -122 -229 -244 -327c57 -2 184 7 268 43c18 -28 17 -184 -10 -221c-124 -4 -180 -11 -278 -8c-143 3 -248 13 -282 24z" />
    <glyph glyph-name="zacute" unicode="&#x17a;" horiz-adv-x="699" 
d="M210 809c26 13 108 69 135 113c58 10 148 6 201 -18c-21 -62 -92 -122 -127 -135c-111 -22 -191 10 -209 40zM66 22c-22 48 -20 122 -1 168c80 66 240 240 276 324c-25 6 -140 5 -231 -35c-34 34 -49 134 -25 185c96 20 166 27 254 27c104 1 146 -2 264 -25
c19 -48 14 -123 9 -155c-35 -84 -122 -229 -244 -327c57 -2 184 7 268 43c18 -28 17 -184 -10 -221c-124 -4 -180 -11 -278 -8c-143 3 -248 13 -282 24z" />
    <glyph glyph-name="Zdotaccent" unicode="&#x17b;" horiz-adv-x="699" 
d="M359 928c76 0 106 -42 106 -94s-34 -95 -106 -95c-73 0 -106 43 -106 95s29 94 106 94zM66 22c-22 48 -20 122 -1 168c80 66 240 240 276 324c-25 6 -148 5 -239 -35c-34 34 -49 134 -25 185c96 20 174 27 262 27c104 1 156 -7 274 -30c19 -48 14 -122 9 -154
c-35 -84 -126 -225 -248 -323c57 -2 178 7 262 43c18 -28 17 -184 -10 -221c-124 -4 -180 -11 -278 -8c-143 3 -248 13 -282 24z" />
    <glyph glyph-name="zdotaccent" unicode="&#x17c;" horiz-adv-x="699" 
d="M359 928c76 0 106 -42 106 -94s-34 -95 -106 -95c-73 0 -106 43 -106 95s29 94 106 94zM66 22c-22 48 -20 122 -1 168c80 66 240 240 276 324c-25 6 -148 5 -239 -35c-34 34 -49 134 -25 185c96 20 174 27 262 27c104 1 156 -7 274 -30c19 -48 14 -122 9 -154
c-35 -84 -126 -225 -248 -323c57 -2 178 7 262 43c18 -28 17 -184 -10 -221c-124 -4 -180 -11 -278 -8c-143 3 -248 13 -282 24z" />
    <glyph glyph-name="Zcaron" unicode="&#x17d;" horiz-adv-x="699" 
d="M66 22c-22 48 -20 122 -1 168c80 66 240 240 276 324c-25 6 -148 5 -239 -35c-34 34 -49 134 -25 185c96 20 174 27 262 27c104 1 156 -7 274 -30c19 -48 14 -122 9 -154c-35 -84 -126 -225 -248 -323c57 -2 178 7 262 43c18 -28 17 -184 -10 -221
c-124 -4 -180 -11 -278 -8c-143 3 -248 13 -282 24zM368 717c-60 68 -167 146 -229 161c7 37 55 90 98 99c69 -36 124 -99 131 -114c8 15 63 78 132 114c43 -9 91 -62 98 -99c-62 -15 -169 -93 -230 -161z" />
    <glyph glyph-name="zcaron" unicode="&#x17e;" horiz-adv-x="699" 
d="M66 22c-22 48 -20 122 -1 168c80 66 240 240 276 324c-25 6 -148 5 -239 -35c-34 34 -49 134 -25 185c96 20 174 27 262 27c104 1 156 -7 274 -30c19 -48 14 -122 9 -154c-35 -84 -126 -225 -248 -323c57 -2 178 7 262 43c18 -28 17 -184 -10 -221
c-124 -4 -180 -11 -278 -8c-143 3 -248 13 -282 24zM368 717c-60 68 -167 146 -229 161c7 37 55 90 98 99c69 -36 124 -99 131 -114c8 15 63 78 132 114c43 -9 91 -62 98 -99c-62 -15 -169 -93 -230 -161z" />
    <glyph glyph-name="florin" unicode="&#x192;" horiz-adv-x="614" 
d="M0 -82c93 54 133 303 131 446c-32 0 -79 -3 -112 -8c-26 35 -24 150 -2 178c29 -2 86 -4 116 -4c-2 120 -5 209 54 274c56 62 176 71 254 69c125 -4 188 -28 206 -33c10 -65 -13 -135 -61 -179c-16 14 -51 33 -88 34c-21 0 -42 -2 -60 -20c-25 -25 -23 -85 -21 -146
c52 -6 100 3 153 7c22 -28 23 -145 -4 -180c-36 6 -105 14 -143 10c-1 -138 16 -506 -180 -569c-90 7 -209 31 -243 121z" />
    <glyph glyph-name="circumflex" unicode="&#x2c6;" horiz-adv-x="559" 
d="M279 990c61 -68 168 -146 230 -161c-7 -37 -55 -90 -98 -99c-69 36 -124 99 -132 114c-7 -15 -62 -78 -131 -114c-43 9 -91 62 -98 99c62 15 169 93 229 161z" />
    <glyph glyph-name="caron" unicode="&#x2c7;" horiz-adv-x="559" 
d="M279 717c-60 68 -167 146 -229 161c7 37 55 90 98 99c69 -36 124 -99 131 -114c8 15 63 78 132 114c43 -9 91 -62 98 -99c-62 -15 -169 -93 -230 -161z" />
    <glyph glyph-name="breve" unicode="&#x2d8;" horiz-adv-x="580" 
d="M530 868c-139 -152 -382 -125 -480 0c7 38 58 94 102 103c65 -74 179 -82 276 0c44 -9 95 -65 102 -103z" />
    <glyph glyph-name="dotaccent" unicode="&#x2d9;" horiz-adv-x="312" 
d="M156 928c76 0 106 -42 106 -94s-34 -95 -106 -95c-73 0 -106 43 -106 95s29 94 106 94z" />
    <glyph glyph-name="ogonek" unicode="&#x2db;" horiz-adv-x="434" 
d="M294 25c-79 -25 -78 -90 -66 -118c14 -33 71 -61 137 -15c30 -30 24 -111 -23 -154c-56 -33 -131 -35 -180 -18c-59 19 -107 79 -111 154c-5 107 49 200 198 219c45 -6 49 -41 45 -68z" />
    <glyph glyph-name="tilde" unicode="&#x2dc;" horiz-adv-x="555" 
d="M51 878c14 28 63 74 131 66c54 -7 89 -27 142 -23c29 1 58 10 85 30c20 4 77 -4 96 -54c-5 -51 -46 -117 -122 -130c-63 -12 -97 20 -178 24c-28 1 -59 -2 -99 -15c-50 20 -57 77 -55 102z" />
    <glyph glyph-name="hungarumlaut" unicode="&#x2dd;" horiz-adv-x="780" 
d="M50 809c26 13 108 69 135 113c58 10 148 6 201 -18c-21 -62 -92 -122 -127 -135c-111 -22 -191 10 -209 40zM394 809c26 13 108 69 135 113c58 10 148 6 201 -18c-21 -62 -92 -122 -127 -135c-111 -22 -191 10 -209 40z" />
    <glyph glyph-name="afii10023" unicode="&#x401;" horiz-adv-x="656" 
d="M192 919c77 0 106 -42 106 -94s-33 -94 -106 -94c-72 0 -106 42 -106 94s30 94 106 94zM482 924c76 0 106 -42 106 -94s-33 -94 -106 -94c-72 0 -106 42 -106 94s30 94 106 94zM50 25c44 186 44 452 0 638c237 63 470 34 561 18c10 -80 -1 -132 -11 -171
c-73 15 -192 27 -265 20c1 -23 2 -71 3 -94c53 -6 106 -2 159 2c21 -28 27 -135 0 -171c-56 8 -109 10 -159 5c0 -35 0 -79 -1 -95c48 -15 227 11 269 29c24 -57 25 -154 7 -188c-134 -12 -314 -37 -563 7z" />
    <glyph glyph-name="afii10051" unicode="&#x402;" horiz-adv-x="917" 
d="M837 234c64 -210 -83 -442 -304 -491c-85 11 -120 89 -116 139c68 59 125 162 131 262c4 65 -14 167 -99 162c-28 -1 -46 -6 -59 -13c-4 -104 1 -191 6 -264c-127 -56 -277 -30 -320 5c4 123 17 340 8 496c-34 -1 -87 -3 -107 -5c-32 42 -31 163 -4 199
c95 -14 420 -9 515 -1c22 -28 33 -151 -2 -198c-22 3 -66 5 -105 7c1 -44 2 -82 3 -105c53 9 115 18 186 13c151 -12 234 -96 267 -206z" />
    <glyph glyph-name="afii10052" unicode="&#x403;" horiz-adv-x="621" 
d="M52 26c66 -35 250 -35 316 0c-29 145 -37 318 -26 484c35 8 163 -3 219 -35c34 27 68 123 49 195c-65 16 -188 22 -274 21c-83 -2 -210 -1 -286 -40c44 -176 42 -439 2 -625zM180 809c26 13 108 69 135 113c58 10 148 6 201 -18c-21 -62 -92 -122 -127 -135
c-111 -22 -191 10 -209 40z" />
    <glyph glyph-name="afii10053" unicode="&#x404;" horiz-adv-x="807" 
d="M177 56c-60 39 -125 115 -126 294c-2 189 88 281 160 313c65 29 146 36 208 36c97 -1 196 -14 260 -65c49 -39 72 -101 71 -162c-32 -34 -84 -52 -137 -52c-42 -1 -83 9 -115 30c16 64 -4 125 -78 123c-69 -2 -86 -69 -89 -159c44 -2 106 1 147 2c14 -21 19 -100 -2 -128
c-24 4 -102 9 -149 2c0 -73 13 -158 91 -157c61 1 94 64 76 121c30 37 81 50 135 47c56 -2 96 -19 127 -51c7 -77 -31 -139 -74 -175c-70 -58 -173 -74 -275 -74c-79 1 -163 10 -230 55z" />
    <glyph glyph-name="afii10054" unicode="&#x405;" horiz-adv-x="752" 
d="M356 458c82 -33 165 -26 242 -57c68 -27 121 -88 113 -208c-4 -58 -40 -114 -89 -145c-66 -41 -157 -49 -234 -50c-101 0 -264 -6 -324 97c-17 30 -25 67 -23 110c32 32 72 49 128 52c54 2 105 -11 134 -48c-18 -60 37 -88 91 -74c32 8 57 30 57 66c0 69 -84 64 -164 77
c-61 11 -121 29 -164 57c-58 39 -85 107 -78 175c16 159 172 193 306 193c97 0 196 -10 260 -62c48 -39 63 -80 70 -113c-32 -35 -85 -53 -138 -53c-41 -1 -83 9 -114 31c7 56 -38 83 -88 68c-25 -7 -39 -32 -39 -56c1 -33 26 -50 54 -60z" />
    <glyph glyph-name="afii10055" unicode="&#x406;" horiz-adv-x="458" 
d="M408 659c-17 -104 -23 -191 -24 -296c-2 -118 5 -223 24 -337c-45 -19 -110 -26 -178 -26c-69 0 -135 7 -180 26c18 114 25 219 24 337c-1 105 -7 192 -24 296c53 23 115 34 180 34s126 -11 178 -34z" />
    <glyph glyph-name="afii10056" unicode="&#x407;" horiz-adv-x="456" 
d="M408 654c-13 -81 -21 -214 -22 -293c-2 -101 5 -234 22 -339c-45 -19 -110 -26 -178 -26c-69 0 -135 7 -180 26c16 103 24 232 22 331c-1 81 -9 217 -22 301c53 23 115 34 180 34s126 -11 178 -34zM76 947c76 0 106 -42 106 -94s-34 -95 -106 -95c-73 0 -106 43 -106 95
s30 94 106 94zM380 947c76 0 106 -42 106 -94s-34 -95 -106 -95c-73 0 -106 43 -106 95s29 94 106 94z" />
    <glyph glyph-name="afii10057" unicode="&#x408;" horiz-adv-x="553" 
d="M153 670c33 21 103 38 162 39c56 1 146 -12 179 -30c8 -101 32 -493 -29 -645c-62 -161 -251 -247 -397 -242c-58 41 -64 124 -52 161c94 47 125 118 146 208c24 105 5 346 -9 509z" />
    <glyph glyph-name="afii10058" unicode="&#x409;" horiz-adv-x="1170" 
d="M-20 78c99 77 123 178 130 299c4 82 -4 172 -28 269c101 34 212 44 317 44c116 1 212 -5 304 -36c-6 -47 -11 -97 -15 -147c51 10 110 14 169 8c149 -15 264 -94 262 -254c-2 -97 -45 -186 -143 -226c-72 -29 -155 -34 -235 -34c-23 0 -172 7 -278 43
c-18 153 -22 318 -11 473c-53 -1 -61 -1 -115 0c20 -300 -26 -409 -61 -488c-40 -23 -93 -29 -149 -29c-99 0 -145 40 -147 78zM681 382c-1 -44 -1 -90 1 -135c1 -34 3 -67 6 -98c16 -6 59 -6 80 -4c80 5 102 68 102 123c-1 33 -6 64 -35 89c-23 20 -56 27 -90 28
c-21 1 -43 0 -64 -3z" />
    <glyph glyph-name="afii10059" unicode="&#x40a;" horiz-adv-x="1192" 
d="M50 24c44 186 44 447 0 632c78 42 186 44 267 13c13 -78 21 -163 24 -250c40 -4 96 -3 130 2c-3 70 -7 145 -16 233c70 49 177 44 259 6c3 -45 4 -94 6 -161c51 9 110 13 169 7c149 -15 264 -94 262 -254c-2 -97 -45 -181 -143 -221c-72 -29 -155 -33 -235 -32
c-94 0 -216 19 -305 54c2 76 6 144 6 211c-35 7 -95 5 -133 0c-3 -85 -11 -169 -24 -245c-24 -9 -71 -21 -144 -20c-49 0 -100 12 -123 25zM721 374c0 -70 -1 -154 -3 -232c15 -5 60 -9 82 -6c80 11 102 68 102 123c0 32 -8 65 -36 89c-38 33 -95 31 -145 26z" />
    <glyph glyph-name="afii10060" unicode="&#x40b;" horiz-adv-x="917" 
d="M844 38c-58 -58 -284 -40 -320 -5c6 71 54 284 -79 277c-28 -2 -46 -7 -59 -14c1 -70 1 -190 7 -264c-128 -55 -278 -30 -321 5c11 143 17 423 8 496c-34 -1 -87 -2 -107 -4c-32 42 -31 163 -4 198c95 -14 420 -8 515 0c22 -29 33 -152 -1 -199c-23 4 -67 6 -105 7
c0 -44 1 -81 2 -105c53 10 115 19 186 13c236 -18 306 -212 278 -405z" />
    <glyph glyph-name="afii10061" unicode="&#x40c;" horiz-adv-x="793" 
d="M50 27c23 -13 74 -25 123 -25c73 -1 122 11 147 20c13 77 21 163 24 249c60 -122 146 -268 301 -272c133 -2 187 84 188 128c-150 42 -238 146 -275 239c87 65 176 190 199 297c-53 36 -207 42 -293 0c7 -103 -34 -210 -119 -278c-2 99 -10 198 -25 287
c-82 31 -192 29 -270 -13c44 -185 44 -447 0 -632zM277 809c26 13 108 69 135 113c58 10 148 6 201 -18c-21 -62 -92 -122 -127 -135c-111 -22 -191 10 -209 40z" />
    <glyph glyph-name="afii10062" unicode="&#x40e;" horiz-adv-x="779" 
d="M50 643c38 24 69 43 134 46c47 2 102 -3 153 -28c10 -88 24 -178 74 -273c44 88 66 177 73 272c16 11 43 31 122 31s95 -21 123 -35c-31 -233 -95 -407 -301 -657c-168 -21 -252 63 -270 105c57 30 98 62 132 99c-82 69 -193 205 -240 440zM344 825c40 -10 87 -10 127 0
c-28 69 -15 143 83 144c100 0 120 -106 77 -175c-42 -66 -155 -71 -223 -71c-69 0 -182 5 -224 71c-43 69 -23 175 77 175c99 -1 111 -75 83 -144z" />
    <glyph glyph-name="afii10145" unicode="&#x40f;" horiz-adv-x="805" 
d="M50 665c23 13 74 25 123 25c73 1 110 -11 134 -20c32 -124 29 -405 16 -537c52 1 106 1 159 0c-12 132 -16 413 16 537c24 9 61 21 134 20c50 0 100 -12 123 -25c-32 -163 -39 -456 -8 -639c-65 -22 -147 -27 -235 -28c-1 -38 0 -87 4 -133c-54 -16 -177 -14 -222 0
c-6 42 -6 90 -3 133c-88 2 -169 7 -233 28c32 183 24 476 -8 639z" />
    <glyph glyph-name="afii10017" unicode="&#x410;" horiz-adv-x="819" 
d="M500 114c-65 -3 -133 0 -198 5c-11 -40 -18 -63 -32 -101c-45 -16 -96 -21 -143 -17c-53 4 -99 21 -127 49c111 204 165 446 192 623c114 27 361 23 450 -15c28 -177 45 -371 177 -608c-21 -33 -69 -46 -128 -50c-59 -3 -122 4 -156 23c-14 25 -24 54 -35 91zM337 279
c35 -3 97 -2 128 2c-18 103 -28 167 -37 258c-12 0 -41 -2 -49 -1c-10 -92 -24 -170 -42 -259z" />
    <glyph glyph-name="afii10018" unicode="&#x411;" horiz-adv-x="776" 
d="M315 437c86 17 194 20 284 -16c80 -32 139 -95 136 -202c-3 -97 -56 -152 -142 -187c-73 -29 -156 -33 -236 -33c-94 1 -205 20 -294 55c3 108 8 198 5 293c-4 94 -6 150 -18 273c77 55 197 77 317 80c107 2 239 -10 317 -30c-7 -63 -27 -139 -52 -193
c-68 42 -182 74 -322 52c2 -18 5 -41 5 -92zM316 313c0 -70 -1 -90 -3 -169c17 -5 52 -7 72 -6c81 6 102 49 101 99c-1 67 -55 84 -106 84c-29 0 -48 -3 -64 -8z" />
    <glyph glyph-name="afii10019" unicode="&#x412;" horiz-adv-x="772" 
d="M50 48c8 105 10 386 0 597c68 32 194 55 314 56c112 1 312 -8 323 -159c5 -76 -53 -136 -125 -146c99 -16 172 -85 169 -189c-7 -193 -255 -207 -399 -205c-109 1 -216 19 -282 46zM440 512c-13 64 -78 69 -130 57c4 -52 3 -107 5 -160c79 -4 136 19 125 103zM316 302
c-2 -57 0 -108 -3 -167c62 -4 147 -5 144 88c-2 85 -74 79 -141 79z" />
    <glyph glyph-name="afii10020" unicode="&#x413;" horiz-adv-x="621" 
d="M52 26c40 186 42 449 -2 625c76 39 203 38 286 40c86 1 209 -5 274 -21c19 -72 -15 -168 -49 -195c-56 32 -184 43 -219 35c-11 -166 -3 -339 26 -484c-66 -35 -250 -35 -316 0z" />
    <glyph glyph-name="afii10021" unicode="&#x414;" horiz-adv-x="848" 
d="M85 132c71 146 91 315 41 514c182 61 455 61 637 0c-22 -167 -32 -360 -14 -514h89c-3 -60 -13 -149 -2 -266c-54 -15 -177 -13 -223 1c-6 44 -6 88 -2 132h-372c0 -62 4 -67 -5 -127c-46 -17 -187 -9 -224 -1c8 87 14 154 3 261h72zM508 132c-17 126 -18 265 -3 384
c-54 -1 -82 2 -136 3c12 -190 -14 -307 -44 -387h183z" />
    <glyph glyph-name="afii10022" unicode="&#x415;" horiz-adv-x="651" 
d="M50 25c44 186 44 452 0 638c237 63 468 37 559 20c18 -41 3 -127 -11 -173c-74 15 -190 27 -263 20c1 -23 2 -71 3 -94c53 -6 106 -2 159 2c21 -28 27 -135 0 -171c-56 8 -109 10 -159 5c0 -35 0 -79 -1 -95c48 -15 219 11 262 29c23 -57 29 -154 11 -188
c-130 -15 -307 -40 -560 7z" />
    <glyph glyph-name="afii10024" unicode="&#x416;" horiz-adv-x="1248" 
d="M478 24c20 84 31 184 33 285h-2c-62 -123 -163 -352 -431 -305c-70 12 -110 74 -118 97c146 54 275 161 317 261c-93 61 -191 187 -216 298c53 36 223 43 308 0c-6 -111 42 -228 142 -294c-2 103 -13 205 -33 291c42 22 94 33 146 34c52 -1 104 -12 146 -34
c-20 -86 -31 -188 -33 -291c100 66 149 183 142 294c86 43 255 36 308 0c-24 -111 -123 -237 -216 -298c43 -100 171 -207 317 -261c-7 -23 -48 -85 -117 -97c-268 -47 -369 182 -432 305h-2c2 -101 13 -201 33 -285c-23 -12 -73 -25 -123 -25h-46c-49 0 -100 13 -123 25z
" />
    <glyph glyph-name="afii10025" unicode="&#x417;" horiz-adv-x="766" 
d="M394 296c-24 7 -50 5 -72 -2c-21 27 -16 99 -2 120c23 -3 46 -3 66 5c34 14 54 43 49 96c-6 42 -38 64 -78 62c-67 -2 -68 -77 -57 -123c-32 -22 -73 -32 -114 -31c-53 0 -106 18 -137 53c-1 61 22 126 70 165c64 52 164 63 260 63c111 0 297 -13 303 -159
c3 -77 -56 -138 -129 -148c108 -18 171 -86 162 -204c-12 -170 -193 -194 -324 -195c-194 -1 -368 41 -349 253c32 32 72 49 128 52c53 2 105 -11 134 -48c-19 -65 16 -139 92 -120c32 8 50 39 52 75c1 37 -17 75 -54 86z" />
    <glyph glyph-name="afii10026" unicode="&#x418;" horiz-adv-x="843" 
d="M50 25c44 186 44 447 0 633c78 41 188 43 270 12c16 -97 24 -205 25 -314c77 102 148 211 179 314c24 10 73 21 146 21c50 -1 100 -13 123 -26c-44 -185 -44 -446 0 -632c-77 -42 -188 -44 -269 -12c-17 96 -25 204 -26 312c-76 -102 -142 -210 -178 -313
c-54 -17 -84 -20 -147 -20c-49 0 -100 12 -123 25z" />
    <glyph glyph-name="afii10027" unicode="&#x419;" horiz-adv-x="843" 
d="M50 25c23 -13 74 -25 123 -25c63 0 93 3 147 20c36 103 102 211 178 313c1 -108 9 -216 26 -312c81 -32 192 -30 269 12c-44 186 -44 447 0 632c-23 13 -73 25 -123 26c-73 0 -122 -11 -146 -21c-31 -103 -102 -212 -179 -314c-1 109 -9 217 -25 314
c-82 31 -192 29 -270 -12c44 -186 44 -447 0 -633zM364 825c40 -10 87 -10 127 0c-28 69 -15 143 83 144c100 0 120 -106 77 -175c-42 -66 -155 -71 -223 -71c-69 0 -182 5 -224 71c-43 69 -23 175 77 175c99 -1 111 -75 83 -144z" />
    <glyph glyph-name="afii10028" unicode="&#x41a;" horiz-adv-x="793" 
d="M50 27c44 185 44 447 0 632c78 42 188 44 270 13c15 -89 23 -188 25 -287c85 68 126 175 119 278c86 42 240 36 293 0c-23 -107 -112 -232 -199 -297c37 -93 125 -197 275 -239c-1 -44 -55 -130 -188 -128c-155 4 -241 150 -301 272c-3 -86 -11 -172 -24 -249
c-25 -9 -74 -21 -147 -20c-49 0 -100 12 -123 25z" />
    <glyph glyph-name="afii10029" unicode="&#x41b;" horiz-adv-x="778" 
d="M-20 78c99 76 123 177 130 299c4 81 -4 171 -28 269c101 34 212 43 317 44c116 0 232 -13 324 -44c-26 -208 -36 -458 5 -621c-23 -13 -73 -25 -123 -25c-73 -1 -114 11 -139 20c-19 146 -26 330 -14 496c-53 -1 -61 -1 -115 0c20 -300 -26 -409 -61 -487
c-40 -24 -93 -30 -149 -30c-99 1 -145 41 -147 79z" />
    <glyph glyph-name="afii10030" unicode="&#x41c;" horiz-adv-x="991" 
d="M50 25c44 186 44 447 0 633c78 41 224 43 305 12c24 -26 99 -161 140 -278c42 117 117 252 140 278c82 31 228 29 306 -12c-44 -186 -45 -447 0 -633c-23 -13 -74 -25 -123 -25c-73 -1 -92 11 -116 20c-11 63 -15 104 -18 158c-4 62 -2 132 5 214
c-36 -46 -87 -160 -117 -242c-23 -12 -49 -19 -75 -19c-28 0 -55 6 -78 19c-30 82 -81 196 -117 242c7 -82 9 -152 5 -214c-3 -54 -7 -95 -18 -158c-24 -9 -43 -21 -116 -20c-49 0 -100 12 -123 25z" />
    <glyph glyph-name="afii10031" unicode="&#x41d;" horiz-adv-x="810" 
d="M50 24c44 186 44 447 0 633c78 41 186 44 267 12c13 -78 21 -163 24 -250c42 -4 94 -2 128 3c3 86 11 170 24 247c81 32 189 29 267 -12c-44 -186 -45 -447 0 -633c-23 -12 -74 -25 -123 -25c-73 0 -120 11 -144 20c-13 76 -21 159 -24 244c-35 8 -89 6 -128 1
c-3 -85 -11 -169 -24 -245c-24 -9 -71 -20 -144 -20c-49 0 -100 13 -123 25z" />
    <glyph glyph-name="afii10032" unicode="&#x41e;" horiz-adv-x="822" 
d="M411 691c133 0 215 -31 272 -90c68 -72 88 -167 89 -256c-1 -89 -21 -184 -89 -256c-57 -59 -139 -90 -272 -90s-216 31 -272 90c-69 72 -88 167 -89 256c1 89 20 184 89 256c56 59 139 90 272 90zM411 127c54 -1 71 74 73 213c2 127 -11 222 -73 223
c-62 -1 -75 -96 -73 -223c2 -139 19 -214 73 -213z" />
    <glyph glyph-name="afii10033" unicode="&#x41f;" horiz-adv-x="799" 
d="M50 25c32 163 37 443 5 626c91 31 216 41 345 41c128 0 253 -10 344 -41c-31 -183 -27 -463 5 -626c-23 -13 -73 -25 -123 -25c-73 -1 -110 11 -134 20c-35 125 -29 365 -13 496c-53 -1 -107 -1 -159 0c16 -131 22 -371 -13 -496c-24 -9 -61 -21 -134 -20
c-49 0 -100 12 -123 25z" />
    <glyph glyph-name="afii10034" unicode="&#x420;" horiz-adv-x="795" 
d="M327 183c-3 -37 -1 -113 4 -154c-81 -38 -210 -43 -281 6c22 174 19 428 7 602c89 34 221 53 315 54c80 0 162 -4 235 -33c99 -39 144 -124 147 -221c5 -160 -109 -247 -258 -262c-58 -5 -118 -1 -169 8zM326 316c28 -3 60 -5 88 0c63 11 91 55 91 114
c0 55 -24 120 -104 126c-21 1 -67 1 -82 -6c4 -78 6 -165 7 -234z" />
    <glyph glyph-name="afii10035" unicode="&#x421;" 
d="M465 359c8 30 28 202 -37 208c-86 7 -86 -159 -79 -214c9 -67 40 -127 115 -157c80 -33 186 -20 261 19c22 -6 49 -25 47 -70c-67 -92 -199 -138 -323 -142c-212 -7 -400 112 -398 347c1 89 20 184 89 256c59 62 146 89 290 90c100 0 206 -17 274 -75
c44 -37 72 -92 72 -171c1 -57 0 -51 -1 -98c-18 -19 -57 -49 -148 -49c-97 0 -146 35 -162 56z" />
    <glyph glyph-name="afii10036" unicode="&#x422;" horiz-adv-x="700" 
d="M30 462c-24 25 -26 138 -2 191c45 23 202 39 329 40c108 0 239 -9 331 -37c8 -60 -14 -162 -35 -196c-24 8 -104 23 -185 29c-17 -140 11 -348 57 -455c-42 -18 -104 -35 -183 -35c-78 0 -109 4 -150 23c-13 163 -1 338 22 466c-73 -4 -143 -12 -184 -26z" />
    <glyph glyph-name="afii10037" unicode="&#x423;" horiz-adv-x="779" 
d="M50 645c38 24 69 40 134 44c47 2 102 -3 153 -28c10 -88 25 -180 75 -275c44 88 65 179 72 274c16 11 49 31 122 31c67 -2 100 -23 125 -35c-31 -233 -99 -418 -305 -668c-168 -21 -252 63 -270 105c57 30 100 71 134 108c-82 69 -193 209 -240 444z" />
    <glyph glyph-name="afii10038" unicode="&#x424;" horiz-adv-x="1233" 
d="M768 -31c-37 -19 -97 -29 -157 -28c-56 0 -112 10 -146 28c6 27 12 59 16 94c-202 2 -435 58 -430 324c3 147 104 256 242 288c64 14 138 16 187 13c-5 30 -9 57 -15 80c42 23 99 34 151 34s109 -11 152 -34c-6 -23 -11 -49 -15 -78c49 2 122 0 186 -14
c138 -31 240 -140 243 -288c4 -265 -228 -321 -431 -324c5 -35 10 -68 17 -95zM492 557c-18 2 -36 2 -53 -1c-78 -12 -102 -94 -105 -164c-1 -43 1 -96 26 -137c27 -43 82 -64 133 -60c7 116 7 247 -1 362zM739 199c52 -4 107 16 134 60c25 41 27 91 26 135
c-3 70 -27 151 -106 163c-16 3 -34 3 -53 2c-7 -114 -8 -245 -1 -360z" />
    <glyph glyph-name="afii10039" unicode="&#x425;" horiz-adv-x="789" 
d="M394 439c61 67 82 166 82 226c63 28 183 42 262 -7c-11 -111 -31 -208 -154 -305c143 -83 193 -272 205 -323c-39 -20 -99 -30 -159 -33c-57 -2 -113 2 -150 21c-6 73 -38 178 -86 224c-47 -46 -80 -151 -86 -224c-36 -19 -92 -23 -149 -21c-60 3 -121 13 -159 33
c12 51 54 240 197 323c-124 97 -143 194 -154 305c78 49 206 35 270 7c0 -60 21 -159 81 -226z" />
    <glyph glyph-name="afii10040" unicode="&#x426;" horiz-adv-x="836" 
d="M50 667c23 12 74 25 123 25c73 0 110 -11 134 -20c32 -125 29 -406 16 -537c26 1 53 1 80 1c26 0 53 0 79 -1c-12 131 -16 412 16 537c24 9 61 20 134 20c50 0 100 -13 123 -25c-27 -138 -36 -360 -20 -535h91c-3 -60 -13 -149 -2 -266c-54 -15 -178 -13 -223 1
c-6 44 -6 88 -2 132h-250v1c-109 0 -213 2 -291 28c32 183 24 476 -8 639z" />
    <glyph glyph-name="afii10041" unicode="&#x427;" horiz-adv-x="833" 
d="M1 674c73 27 240 17 282 -1c-10 -81 -18 -238 34 -305c28 -35 65 -56 132 -52c6 127 -2 264 -12 355c83 25 213 26 298 0c-21 -172 -33 -439 0 -636c-73 -49 -222 -44 -302 -6c6 40 12 110 13 162c-84 -11 -224 -14 -319 46c-139 88 -128 293 -126 437z" />
    <glyph glyph-name="afii10042" unicode="&#x428;" horiz-adv-x="1196" 
d="M1139 41c-126 -42 -333 -41 -540 -41c-208 0 -416 -2 -541 41c32 182 24 463 -8 626c23 12 74 25 123 25c73 0 110 -11 134 -20c35 -125 32 -406 16 -537c50 1 99 1 148 1c15 191 3 395 -14 521c86 46 196 46 282 0c-17 -126 -29 -330 -14 -521c49 0 99 0 148 -1
c-16 131 -19 412 16 537c25 9 61 20 134 20c50 0 100 -13 123 -25c-31 -163 -39 -444 -7 -626z" />
    <glyph glyph-name="afii10043" unicode="&#x429;" horiz-adv-x="1230" 
d="M50 667c23 12 74 25 123 25c73 0 110 -11 134 -20c35 -125 32 -406 16 -537h148c15 192 3 396 -14 522c86 46 196 46 282 0c-17 -126 -29 -330 -14 -521h69c26 0 53 0 79 -1c-16 131 -19 412 16 537c25 9 61 20 134 20c50 0 100 -13 123 -25c-26 -138 -36 -360 -19 -535
h93c-3 -60 -13 -149 -2 -266c-55 -15 -178 -13 -223 1c-6 44 -6 88 -3 132h-103c-98 -4 -197 1 -291 1c-202 1 -430 14 -540 28c32 183 24 476 -8 639z" />
    <glyph glyph-name="afii10044" unicode="&#x42a;" horiz-adv-x="888" 
d="M420 499c51 10 110 14 168 8c150 -15 264 -94 259 -254c-2 -97 -47 -182 -145 -221c-73 -29 -156 -33 -236 -33c-94 1 -220 20 -309 54c6 80 15 166 16 255c1 70 0 146 -7 206c-47 -5 -99 -16 -131 -34c-34 27 -68 118 -49 190c56 14 142 23 227 23c75 -1 150 -7 203 -32
c3 -45 3 -95 4 -162zM419 375c-1 -70 -3 -154 -6 -233c15 -6 61 -7 82 -5c80 5 103 68 103 123c0 33 -5 64 -33 89c-37 32 -96 31 -146 26z" />
    <glyph glyph-name="afii10045" unicode="&#x42b;" horiz-adv-x="1160" 
d="M317 499c51 10 110 14 169 8c150 -15 266 -94 266 -254c0 -97 -42 -182 -139 -221c-72 -29 -155 -33 -235 -33c-94 1 -223 20 -313 54c10 192 13 399 -15 602c69 49 176 44 258 6c4 -45 6 -95 9 -162zM320 373c1 -70 2 -152 1 -231c15 -6 60 -7 81 -5
c80 5 103 70 101 123c-2 66 -39 110 -110 114c-24 1 -50 1 -73 -1zM1110 24c-23 -12 -73 -25 -123 -25c-73 0 -120 11 -144 20c-30 196 -32 454 -3 650c82 32 190 29 268 -12c-40 -182 -38 -451 2 -633z" />
    <glyph glyph-name="afii10046" unicode="&#x42c;" horiz-adv-x="786" 
d="M315 499c51 10 110 14 168 8c150 -15 265 -94 262 -254c-1 -97 -44 -182 -142 -221c-73 -29 -155 -33 -235 -33c-94 1 -216 20 -305 54c3 108 8 197 5 290c-4 94 -6 190 -18 312c70 49 176 47 258 9c3 -45 4 -98 7 -165zM315 375c1 -70 0 -154 -2 -233c15 -6 57 -7 78 -5
c80 5 107 74 106 123c-1 59 -32 104 -94 115c-28 5 -60 3 -88 0z" />
    <glyph glyph-name="afii10047" unicode="&#x42d;" horiz-adv-x="797" 
d="M620 56c-67 -45 -151 -54 -230 -55c-102 0 -205 16 -275 74c-43 36 -81 98 -74 175c31 32 71 49 127 51c54 3 105 -10 135 -47c-18 -57 15 -120 76 -121c78 -1 91 84 91 157c-47 7 -125 2 -149 -2c-21 28 -16 107 -2 128c41 -1 103 -4 147 -2c-3 90 -20 157 -89 159
c-74 2 -94 -59 -78 -123c-32 -21 -73 -31 -115 -30c-53 0 -105 18 -137 52c-1 61 22 123 71 162c64 51 163 64 260 65c62 0 143 -7 208 -36c72 -32 162 -124 160 -313c-1 -179 -66 -255 -126 -294z" />
    <glyph glyph-name="afii10048" unicode="&#x42e;" horiz-adv-x="1126" 
d="M715 691c133 0 216 -30 272 -89c69 -72 88 -167 89 -256c-1 -90 -20 -185 -89 -256c-56 -60 -139 -90 -272 -90c-132 0 -207 29 -264 89c-48 51 -60 114 -70 178c-14 1 -30 1 -45 1c-2 -100 -8 -188 -16 -248c-24 -9 -71 -21 -144 -21c-49 1 -100 13 -124 26
c18 93 25 210 23 326c-2 110 -3 218 -25 306c76 42 190 44 272 12c8 -82 12 -168 14 -252c14 -1 30 -1 44 -1c9 67 33 136 84 186c53 51 119 89 251 89zM715 128c55 -1 71 74 73 212c2 128 -11 223 -73 224c-61 -1 -75 -96 -73 -224c3 -138 19 -213 73 -212z" />
    <glyph glyph-name="afii10049" unicode="&#x42f;" horiz-adv-x="818" 
d="M768 25c-23 -13 -74 -25 -123 -25c-73 -1 -122 11 -147 20c-10 61 -17 127 -21 195l-3 -2c-67 -120 -157 -212 -306 -215c-133 -3 -187 83 -188 127c51 9 99 23 141 43c34 16 64 36 86 60c-98 35 -163 110 -160 232c6 208 231 233 395 232c116 -1 226 -17 321 -57
c-44 -186 -39 -424 5 -610zM473 336c0 75 3 141 8 217c-91 28 -175 -8 -172 -103c2 -91 75 -124 164 -114z" />
    <glyph glyph-name="afii10065" unicode="&#x430;" horiz-adv-x="825" 
d="M449 277c-38 7 -83 5 -112 -13c-24 -13 -38 -37 -34 -73c5 -36 29 -57 62 -59s70 11 94 32c-8 34 -13 68 -10 113zM334 0c-150 -4 -322 32 -289 256c16 106 115 146 207 154c72 5 151 -6 205 -16c-4 45 19 176 -48 176c-54 0 -58 -44 -52 -87c-55 -19 -103 -27 -145 -25
c-68 2 -117 29 -143 58c3 30 20 78 58 115c66 64 179 69 263 69c143 -1 229 -28 286 -91c47 -51 62 -111 64 -176c4 -111 -31 -228 13 -334c5 -11 17 -34 22 -49c-8 -22 -38 -50 -124 -50c-39 4 -88 10 -139 68c-61 -52 -127 -67 -178 -68z" />
    <glyph glyph-name="afii10066" unicode="&#x431;" horiz-adv-x="832" 
d="M775 276c-15 -198 -158 -277 -345 -277c-272 2 -377 192 -379 446c-2 213 89 426 325 428c100 1 112 -20 194 -25c26 -2 58 3 86 26c52 0 98 -18 134 -63c12 -84 -50 -164 -132 -179c-100 -18 -179 18 -276 25c-59 5 -104 -15 -132 -50c-25 -31 -37 -75 -33 -125
c47 58 129 81 211 84c180 4 363 -77 347 -290zM429 437c-59 0 -68 -44 -70 -146c-2 -93 8 -163 70 -164c54 0 68 54 70 156c2 94 -5 153 -70 154z" />
    <glyph glyph-name="afii10067" unicode="&#x432;" horiz-adv-x="772" 
d="M50 46c8 105 10 386 0 597c68 32 194 55 314 56c112 1 312 -8 323 -159c5 -76 -53 -136 -125 -146c99 -16 172 -85 169 -189c-7 -193 -255 -207 -399 -205c-109 1 -216 19 -282 46zM440 510c-4 27 -17 44 -37 53c-26 13 -65 11 -93 4c4 -52 3 -107 5 -160
c79 -4 136 19 125 103zM316 300c-2 -57 0 -108 -3 -167c62 -4 147 -5 144 88c-2 85 -74 79 -141 79z" />
    <glyph glyph-name="afii10068" unicode="&#x433;" horiz-adv-x="621" 
d="M52 26c40 186 42 449 -2 625c76 39 203 38 286 40c86 1 209 -5 274 -21c19 -72 -15 -168 -49 -195c-56 32 -184 43 -219 35c-11 -166 -3 -339 26 -484c-66 -35 -250 -35 -316 0z" />
    <glyph glyph-name="afii10069" unicode="&#x434;" horiz-adv-x="848" 
d="M85 132c71 146 91 315 41 514c182 61 455 61 637 0c-22 -167 -32 -360 -14 -514h89c-3 -60 -13 -149 -2 -266c-54 -15 -177 -13 -223 1c-6 44 -6 88 -2 132h-372c0 -62 4 -67 -5 -127c-46 -17 -187 -9 -224 -1c8 87 14 154 3 261h72zM508 132c-17 126 -18 265 -3 384
c-54 -1 -82 2 -136 3c12 -190 -14 -307 -44 -387h183z" />
    <glyph glyph-name="afii10070" unicode="&#x435;" 
d="M356 373c37 -7 81 2 107 29c17 19 25 49 23 79c-3 43 -26 85 -72 84c-75 0 -64 -152 -58 -192zM776 448c1 -94 -49 -153 -118 -184c-39 -18 -84 -27 -130 -28c-52 -1 -105 4 -150 26c3 -42 43 -90 89 -105c90 -30 165 -6 235 15c22 -6 49 -30 47 -75
c-76 -72 -204 -98 -308 -98c-210 1 -392 115 -390 348c1 90 20 185 89 256c59 62 146 90 290 90c100 1 206 -16 274 -74c44 -37 72 -92 72 -171z" />
    <glyph glyph-name="afii10072" unicode="&#x436;" horiz-adv-x="1248" 
d="M478 24c20 84 31 184 33 285h-2c-62 -123 -163 -352 -431 -305c-70 12 -110 74 -118 97c146 54 275 161 317 261c-93 61 -191 187 -216 298c53 36 223 43 308 0c-6 -111 42 -228 142 -294c-2 103 -13 205 -33 291c42 22 94 33 146 34c52 -1 104 -12 146 -34
c-20 -86 -31 -188 -33 -291c100 66 149 183 142 294c86 43 255 36 308 0c-24 -111 -123 -237 -216 -298c43 -100 171 -207 317 -261c-7 -23 -48 -85 -117 -97c-268 -47 -369 182 -432 305h-2c2 -101 13 -201 33 -285c-23 -12 -73 -25 -123 -25h-46c-49 0 -100 13 -123 25z
" />
    <glyph glyph-name="afii10073" unicode="&#x437;" horiz-adv-x="766" 
d="M394 294c-24 7 -50 5 -72 -2c-21 27 -16 99 -2 120c23 -3 46 -3 66 5c34 14 54 43 49 96c-5 42 -38 64 -78 62c-67 -2 -68 -77 -57 -123c-32 -22 -73 -32 -114 -31c-53 0 -106 18 -137 53c-1 61 22 126 70 165c64 52 164 62 260 62c111 0 297 -12 303 -158
c3 -77 -56 -138 -129 -148c108 -18 171 -86 162 -204c-12 -170 -193 -194 -324 -195c-194 -1 -368 41 -349 253c32 32 72 49 128 52c53 2 105 -11 134 -48c-19 -65 16 -139 92 -120c32 8 50 39 52 75c1 37 -17 75 -54 86z" />
    <glyph glyph-name="afii10074" unicode="&#x438;" horiz-adv-x="843" 
d="M50 25c44 186 44 447 0 633c78 41 188 43 270 12c16 -97 24 -205 25 -314c77 102 148 211 179 314v0c24 10 73 21 146 21c50 -1 100 -13 123 -26c-44 -185 -44 -446 0 -632c-77 -42 -188 -44 -269 -12c-17 96 -25 204 -26 312c-76 -102 -142 -210 -178 -313
c-20 -8 -38 -12 -56 -14c-24 -4 -54 -6 -91 -6c-49 0 -100 12 -123 25z" />
    <glyph glyph-name="afii10075" unicode="&#x439;" horiz-adv-x="843" 
d="M50 25c23 -13 74 -25 123 -25c37 0 67 2 91 6c18 2 36 6 56 14c36 103 102 211 178 313c1 -108 9 -216 26 -312c81 -32 192 -30 269 12c-44 186 -44 447 0 632c-23 13 -73 25 -123 26c-73 0 -122 -11 -146 -21v0c-31 -103 -102 -212 -179 -314c-1 109 -9 217 -25 314
c-82 31 -192 29 -270 -12c44 -186 44 -447 0 -633zM364 825c40 -10 87 -10 127 0c-28 69 -15 143 83 144c100 0 120 -106 77 -175c-42 -66 -153 -71 -223 -71c-71 0 -182 5 -224 71c-43 69 -23 175 77 175c99 -1 111 -75 83 -144z" />
    <glyph glyph-name="afii10076" unicode="&#x43a;" horiz-adv-x="793" 
d="M50 27c44 185 44 447 0 632c78 42 188 44 270 13c15 -89 23 -188 25 -287c85 68 126 175 119 278c86 42 240 36 293 0c-23 -107 -112 -232 -199 -297c37 -93 125 -197 275 -239c-1 -44 -55 -130 -188 -128c-155 4 -241 150 -301 272c-3 -86 -11 -172 -24 -249
c-25 -9 -74 -21 -147 -20c-49 0 -100 12 -123 25z" />
    <glyph glyph-name="afii10077" unicode="&#x43b;" horiz-adv-x="778" 
d="M-20 78c99 76 123 177 130 299c4 81 -4 171 -28 269c101 34 212 43 317 44c116 0 232 -13 324 -44c-26 -208 -36 -458 5 -621c-23 -13 -73 -25 -123 -25c-73 -1 -114 11 -139 20c-19 146 -26 330 -14 496c-53 -1 -61 -1 -115 0c20 -300 -26 -409 -61 -487
c-40 -24 -93 -30 -149 -30c-99 1 -145 41 -147 79z" />
    <glyph glyph-name="afii10078" unicode="&#x43c;" horiz-adv-x="991" 
d="M50 25c44 186 44 447 0 633c78 41 224 43 305 12c24 -26 99 -161 140 -278c42 117 117 252 140 278c82 31 228 29 306 -12c-44 -186 -45 -447 0 -633c-23 -13 -74 -25 -123 -25c-73 -1 -92 11 -116 20c-11 63 -15 104 -18 158c-4 62 -2 132 5 214
c-36 -46 -87 -160 -117 -242c-23 -12 -49 -19 -75 -19c-28 0 -55 6 -78 19c-30 82 -81 196 -117 242c7 -82 9 -152 5 -214c-3 -54 -7 -95 -18 -158c-24 -9 -43 -21 -116 -20c-49 0 -100 12 -123 25z" />
    <glyph glyph-name="afii10079" unicode="&#x43d;" horiz-adv-x="810" 
d="M50 24c44 186 44 447 0 633c78 41 186 44 267 12c13 -78 21 -163 24 -250c42 -4 94 -2 128 3c3 86 11 170 24 247c81 32 189 29 267 -12c-44 -186 -45 -447 0 -633c-23 -12 -74 -25 -123 -25c-73 0 -120 11 -144 20c-13 76 -21 159 -24 244c-35 8 -89 6 -128 1
c-3 -85 -11 -169 -24 -245c-24 -9 -71 -20 -144 -20c-49 0 -100 13 -123 25z" />
    <glyph glyph-name="afii10080" unicode="&#x43e;" horiz-adv-x="822" 
d="M411 691c133 0 215 -31 272 -90c68 -72 88 -167 89 -256c-1 -89 -21 -184 -89 -256c-57 -59 -139 -90 -272 -90s-216 31 -272 90c-69 72 -88 167 -89 256c1 89 20 184 89 256c56 59 139 90 272 90zM411 127c54 -1 71 74 73 213c2 127 -11 222 -73 223
c-62 -1 -75 -96 -73 -223c2 -139 19 -214 73 -213z" />
    <glyph glyph-name="afii10081" unicode="&#x43f;" horiz-adv-x="799" 
d="M50 25c32 163 37 443 5 626c91 31 216 41 345 41c128 0 253 -10 344 -41c-31 -183 -27 -463 5 -626c-23 -13 -73 -25 -123 -25c-73 -1 -110 11 -134 20c-35 125 -29 365 -13 496c-53 -1 -107 -1 -159 0c16 -131 22 -371 -13 -496c-24 -9 -61 -21 -134 -20
c-49 0 -100 12 -123 25z" />
    <glyph glyph-name="afii10082" unicode="&#x440;" horiz-adv-x="862" 
d="M728 591c68 -71 88 -159 89 -247c-1 -88 -21 -181 -89 -252c-90 -92 -245 -101 -366 -79c-2 -52 -1 -124 8 -162c-79 -38 -247 -43 -320 6c47 244 38 565 2 784c76 39 236 51 330 52c121 0 250 -9 346 -102zM367 138c63 -7 123 0 148 67c20 52 27 152 12 231
c-12 63 -38 117 -114 122c-21 1 -41 -2 -56 -8c10 -108 14 -251 10 -412z" />
    <glyph glyph-name="afii10083" unicode="&#x441;" 
d="M465 359c8 30 28 202 -37 208c-86 7 -86 -159 -79 -214c9 -67 40 -127 115 -157c80 -33 186 -20 261 19c22 -6 49 -25 47 -70c-67 -92 -199 -138 -323 -142c-212 -7 -400 112 -398 347c1 89 20 184 89 256c59 62 146 89 290 90c100 0 206 -17 274 -75
c44 -37 72 -92 72 -171c1 -57 0 -51 -1 -98c-18 -19 -57 -49 -148 -49c-97 0 -146 35 -162 56z" />
    <glyph glyph-name="afii10084" unicode="&#x442;" horiz-adv-x="700" 
d="M30 460c-24 25 -26 138 -2 191c45 23 202 39 329 40c108 0 239 -9 331 -37c8 -60 -14 -162 -35 -196c-24 8 -104 23 -185 29c-17 -140 11 -346 57 -453c-42 -18 -104 -35 -183 -35c-78 0 -109 4 -150 23c-13 163 -1 336 22 464c-73 -4 -143 -12 -184 -26z" />
    <glyph glyph-name="afii10085" unicode="&#x443;" horiz-adv-x="758" 
d="M-10 643c29 23 81 43 146 46c47 2 107 -3 158 -28c8 -89 51 -241 115 -369c45 106 74 225 86 368c17 11 46 31 125 31c73 0 117 -23 138 -35c-48 -233 -161 -550 -394 -836c-169 -21 -266 63 -280 105c86 35 150 91 201 156c-106 123 -203 278 -295 562z" />
    <glyph glyph-name="afii10086" unicode="&#x444;" horiz-adv-x="1233" 
d="M466 -155c9 38 16 93 22 157c-122 -3 -251 6 -347 98c-121 124 -119 374 0 498c84 87 223 102 339 87c-4 33 -9 50 -14 73c42 23 99 34 151 34s109 -11 151 -34c-5 -23 -10 -40 -14 -73c116 15 255 0 338 -87c120 -124 122 -374 0 -498c-95 -92 -224 -101 -346 -98
c6 -64 13 -119 22 -157c-35 -19 -93 -29 -151 -29s-116 10 -151 29zM496 134c5 138 4 294 -5 424c-59 4 -114 -7 -137 -70c-20 -53 -26 -152 -12 -231c12 -68 38 -122 114 -126c14 -1 28 0 40 3zM742 558c-8 -130 -9 -286 -4 -424c12 -3 26 -4 40 -3c76 4 102 58 114 126
c14 79 8 178 -12 231c-24 63 -78 74 -138 70z" />
    <glyph glyph-name="afii10087" unicode="&#x445;" horiz-adv-x="809" 
d="M404 439c61 67 82 166 82 226c63 28 183 42 262 -7c-11 -111 -31 -208 -154 -305c143 -83 193 -272 205 -323c-39 -20 -99 -30 -159 -33c-57 -2 -113 2 -150 21c-6 73 -38 178 -86 224c-47 -46 -80 -151 -86 -224c-36 -19 -92 -23 -149 -21c-60 3 -121 13 -159 33
c12 51 54 240 197 323c-124 97 -143 194 -154 305c78 49 206 35 270 7c0 -60 21 -159 81 -226z" />
    <glyph glyph-name="afii10088" unicode="&#x446;" horiz-adv-x="836" 
d="M50 667c23 12 74 25 123 25c73 0 110 -11 134 -20c32 -125 29 -406 16 -537c26 1 53 1 80 1c26 0 53 0 79 -1c-12 131 -16 412 16 537c24 9 61 20 134 20c50 0 100 -13 123 -25c-27 -138 -36 -360 -20 -535h91c-3 -60 -13 -149 -2 -266c-54 -15 -178 -13 -223 1
c-6 44 -6 88 -2 132h-250v1c-109 0 -213 2 -291 28c32 183 24 476 -8 639z" />
    <glyph glyph-name="afii10089" unicode="&#x447;" horiz-adv-x="806" 
d="M22 674c73 27 240 17 282 -1c-10 -81 -18 -238 34 -305c28 -35 65 -56 132 -52c6 127 -2 264 -12 355c83 25 213 26 298 0c-21 -172 -33 -439 0 -636c-73 -49 -222 -44 -302 -6c6 40 12 110 13 162c-84 -11 -224 -14 -319 46c-139 88 -128 293 -126 437z" />
    <glyph glyph-name="afii10090" unicode="&#x448;" horiz-adv-x="1196" 
d="M1139 41c-126 -42 -333 -41 -540 -41c-208 0 -416 -2 -541 41c32 182 24 463 -8 626c23 12 74 25 123 25c73 0 110 -11 134 -20c35 -125 32 -406 16 -537c50 1 99 1 148 1c15 191 3 395 -14 521c86 46 196 46 282 0c-17 -126 -29 -330 -14 -521c49 0 99 0 148 -1
c-16 131 -19 412 16 537c25 9 61 20 134 20c50 0 100 -13 123 -25c-31 -163 -39 -444 -7 -626z" />
    <glyph glyph-name="afii10091" unicode="&#x449;" horiz-adv-x="1230" 
d="M50 667c23 12 74 25 123 25c73 0 110 -11 134 -20c35 -125 32 -406 16 -537h148c15 192 3 396 -14 522c86 46 196 46 282 0c-17 -126 -29 -330 -14 -521h69c26 0 53 0 79 -1c-16 131 -19 412 16 537c25 9 61 20 134 20c50 0 100 -13 123 -25c-26 -138 -36 -360 -19 -535
h93c-3 -60 -13 -149 -2 -266c-55 -15 -178 -13 -223 1c-6 44 -6 88 -3 132h-103c-98 -4 -197 1 -291 1c-202 1 -430 14 -540 28c32 183 24 476 -8 639z" />
    <glyph glyph-name="afii10092" unicode="&#x44a;" horiz-adv-x="888" 
d="M420 499c51 10 110 14 168 8c150 -15 264 -94 259 -254c-2 -97 -47 -182 -145 -221c-73 -29 -156 -33 -236 -33c-94 1 -220 20 -309 54c6 80 15 166 16 255c1 70 0 146 -7 206c-47 -5 -99 -16 -131 -34c-34 27 -68 118 -49 190c56 14 142 23 227 23c75 -1 150 -7 203 -32
c3 -45 3 -95 4 -162zM419 375c-1 -70 -3 -154 -6 -233c15 -6 61 -7 82 -5c80 5 103 68 103 123c0 33 -5 64 -33 89c-37 32 -96 31 -146 26z" />
    <glyph glyph-name="afii10093" unicode="&#x44b;" horiz-adv-x="1160" 
d="M317 499c51 10 110 14 169 8c150 -15 266 -94 266 -254c0 -97 -42 -182 -139 -221c-72 -29 -155 -33 -235 -33c-94 1 -223 20 -313 54c10 192 13 399 -15 602c69 49 176 44 258 6c4 -45 6 -95 9 -162zM320 373c1 -70 2 -152 1 -231c15 -6 60 -7 81 -5
c80 5 103 70 101 123c-2 66 -39 110 -110 114c-24 1 -50 1 -73 -1zM1110 24c-23 -12 -73 -25 -123 -25c-73 0 -120 11 -144 20c-30 196 -32 454 -3 650c82 32 190 29 268 -12c-40 -182 -38 -451 2 -633z" />
    <glyph glyph-name="afii10094" unicode="&#x44c;" horiz-adv-x="786" 
d="M315 499c51 10 110 14 168 8c150 -15 265 -94 262 -254c-1 -97 -44 -182 -142 -221c-73 -29 -155 -33 -235 -33c-94 1 -216 20 -305 54c3 108 8 197 5 290c-4 94 -6 190 -18 312c70 49 176 47 258 9c3 -45 4 -98 7 -165zM315 375c1 -70 0 -154 -2 -233c15 -6 57 -7 78 -5
c80 5 107 74 106 123c-1 59 -32 104 -94 115c-28 5 -60 3 -88 0z" />
    <glyph glyph-name="afii10095" unicode="&#x44d;" horiz-adv-x="797" 
d="M620 56c-67 -45 -151 -54 -230 -55c-102 0 -205 16 -275 74c-43 36 -81 98 -74 175c31 32 71 49 127 51c54 3 105 -10 135 -47c-18 -57 15 -120 76 -121c78 -1 91 84 91 157c-47 7 -125 2 -149 -2c-21 28 -16 107 -2 128c41 -1 103 -4 147 -2c-3 90 -20 157 -89 159
c-74 2 -94 -59 -78 -123c-32 -21 -73 -31 -115 -30c-53 0 -105 18 -137 52c-1 61 22 123 71 162c64 51 163 64 260 65c62 0 143 -7 208 -36c72 -32 162 -124 160 -313c-1 -179 -66 -255 -126 -294z" />
    <glyph glyph-name="afii10096" unicode="&#x44e;" horiz-adv-x="1126" 
d="M715 691c133 0 216 -30 272 -89c69 -72 88 -167 89 -256c-1 -90 -20 -185 -89 -256c-56 -60 -139 -90 -272 -90c-132 0 -207 29 -264 89c-48 51 -60 114 -70 178c-14 1 -30 1 -45 1c-2 -100 -8 -188 -16 -248c-24 -9 -71 -21 -144 -21c-49 1 -100 13 -124 26
c18 93 25 210 23 326c-2 110 -3 218 -25 306c76 42 190 44 272 12c8 -82 12 -168 14 -252c14 -1 30 -1 44 -1c9 67 33 136 84 186c53 51 119 89 251 89zM715 128c55 -1 71 74 73 212c2 128 -11 223 -73 224c-61 -1 -75 -96 -73 -224c3 -138 19 -213 73 -212z" />
    <glyph glyph-name="afii10097" unicode="&#x44f;" horiz-adv-x="818" 
d="M768 25c-23 -13 -74 -25 -123 -25c-73 -1 -122 11 -147 20c-10 61 -17 127 -21 195l-3 -2c-67 -120 -157 -212 -306 -215c-133 -3 -187 83 -188 127c51 9 99 23 141 43c34 16 64 36 86 60c-98 35 -163 110 -160 232c6 208 231 233 395 232c116 -1 226 -17 321 -57
c-44 -186 -39 -424 5 -610zM473 336c0 75 3 141 8 217c-91 28 -175 -8 -172 -103c2 -91 75 -124 164 -114z" />
    <glyph glyph-name="afii10071" unicode="&#x451;" 
d="M356 373c37 -7 81 2 107 29c17 19 25 49 23 79c-3 43 -26 85 -72 84c-75 0 -64 -152 -58 -192zM776 448c1 -94 -49 -153 -118 -184c-39 -18 -84 -27 -130 -28c-52 -1 -105 4 -150 26c3 -42 43 -90 89 -105c90 -30 165 -6 235 15c22 -6 49 -30 47 -75
c-76 -72 -204 -98 -308 -98c-210 1 -392 115 -390 348c1 90 20 185 89 256c59 62 146 90 290 90c100 1 206 -16 274 -74c44 -37 72 -92 72 -171zM272 925c76 0 106 -42 106 -94s-34 -95 -106 -95c-73 0 -106 43 -106 95s30 94 106 94zM572 925c76 0 106 -42 106 -94
s-34 -95 -106 -95c-73 0 -106 43 -106 95s29 94 106 94z" />
    <glyph glyph-name="afii10099" unicode="&#x452;" horiz-adv-x="917" 
d="M837 234c64 -210 -83 -442 -304 -491c-85 11 -120 89 -116 139c68 59 125 162 131 262c4 65 -14 167 -99 162c-28 -1 -46 -6 -59 -13c-4 -104 1 -191 6 -264c-127 -56 -277 -30 -320 5c4 123 17 340 8 496c-34 -1 -87 -3 -107 -5c-32 42 -31 163 -4 199
c95 -14 420 -9 515 -1c22 -28 33 -151 -2 -198c-22 3 -66 5 -105 7c1 -44 2 -82 3 -105c53 9 115 18 186 13c151 -12 234 -96 267 -206z" />
    <glyph glyph-name="afii10100" unicode="&#x453;" horiz-adv-x="621" 
d="M191 809c26 13 108 69 135 113c58 10 148 6 201 -18c-21 -62 -92 -122 -127 -135c-111 -22 -191 10 -209 40zM52 26c66 -35 250 -35 316 0c-29 145 -37 318 -26 484c35 8 163 -3 219 -35c34 27 68 123 49 195c-65 16 -188 22 -274 21c-83 -2 -210 -1 -286 -40
c44 -176 42 -439 2 -625z" />
    <glyph glyph-name="afii10101" unicode="&#x454;" horiz-adv-x="807" 
d="M177 56c-60 39 -125 115 -126 294c-2 189 88 281 160 313c65 29 146 36 208 36c97 -1 196 -14 260 -65c49 -39 72 -101 71 -162c-32 -34 -84 -52 -137 -52c-42 -1 -83 9 -115 30c16 64 -4 125 -78 123c-69 -2 -86 -69 -89 -159c44 -2 106 1 147 2c14 -21 19 -100 -2 -128
c-24 4 -102 9 -149 2c0 -73 13 -158 91 -157c61 1 94 64 76 121c30 37 81 50 135 47c56 -2 96 -19 127 -51c7 -77 -31 -139 -74 -175c-70 -58 -173 -74 -275 -74c-79 1 -163 10 -230 55z" />
    <glyph glyph-name="afii10102" unicode="&#x455;" horiz-adv-x="752" 
d="M356 458c82 -33 165 -26 242 -57c68 -27 121 -88 113 -208c-4 -58 -40 -114 -89 -145c-66 -41 -157 -49 -234 -50c-101 0 -264 -6 -324 97c-17 30 -25 67 -23 110c32 32 72 49 128 52c54 2 105 -11 134 -48c-18 -60 37 -88 91 -74c32 8 57 30 57 66c0 69 -84 64 -164 77
c-61 11 -121 29 -164 57c-58 39 -85 107 -78 175c16 159 172 193 306 193c97 0 196 -10 260 -62c48 -39 63 -80 70 -113c-32 -35 -85 -53 -138 -53c-41 -1 -83 9 -114 31c7 56 -38 83 -88 68c-25 -7 -39 -32 -39 -56c1 -33 26 -50 54 -60z" />
    <glyph glyph-name="afii10103" unicode="&#x456;" horiz-adv-x="458" 
d="M229 994c103 0 144 -56 144 -127c0 -70 -46 -123 -144 -123c-99 0 -144 53 -144 123c0 71 40 127 144 127zM408 654c-13 -81 -21 -214 -22 -293c-2 -101 5 -234 22 -339c-45 -19 -110 -26 -178 -26c-69 0 -135 7 -180 26c16 103 24 232 22 331c-1 81 -9 217 -22 301
c53 23 115 34 180 34s126 -11 178 -34z" />
    <glyph glyph-name="afii10104" unicode="&#x457;" horiz-adv-x="456" 
d="M408 654c-13 -81 -21 -214 -22 -293c-2 -101 5 -234 22 -339c-45 -19 -110 -26 -178 -26c-69 0 -135 7 -180 26c16 103 24 232 22 331c-1 81 -9 217 -22 301c53 23 115 34 180 34s126 -11 178 -34zM76 947c76 0 106 -42 106 -94s-34 -95 -106 -95c-73 0 -106 43 -106 95
s30 94 106 94zM380 947c76 0 106 -42 106 -94s-34 -95 -106 -95c-73 0 -106 43 -106 95s29 94 106 94z" />
    <glyph glyph-name="afii10105" unicode="&#x458;" horiz-adv-x="587" 
d="M184 656c33 21 103 38 162 39c56 1 146 -12 179 -30c8 -101 32 -479 -29 -631c-62 -161 -251 -247 -397 -242c-58 41 -64 124 -52 161c94 47 125 118 146 208c24 105 5 332 -9 495zM353 994c103 0 144 -56 144 -127c0 -70 -46 -123 -144 -123c-99 0 -144 53 -144 123
c0 71 40 127 144 127z" />
    <glyph glyph-name="afii10106" unicode="&#x459;" horiz-adv-x="1170" 
d="M-20 78c99 77 123 178 130 299c4 82 -4 172 -28 269c101 34 212 44 317 44c116 1 212 -5 304 -36c-6 -47 -11 -97 -15 -147c51 10 110 14 169 8c149 -15 264 -94 262 -254c-2 -97 -45 -186 -143 -226c-72 -29 -155 -34 -235 -34c-23 0 -172 7 -278 43
c-18 153 -22 318 -11 473c-53 -1 -61 -1 -115 0c20 -300 -26 -409 -61 -488c-40 -23 -93 -29 -149 -29c-99 0 -145 40 -147 78zM681 382c-1 -44 -1 -90 1 -135c1 -34 3 -67 6 -98c16 -6 59 -6 80 -4c80 5 102 68 102 123c-1 33 -6 64 -35 89c-23 20 -56 27 -90 28
c-21 1 -43 0 -64 -3z" />
    <glyph glyph-name="afii10107" unicode="&#x45a;" horiz-adv-x="1192" 
d="M50 24c44 186 44 447 0 632c78 42 186 44 267 13c13 -78 21 -163 24 -250c40 -4 96 -3 130 2c-3 70 -7 145 -16 233c70 49 177 44 259 6c3 -45 4 -94 6 -161c51 9 110 13 169 7c149 -15 264 -94 262 -254c-2 -97 -45 -181 -143 -221c-72 -29 -155 -33 -235 -32
c-94 0 -216 19 -305 54c2 76 6 144 6 211c-35 7 -95 5 -133 0c-3 -85 -11 -169 -24 -245c-24 -9 -71 -21 -144 -20c-49 0 -100 12 -123 25zM721 374c0 -70 -1 -154 -3 -232c15 -5 60 -9 82 -6c80 11 102 68 102 123c0 32 -8 65 -36 89c-38 33 -95 31 -145 26z" />
    <glyph glyph-name="afii10108" unicode="&#x45b;" horiz-adv-x="917" 
d="M844 38c-58 -58 -284 -40 -320 -5c6 71 54 284 -79 277c-28 -2 -46 -7 -59 -14c1 -70 1 -190 7 -264c-128 -55 -278 -30 -321 5c11 143 17 423 8 496c-34 -1 -87 -2 -107 -4c-32 42 -31 163 -4 198c95 -14 420 -8 515 0c22 -29 33 -152 -1 -199c-23 4 -67 6 -105 7
c0 -44 1 -81 2 -105c53 10 115 19 186 13c236 -18 306 -212 278 -405z" />
    <glyph glyph-name="afii10109" unicode="&#x45c;" horiz-adv-x="793" 
d="M277 809c26 13 108 69 135 113c58 10 148 6 201 -18c-21 -62 -92 -122 -127 -135c-111 -22 -191 10 -209 40zM50 27c23 -13 74 -25 123 -25c73 -1 122 11 147 20c13 77 21 163 24 249c60 -122 146 -268 301 -272c133 -2 187 84 188 128c-150 42 -238 146 -275 239
c87 65 176 190 199 297c-53 36 -207 42 -293 0c7 -103 -34 -210 -119 -278c-2 99 -10 198 -25 287c-82 31 -192 29 -270 -13c44 -185 44 -447 0 -632z" />
    <glyph glyph-name="afii10110" unicode="&#x45e;" horiz-adv-x="758" 
d="M-10 643c29 23 81 43 146 46c47 2 107 -3 158 -28c8 -89 51 -241 115 -369c45 106 74 225 86 368c17 11 46 31 125 31c73 0 117 -23 138 -35c-48 -233 -161 -550 -394 -836c-169 -21 -266 63 -280 105c86 35 150 91 201 156c-106 123 -203 278 -295 562zM334 825
c40 -10 87 -10 127 0c-28 69 -15 143 83 144c100 0 120 -106 77 -175c-42 -66 -155 -71 -223 -71c-69 0 -182 5 -224 71c-43 69 -23 175 77 175c99 -1 111 -75 83 -144z" />
    <glyph glyph-name="afii10193" unicode="&#x45f;" horiz-adv-x="833" 
d="M50 665c23 13 74 25 123 25c73 1 110 -11 134 -20c32 -124 29 -405 16 -537c52 1 106 1 159 0c-12 132 -16 413 16 537c24 9 61 21 134 20c50 0 100 -12 123 -25c-32 -163 -39 -456 -8 -639c-65 -22 -147 -27 -235 -28c-1 -38 0 -87 4 -133c-54 -16 -177 -14 -222 0
c-6 42 -6 90 -3 133c-88 2 -169 7 -233 28c32 183 24 476 -8 639z" />
    <glyph glyph-name="afii10050" unicode="&#x490;" horiz-adv-x="625" 
d="M52 26c40 186 42 449 -2 625c76 39 203 38 286 40c18 0 33 0 53 -1c4 33 2 71 -5 105c34 12 159 16 224 -1c21 -71 19 -237 -47 -319c-56 32 -184 43 -219 35c-11 -166 -3 -339 26 -484c-66 -35 -250 -35 -316 0z" />
    <glyph glyph-name="afii10098" unicode="&#x491;" horiz-adv-x="625" 
d="M52 26c40 186 42 449 -2 625c76 39 203 38 286 40c18 0 33 0 53 -1c4 33 2 71 -5 105c34 12 159 16 224 -1c21 -71 19 -237 -47 -319c-56 32 -184 43 -219 35c-11 -166 -3 -339 26 -484c-66 -35 -250 -35 -316 0z" />
    <glyph glyph-name="endash" unicode="&#x2013;" horiz-adv-x="499" 
d="M41 254c-29 40 -26 125 -2 170c40 0 83 -4 124 -3c32 1 139 1 172 0c41 -1 83 3 123 3c31 -45 25 -129 -2 -170c-36 6 -80 6 -125 7c-33 1 -141 1 -173 0c-42 -2 -83 -2 -117 -7z" />
    <glyph glyph-name="emdash" unicode="&#x2014;" horiz-adv-x="634" 
d="M61 254c-29 40 -26 125 -2 170c40 0 83 -2 124 -3c32 -1 234 -1 267 0c41 1 83 2 123 3c31 -45 25 -129 -2 -170c-36 6 -91 6 -136 7c-33 1 -218 2 -250 1c-42 -2 -90 -3 -124 -8z" />
    <glyph glyph-name="quoteleft" unicode="&#x2018;" horiz-adv-x="348" 
d="M175 424c-91 2 -142 46 -149 131c-10 116 55 238 139 304c46 16 125 -2 144 -43c-56 -46 -93 -94 -101 -138c64 -5 118 -49 114 -128c-3 -64 -44 -128 -147 -126z" />
    <glyph glyph-name="quoteright" unicode="&#x2019;" horiz-adv-x="358" 
d="M178 873c91 -2 142 -46 149 -131c10 -116 -55 -238 -139 -304c-46 -16 -125 2 -144 43c56 46 93 94 101 138c-64 5 -118 49 -114 128c3 64 44 128 147 126z" />
    <glyph glyph-name="quotesinglbase" unicode="&#x201a;" horiz-adv-x="320" 
d="M159 186c79 -1 123 -39 129 -113c3 -29 0 -61 -9 -92c-20 -73 -68 -138 -111 -172c-40 -14 -109 2 -125 37c48 40 80 82 87 120c-55 4 -102 43 -99 111c3 56 39 111 128 109z" />
    <glyph glyph-name="quotedblleft" unicode="&#x201c;" horiz-adv-x="710" 
d="M537 424c-91 2 -142 46 -149 131c-10 116 55 238 139 304c46 16 125 -2 144 -43c-56 -46 -93 -94 -101 -138c64 -5 118 -49 114 -128c-3 -64 -44 -128 -147 -126zM175 424c-91 2 -142 46 -149 131c-10 116 55 238 139 304c46 16 125 -2 144 -43
c-56 -46 -93 -94 -101 -138c64 -5 118 -49 114 -128c-3 -64 -44 -128 -147 -126z" />
    <glyph glyph-name="quotedblright" unicode="&#x201d;" horiz-adv-x="710" 
d="M173 873c91 -2 142 -46 149 -131c10 -116 -55 -238 -139 -304c-46 -16 -125 2 -144 43c56 46 93 94 101 138c-64 5 -118 49 -114 128c3 64 44 128 147 126zM535 873c91 -2 142 -46 149 -131c10 -116 -55 -238 -139 -304c-46 -16 -125 2 -144 43c56 46 93 94 101 138
c-64 5 -118 49 -114 128c3 64 44 128 147 126z" />
    <glyph glyph-name="quotedblbase" unicode="&#x201e;" horiz-adv-x="644" 
d="M159 186c79 -1 123 -39 129 -113c3 -29 0 -61 -9 -92c-20 -73 -68 -138 -111 -172c-40 -14 -109 2 -125 37c48 40 80 82 87 120c-55 4 -102 43 -99 111c3 56 39 111 128 109zM493 186c79 -1 123 -39 129 -113c3 -29 0 -61 -9 -92c-20 -73 -68 -138 -111 -172
c-40 -14 -109 2 -125 37c48 40 80 82 87 120c-55 4 -102 43 -99 111c3 56 39 111 128 109z" />
    <glyph glyph-name="dagger" unicode="&#x2020;" horiz-adv-x="666" 
d="M239 706c40 29 142 27 187 3c-2 -39 -10 -110 -10 -183l178 5c31 -45 26 -133 -2 -174c-37 3 -103 7 -176 9l5 -352c-45 -31 -141 -26 -182 2c3 38 8 275 9 351c-79 -1 -149 -5 -177 -10c-29 40 -26 129 -2 174c39 -2 108 -5 180 -5c0 81 -5 151 -10 180z" />
    <glyph glyph-name="daggerdbl" unicode="&#x2021;" horiz-adv-x="666" 
d="M253 446c-77 -1 -155 -5 -182 -10c-29 40 -26 129 -2 174c39 -2 107 -5 179 -5c0 81 0 151 -5 180c40 29 133 26 178 2c-2 -39 -5 -109 -5 -182l178 5c31 -45 26 -133 -2 -174c-36 3 -105 7 -176 9v-181l178 5c31 -45 26 -133 -2 -174c-37 3 -103 7 -176 9l5 -183
c-45 -31 -141 -26 -182 2c3 38 8 106 9 182c-79 -1 -149 -5 -177 -10c-29 40 -26 129 -2 174c37 -2 112 -5 181 -5c1 52 4 122 3 182z" />
    <glyph glyph-name="bullet" unicode="&#x2022;" horiz-adv-x="561" 
d="M280 489c130 0 181 -75 181 -169c0 -93 -58 -164 -181 -164c-124 0 -180 71 -180 164c0 94 50 169 180 169z" />
    <glyph glyph-name="ellipsis" unicode="&#x2026;" horiz-adv-x="1044" 
d="M174 237c103 0 144 -56 144 -127c0 -70 -46 -123 -144 -123c-99 0 -144 53 -144 123c0 71 40 127 144 127zM522 237c103 0 144 -56 144 -127c0 -70 -46 -123 -144 -123c-99 0 -144 53 -144 123c0 71 40 127 144 127zM870 237c103 0 144 -56 144 -127
c0 -70 -46 -123 -144 -123c-99 0 -144 53 -144 123c0 71 40 127 144 127z" />
    <glyph glyph-name="perthousand" unicode="&#x2030;" horiz-adv-x="1448" 
d="M820 141c1 71 -7 98 -42 98s-43 -27 -42 -98c-1 -72 7 -98 42 -99c35 1 43 27 42 99zM579 141c2 117 95 179 199 179s193 -62 194 -179c-1 -116 -90 -178 -194 -178s-197 62 -199 178zM742 751c64 25 135 -9 144 -67c-125 -184 -460 -544 -667 -799
c-46 -21 -127 2 -155 63c167 179 518 561 678 803zM291 544c1 71 -7 98 -42 98s-43 -27 -42 -98c-1 -72 7 -99 42 -100c35 1 43 28 42 100zM50 544c2 116 95 178 199 178s193 -62 194 -178c-1 -117 -90 -179 -194 -179s-197 62 -199 179zM1257 130c1 71 -7 98 -42 98
s-43 -27 -42 -98c-1 -72 7 -98 42 -99c35 1 43 27 42 99zM1016 130c2 117 95 179 199 179s193 -62 194 -179c-1 -116 -90 -178 -194 -178s-197 62 -199 178z" />
    <glyph glyph-name="guilsinglleft" unicode="&#x2039;" horiz-adv-x="511" 
d="M40 347c75 51 209 196 274 325c72 -9 137 -61 147 -113c-51 -97 -146 -201 -167 -212c21 -11 116 -114 167 -211c-10 -53 -75 -104 -147 -114c-65 130 -199 274 -274 325z" />
    <glyph glyph-name="guilsinglright" unicode="&#x203a;" horiz-adv-x="511" 
d="M471 347c-75 -51 -209 -195 -274 -325c-72 10 -137 61 -147 114c51 97 146 200 167 211c-21 11 -116 115 -167 212c10 52 75 104 147 113c65 -129 199 -274 274 -325z" />
    <glyph glyph-name="Euro" unicode="&#x20ac;" horiz-adv-x="902" 
d="M176 391c-44 -1 -95 -6 -111 -9c-23 35 -17 106 12 137c24 -5 82 -7 124 -8c61 165 225 194 383 197c111 1 220 -18 267 -61c3 -51 -49 -98 -69 -92c-31 18 -94 34 -158 34c-72 0 -144 -21 -154 -83c62 -1 246 5 264 8c36 -45 14 -112 -12 -136c-26 5 -216 7 -268 7
c-3 -27 -5 -46 0 -73c57 1 198 6 214 9c30 -40 21 -107 -12 -139c-17 4 -135 8 -183 9c7 -44 57 -69 105 -73c78 -6 148 17 209 42c30 -17 51 -71 35 -109c-92 -51 -352 -98 -521 5c-38 23 -77 65 -101 135c-40 -1 -83 -6 -98 -9c-25 35 -14 113 11 137c16 -3 39 -5 64 -6
c-2 26 -2 52 -1 78z" />
    <glyph glyph-name="afii61352" unicode="&#x2116;" horiz-adv-x="1403" 
d="M773 29c-23 -13 -89 -31 -138 -31c-47 0 -98 9 -142 28c-44 86 -117 216 -187 306c10 -119 4 -239 -4 -314c-31 -14 -100 -24 -142 -22c-34 2 -75 9 -110 28c31 206 46 422 9 639c59 32 232 31 293 6c59 -121 145 -249 177 -297c4 108 10 209 23 306
c87 18 146 20 223 -15c-37 -192 -33 -433 -2 -634zM1093 690c85 0 137 -19 173 -57c44 -46 57 -106 57 -163s-13 -118 -57 -164c-36 -37 -88 -57 -173 -57s-138 20 -174 57c-43 46 -56 107 -56 164s13 117 56 163c36 38 89 57 174 57zM1093 331c34 -1 45 47 46 135
c2 82 -7 142 -46 143c-40 -1 -48 -61 -47 -143c2 -88 12 -136 47 -135zM885 30c34 5 74 5 116 6c33 2 141 2 173 1c46 -2 89 -2 125 -7c28 41 33 124 3 170c-41 -1 -83 -4 -124 -3h-172c-41 -1 -83 2 -124 3c-24 -45 -27 -130 3 -170z" />
    <glyph glyph-name="trademark" unicode="&#x2122;" horiz-adv-x="795" 
d="M377 517c19 77 18 185 0 261c32 18 93 19 126 5c10 -10 41 -66 58 -114c17 48 48 104 58 114c34 14 94 13 126 -5c-18 -76 -18 -184 0 -261c-9 -5 -30 -10 -51 -10c-30 0 -38 4 -48 8c-4 26 -6 43 -7 65c-2 26 -1 55 2 89c-15 -19 -36 -66 -48 -100c-9 -5 -20 -8 -31 -8
c-12 0 -23 2 -32 8c-13 34 -34 81 -49 100c3 -34 4 -63 2 -89c-1 -22 -3 -39 -7 -65c-10 -4 -18 -8 -48 -8c-20 0 -41 5 -51 10zM79 697c-10 10 -11 56 -1 78c18 10 83 16 136 17c45 0 98 -4 137 -15c3 -25 -6 -67 -15 -81c-10 3 -43 9 -76 11c-7 -57 4 -142 23 -186
c-17 -8 -43 -15 -75 -15c-33 0 -45 2 -62 9c-6 68 -1 139 9 192c-30 -2 -59 -5 -76 -10z" />
    <glyph glyph-name="_127" horiz-adv-x="500" 
 />
    <glyph glyph-name="_128" horiz-adv-x="500" 
 />
    <glyph glyph-name="_152" horiz-adv-x="500" 
 />
    <glyph glyph-name="_153" horiz-adv-x="500" 
 />
    </font>
</defs>
</svg>
